<svg width="187" height="82" viewBox="0 0 187 82" fill="none" xmlns="http://www.w3.org/2000/svg">
<g clip-path="url(#clip0_23_1395)">
<rect width="187" height="82" fill="#202327"/>
<path d="M20.6909 25V16.8687H23.6426V15.8403H16.5967V16.8687H19.5483V25H20.6909ZM24.3154 25H25.4072V20.7598C25.4072 19.7949 26.1626 19.0967 27.2036 19.0967C27.4194 19.0967 27.813 19.1348 27.9019 19.1602V18.0684C27.7622 18.0493 27.5337 18.0366 27.356 18.0366C26.4482 18.0366 25.6611 18.5063 25.458 19.1729H25.3564V18.1572H24.3154V25ZM31.8057 19.0015C32.8911 19.0015 33.6147 19.8013 33.6401 21.0137H29.8696C29.9521 19.8013 30.7139 19.0015 31.8057 19.0015ZM33.6084 23.229C33.3228 23.832 32.7261 24.1558 31.8438 24.1558C30.6821 24.1558 29.9268 23.2988 29.8696 21.9468V21.896H34.7891V21.4771C34.7891 19.3506 33.6655 18.0366 31.8184 18.0366C29.9395 18.0366 28.7334 19.4331 28.7334 21.585C28.7334 23.7495 29.9204 25.1206 31.8184 25.1206C33.3164 25.1206 34.3701 24.4033 34.7002 23.229H33.6084ZM36.5029 25H37.5947V20.9502C37.5947 19.7505 38.2993 19.0205 39.3911 19.0205C40.4829 19.0205 41.0034 19.6045 41.0034 20.8359V25H42.0952V20.5693C42.0952 18.9443 41.2383 18.0366 39.7021 18.0366C38.6548 18.0366 37.9883 18.481 37.6455 19.2363H37.5439V18.1572H36.5029V25ZM46.6274 25.1206C47.5732 25.1206 48.3857 24.6699 48.8174 23.9082H48.9189V25H49.96V15.4404H48.8682V19.2363H48.7729C48.3857 18.4873 47.5796 18.0366 46.6274 18.0366C44.8882 18.0366 43.752 19.4331 43.752 21.5786C43.752 23.7305 44.8755 25.1206 46.6274 25.1206ZM46.8813 19.0205C48.1191 19.0205 48.8936 20.0107 48.8936 21.5786C48.8936 23.1592 48.1255 24.1367 46.8813 24.1367C45.6309 24.1367 44.8818 23.1782 44.8818 21.5786C44.8818 19.9854 45.6372 19.0205 46.8813 19.0205ZM52.1055 25H53.1973V18.1572H52.1055V25ZM52.6514 16.7671C53.0703 16.7671 53.4131 16.4243 53.4131 16.0054C53.4131 15.5864 53.0703 15.2437 52.6514 15.2437C52.2324 15.2437 51.8896 15.5864 51.8896 16.0054C51.8896 16.4243 52.2324 16.7671 52.6514 16.7671ZM55.2793 25H56.3711V20.9502C56.3711 19.7505 57.0757 19.0205 58.1675 19.0205C59.2593 19.0205 59.7798 19.6045 59.7798 20.8359V25H60.8716V20.5693C60.8716 18.9443 60.0146 18.0366 58.4785 18.0366C57.4312 18.0366 56.7646 18.481 56.4219 19.2363H56.3203V18.1572H55.2793V25ZM65.6387 23.9336C64.3691 23.9336 63.6582 22.9688 63.6582 21.4771C63.6582 19.9854 64.3691 19.0205 65.6387 19.0205C66.9019 19.0205 67.6699 19.9854 67.6699 21.4771C67.6699 22.9688 66.9082 23.9336 65.6387 23.9336ZM65.6895 27.6279C67.5557 27.6279 68.7363 26.6504 68.7363 25.1206V18.1572H67.6953V19.2427H67.5938C67.2002 18.5063 66.356 18.0366 65.3975 18.0366C63.6392 18.0366 62.5283 19.4268 62.5283 21.4771C62.5283 23.5273 63.6265 24.8984 65.3975 24.8984C66.3369 24.8984 67.1113 24.4731 67.543 23.7178H67.6445V25.0635C67.6445 26.0728 66.9146 26.6758 65.6895 26.6758C64.7056 26.6758 64.0962 26.314 63.9756 25.7554H62.8203C62.9854 26.8853 64.0391 27.6279 65.6895 27.6279ZM74.4873 25H75.5791V18.1572H74.4873V25ZM75.0332 16.7671C75.4521 16.7671 75.7949 16.4243 75.7949 16.0054C75.7949 15.5864 75.4521 15.2437 75.0332 15.2437C74.6143 15.2437 74.2715 15.5864 74.2715 16.0054C74.2715 16.4243 74.6143 16.7671 75.0332 16.7671ZM77.6611 25H78.7529V20.9502C78.7529 19.7505 79.4575 19.0205 80.5493 19.0205C81.6411 19.0205 82.1616 19.6045 82.1616 20.8359V25H83.2534V20.5693C83.2534 18.9443 82.3965 18.0366 80.8604 18.0366C79.813 18.0366 79.1465 18.481 78.8037 19.2363H78.7021V18.1572H77.6611V25ZM92.5845 25V16.8687H95.5361V15.8403H88.4902V16.8687H91.4419V25H92.5845ZM101.744 18.1572H100.652V22.207C100.652 23.4067 99.9922 24.124 98.7861 24.124C97.6943 24.124 97.2373 23.5527 97.2373 22.3213V18.1572H96.1455V22.5879C96.1455 24.2065 96.9453 25.1206 98.4814 25.1206C99.5288 25.1206 100.259 24.689 100.602 23.9272H100.703V25H101.744V18.1572ZM103.801 25H104.893V20.7598C104.893 19.7949 105.648 19.0967 106.689 19.0967C106.905 19.0967 107.298 19.1348 107.387 19.1602V18.0684C107.248 18.0493 107.019 18.0366 106.841 18.0366C105.934 18.0366 105.146 18.5063 104.943 19.1729H104.842V18.1572H103.801V25ZM110.009 21.147H109.907V15.4404H108.815V25H109.907V22.4038L110.561 21.7944L113.125 25H114.516L111.374 21.0898L114.319 18.1572H112.979L110.009 21.147ZM118.223 19.0015C119.308 19.0015 120.032 19.8013 120.057 21.0137H116.287C116.369 19.8013 117.131 19.0015 118.223 19.0015ZM120.025 23.229C119.74 23.832 119.143 24.1558 118.261 24.1558C117.099 24.1558 116.344 23.2988 116.287 21.9468V21.896H121.206V21.4771C121.206 19.3506 120.083 18.0366 118.235 18.0366C116.356 18.0366 115.15 19.4331 115.15 21.585C115.15 23.7495 116.337 25.1206 118.235 25.1206C119.733 25.1206 120.787 24.4033 121.117 23.229H120.025ZM123.377 27.4756C124.589 27.4756 125.135 27.0059 125.719 25.4189L128.392 18.1572H127.23L125.357 23.7876H125.256L123.377 18.1572H122.196L124.729 25.0063L124.602 25.4126C124.316 26.2378 123.974 26.5361 123.345 26.5361C123.193 26.5361 123.021 26.5298 122.888 26.5044V27.4375C123.041 27.4629 123.231 27.4756 123.377 27.4756Z" fill="#6E767D"/>
<path d="M20.8413 46H22.4673L23.0239 43.2314H24.8037L25.104 41.6055H23.3389L23.7344 39.6865H25.4849L25.7852 38.0752H24.0566L24.5913 35.4238H22.9653L22.4233 38.0752H20.5337L21.061 35.4238H19.4424L18.9004 38.0752H17.2085L16.9009 39.6865H18.5928L18.1973 41.6055H16.5347L16.2344 43.2314H17.8823L17.3257 46H18.9443L19.501 43.2314H21.4053L20.8413 46ZM19.6841 41.752L20.1382 39.5474H22.2476L21.7861 41.752H19.6841ZM26.7666 43.063C26.8472 45.0332 28.4805 46.271 31 46.271C33.6514 46.271 35.2847 44.9673 35.2847 42.8359C35.2847 41.1953 34.3691 40.2798 32.2451 39.833L30.9707 39.562C29.7329 39.2983 29.2275 38.9248 29.2275 38.2729C29.2275 37.4673 29.96 36.9546 31.0659 36.9546C32.1353 36.9546 32.9116 37.5112 33.0142 38.3462H35.0942C35.0283 36.4639 33.3804 35.1602 31.0513 35.1602C28.6123 35.1602 27.0083 36.4712 27.0083 38.4634C27.0083 40.0747 27.9531 41.0781 29.8794 41.481L31.2563 41.7739C32.5527 42.0522 33.0801 42.4404 33.0801 43.1143C33.0801 43.9126 32.2671 44.4692 31.1172 44.4692C29.8721 44.4692 29.0078 43.9199 28.9053 43.063H26.7666ZM42.001 46.271C42.6675 46.271 43.2974 46.1758 43.854 45.9927L44.5864 47.0327H46.7251L45.4141 45.0405C46.4834 44.125 47.0767 42.6089 47.0767 40.7119C47.0767 37.2842 45.1064 35.1602 42.001 35.1602C38.8955 35.1602 36.9106 37.2842 36.9106 40.7119C36.9106 44.1616 38.8735 46.271 42.001 46.271ZM42.0083 44.3301C40.2798 44.3301 39.1738 42.9385 39.1738 40.7119C39.1738 38.5 40.2871 37.1011 42.001 37.1011C43.7075 37.1011 44.8208 38.5 44.8208 40.7119C44.8208 41.73 44.5498 42.5503 44.0664 43.0703L43.5757 42.4771H41.5688L42.77 44.2349C42.521 44.2935 42.272 44.3301 42.0083 44.3301ZM51.4053 35.4312H49.1934V42.3525C49.1934 44.6963 50.9146 46.271 53.6172 46.271C56.3271 46.271 58.0483 44.6963 58.0483 42.3525V35.4312H55.8364V42.1255C55.8364 43.4585 55.0381 44.3081 53.6172 44.3081C52.2036 44.3081 51.4053 43.4585 51.4053 42.1255V35.4312ZM62.8384 46V35.4312H60.6265V46H62.8384ZM65.4019 35.4238V46H69.562C72.7261 46 74.5205 44.0737 74.5205 40.6387C74.5205 37.3281 72.7041 35.4238 69.562 35.4238H65.4019ZM67.6138 37.3135H69.2104C71.1294 37.3135 72.2646 38.5366 72.2646 40.6753C72.2646 42.9092 71.166 44.1104 69.2104 44.1104H67.6138V37.3135Z" fill="#D9D9D9"/>
<path d="M16.9648 60.4175V60.4238H18.0693V60.4175C18.0693 59.3384 18.793 58.6211 19.8657 58.6211C20.875 58.6211 21.6558 59.3257 21.6558 60.2397C21.6558 60.9761 21.3701 61.4712 20.1895 62.7534L17.022 66.2129V67H22.9507V65.9717H18.6597V65.8701L20.8623 63.5024C22.3667 61.8901 22.7983 61.1475 22.7983 60.1953C22.7983 58.7417 21.5415 57.6245 19.8975 57.6245C18.1963 57.6245 16.9648 58.7925 16.9648 60.4175ZM25.3882 69.3296L26.3848 65.7178H25.1724L24.5693 69.3296H25.3882ZM31.1201 67.2158C33.1768 67.2158 34.3574 65.4766 34.3574 62.436C34.3574 59.4019 33.1577 57.6245 31.1201 57.6245C29.0698 57.6245 27.8701 59.3955 27.8701 62.417C27.8701 65.4639 29.0571 67.2158 31.1201 67.2158ZM31.1201 66.2192C29.7681 66.2192 29.019 64.8672 29.019 62.417C29.019 59.9985 29.7808 58.6274 31.1201 58.6274C32.4595 58.6274 33.2085 59.9858 33.2085 62.417C33.2085 64.8735 32.4722 66.2192 31.1201 66.2192ZM39.4673 67.2095C41.3462 67.2095 42.6792 65.8955 42.6792 64.0547C42.6792 62.2773 41.416 60.9888 39.6704 60.9888C38.5786 60.9888 37.6836 61.5093 37.2329 62.3979H37.1313C37.1948 59.9604 38.0391 58.6401 39.5308 58.6401C40.4321 58.6401 41.124 59.1606 41.3716 60.0176H42.5459C42.2539 58.5449 41.0986 57.6245 39.5435 57.6245C37.3027 57.6245 36.0205 59.4272 36.0205 62.5757C36.0205 63.585 36.1665 64.4292 36.4648 65.1274C37.0361 66.4731 38.0898 67.2095 39.4673 67.2095ZM39.4546 66.2065C38.2803 66.2065 37.3853 65.2798 37.3853 64.0547C37.3853 62.8423 38.2549 61.979 39.4673 61.979C40.6797 61.979 41.5239 62.8423 41.5239 64.0928C41.5239 65.2925 40.6289 66.2065 39.4546 66.2065ZM47.7573 67.2095C49.6362 67.2095 50.9692 65.8955 50.9692 64.0547C50.9692 62.2773 49.7061 60.9888 47.9604 60.9888C46.8687 60.9888 45.9736 61.5093 45.5229 62.3979H45.4214C45.4849 59.9604 46.3291 58.6401 47.8208 58.6401C48.7222 58.6401 49.4141 59.1606 49.6616 60.0176H50.8359C50.5439 58.5449 49.3887 57.6245 47.8335 57.6245C45.5928 57.6245 44.3105 59.4272 44.3105 62.5757C44.3105 63.585 44.4565 64.4292 44.7549 65.1274C45.3262 66.4731 46.3799 67.2095 47.7573 67.2095ZM47.7446 66.2065C46.5703 66.2065 45.6753 65.2798 45.6753 64.0547C45.6753 62.8423 46.5449 61.979 47.7573 61.979C48.9697 61.979 49.814 62.8423 49.814 64.0928C49.814 65.2925 48.9189 66.2065 47.7446 66.2065ZM60.1479 67V58.8687H63.0996V57.8403H56.0537V58.8687H59.0054V67H60.1479ZM72.5068 60.1572H71.4087L70.063 65.6289H69.9614L68.4316 60.1572H67.3843L65.8545 65.6289H65.7529L64.4072 60.1572H63.3027L65.2197 67H66.3242L67.8477 61.7061H67.9492L69.479 67H70.5898L72.5068 60.1572ZM76.4424 61.0015C77.5278 61.0015 78.2515 61.8013 78.2769 63.0137H74.5063C74.5889 61.8013 75.3506 61.0015 76.4424 61.0015ZM78.2451 65.229C77.9595 65.832 77.3628 66.1558 76.4805 66.1558C75.3188 66.1558 74.5635 65.2988 74.5063 63.9468V63.896H79.4258V63.4771C79.4258 61.3506 78.3022 60.0366 76.4551 60.0366C74.5762 60.0366 73.3701 61.4331 73.3701 63.585C73.3701 65.7495 74.5571 67.1206 76.4551 67.1206C77.9531 67.1206 79.0068 66.4033 79.3369 65.229H78.2451ZM83.8691 61.0015C84.9546 61.0015 85.6782 61.8013 85.7036 63.0137H81.9331C82.0156 61.8013 82.7773 61.0015 83.8691 61.0015ZM85.6719 65.229C85.3862 65.832 84.7896 66.1558 83.9072 66.1558C82.7456 66.1558 81.9902 65.2988 81.9331 63.9468V63.896H86.8525V63.4771C86.8525 61.3506 85.729 60.0366 83.8818 60.0366C82.0029 60.0366 80.7969 61.4331 80.7969 63.585C80.7969 65.7495 81.9839 67.1206 83.8818 67.1206C85.3799 67.1206 86.4336 66.4033 86.7637 65.229H85.6719ZM89.0234 58.3862V60.1572H87.9189V61.0713H89.0234V65.2227C89.0234 66.5303 89.5884 67.0508 90.9976 67.0508C91.2134 67.0508 91.4229 67.0254 91.6387 66.9873V66.0669C91.4355 66.0859 91.3276 66.0923 91.1309 66.0923C90.4199 66.0923 90.1152 65.7495 90.1152 64.9434V61.0713H91.6387V60.1572H90.1152V58.3862H89.0234ZM93.0034 62.0298C93.0034 63.02 93.5874 63.5723 94.8696 63.8833L96.0439 64.1689C96.7739 64.3467 97.1294 64.6641 97.1294 65.1338C97.1294 65.7622 96.4692 66.2002 95.5488 66.2002C94.6729 66.2002 94.127 65.832 93.9429 65.2544H92.8193C92.9399 66.3906 93.9873 67.1206 95.5107 67.1206C97.0659 67.1206 98.2529 66.2764 98.2529 65.0513C98.2529 64.0674 97.6309 63.5088 96.3423 63.1978L95.2886 62.9438C94.4824 62.7471 94.1016 62.4551 94.1016 61.9854C94.1016 61.376 94.7363 60.9634 95.5488 60.9634C96.374 60.9634 96.9072 61.3252 97.0532 61.8711H98.1323C97.9863 60.7476 96.9897 60.0366 95.5552 60.0366C94.1016 60.0366 93.0034 60.8936 93.0034 62.0298Z" fill="#6E767D"/>
<rect width="42" height="18" transform="translate(145 12)" fill="#202327"/>
<path d="M156.75 22.5C157.578 22.5 158.25 21.8284 158.25 21C158.25 20.1716 157.578 19.5 156.75 19.5C155.922 19.5 155.25 20.1716 155.25 21C155.25 21.8284 155.922 22.5 156.75 22.5Z" fill="#6E767D"/>
<path d="M162 22.5C162.828 22.5 163.5 21.8284 163.5 21C163.5 20.1716 162.828 19.5 162 19.5C161.172 19.5 160.5 20.1716 160.5 21C160.5 21.8284 161.172 22.5 162 22.5Z" fill="#6E767D"/>
<path d="M167.25 22.5C168.078 22.5 168.75 21.8284 168.75 21C168.75 20.1716 168.078 19.5 167.25 19.5C166.422 19.5 165.75 20.1716 165.75 21C165.75 21.8284 166.422 22.5 167.25 22.5Z" fill="#6E767D"/>
</g>
<defs>
<clipPath id="clip0_23_1395">
<rect width="187" height="82" fill="white"/>
</clipPath>
</defs>
</svg>
