<svg width="192" height="149" viewBox="0 0 192 149" fill="none" xmlns="http://www.w3.org/2000/svg">
<rect x="0.05" y="0.05" width="191.9" height="148.9" rx="4.95" stroke="white" stroke-width="0.1" stroke-dasharray="10 10"/>
<path d="M23.643 4.937C22.808 5.307 21.911 5.557 20.968 5.67C21.93 5.094 22.668 4.18 23.016 3.092C22.116 3.626 21.119 4.014 20.058 4.222C19.208 3.318 17.998 2.752 16.658 2.752C14.086 2.752 12 4.838 12 7.412C12 7.776 12.042 8.13 12.12 8.472C8.24701 8.277 4.81601 6.422 2.51801 3.604C2.11801 4.294 1.88801 5.094 1.88801 5.946C1.88801 7.562 2.71101 8.989 3.96001 9.824C3.19601 9.799 2.47801 9.59 1.85001 9.241V9.301C1.85001 11.558 3.45501 13.441 5.58701 13.869C5.19501 13.975 4.78401 14.031 4.36001 14.031C4.06001 14.031 3.76701 14.003 3.48301 13.949C4.07601 15.799 5.79601 17.147 7.83501 17.183C6.24001 18.433 4.23101 19.178 2.04901 19.178C1.67301 19.178 1.30201 19.156 0.937012 19.113C2.99901 20.436 5.44701 21.206 8.07701 21.206C16.647 21.206 21.332 14.108 21.332 7.952C21.332 7.752 21.327 7.55 21.318 7.35C22.228 6.692 23.018 5.873 23.641 4.94L23.643 4.937Z" fill="#D9D9D9"/>
<path d="M78.58 7.34999L68.475 1.89699C68.178 1.73699 67.821 1.73699 67.525 1.89699L57.425 7.34999C56.939 7.61399 56.758 8.21999 57.02 8.70599C57.2 9.04099 57.545 9.23099 57.9 9.23099C58.06 9.23099 58.224 9.19299 58.375 9.11099L59.109 8.71499L60.699 19.965C60.915 21.179 62.009 22.027 63.359 22.027H72.641C73.991 22.027 75.085 21.179 75.303 19.939L76.891 8.71399L77.628 9.11199C78.113 9.37499 78.72 9.19399 78.982 8.70799C79.245 8.22199 79.062 7.61499 78.578 7.35299L78.58 7.34999ZM68 15.435C66.205 15.435 64.75 13.98 64.75 12.185C64.75 10.39 66.205 8.93499 68 8.93499C69.795 8.93499 71.25 10.39 71.25 12.185C71.25 13.98 69.795 15.435 68 15.435Z" fill="#D9D9D9"/>
<path d="M161.697 16.468C161.677 16.452 159.557 14.828 159.594 10.438C159.614 7.90599 158.782 5.65599 157.247 4.10299C155.872 2.70999 154.01 1.93999 152.005 1.92999H151.992C149.988 1.93999 148.126 2.70999 146.75 4.10399C145.216 5.65699 144.382 7.90599 144.404 10.438C144.441 14.768 142.384 16.405 142.302 16.468C142.042 16.661 141.936 16.998 142.037 17.306C142.139 17.614 142.427 17.821 142.749 17.821H147.669C147.771 20.131 149.666 21.981 151.999 21.981C154.332 21.981 156.225 20.131 156.326 17.821H161.248C161.57 17.821 161.858 17.615 161.958 17.307C162.061 17 161.955 16.662 161.695 16.469L161.697 16.468ZM152 20.478C150.495 20.478 149.27 19.301 149.172 17.82H154.828C154.728 19.3 153.505 20.48 152 20.48V20.478ZM144.38 16.32C145.12 15.188 145.928 13.292 145.904 10.424C145.886 8.26399 146.548 6.44199 147.817 5.15699C148.91 4.04999 150.397 3.43699 152 3.42999C153.603 3.43799 155.087 4.04999 156.18 5.15799C157.45 6.44299 158.113 8.26399 158.095 10.425C158.071 13.293 158.88 15.19 159.62 16.321H144.38V16.32Z" fill="#D9D9D9"/>
<path d="M50.46 7.56999L40.357 2.11499C40.134 1.99499 39.867 1.99499 39.644 2.11499L29.543 7.56999C29.179 7.76699 29.043 8.22199 29.24 8.58699C29.375 8.83699 29.634 8.97999 29.9 8.97999C30.02 8.97999 30.143 8.94999 30.256 8.88999L31.071 8.44999L32.7 19.963C32.914 21.178 34.008 22.025 35.358 22.025H44.64C45.992 22.025 47.085 21.177 47.303 19.938L48.929 8.44799L49.747 8.88999C50.111 9.08299 50.567 8.94999 50.764 8.58599C50.96 8.22299 50.824 7.76799 50.46 7.56999ZM45.822 19.703C45.715 20.309 45.119 20.525 44.642 20.525H35.36C34.88 20.525 34.285 20.309 34.182 19.727L32.48 7.68999L40 3.62799L47.522 7.68799L45.822 19.703Z" fill="#D9D9D9"/>
<path d="M36.22 12.184C36.22 14.268 37.915 15.964 40 15.964C42.085 15.964 43.78 14.268 43.78 12.184C43.78 10.1 42.085 8.40399 40 8.40399C37.915 8.40399 36.22 10.1 36.22 12.184ZM42.28 12.184C42.28 13.442 41.258 14.464 40 14.464C38.742 14.464 37.72 13.442 37.72 12.184C37.72 10.926 38.742 9.90399 40 9.90399C41.258 9.90399 42.28 10.926 42.28 12.184Z" fill="#D9D9D9"/>
<path d="M189.697 16.468C189.677 16.452 187.557 14.828 187.594 10.438C187.614 7.90501 186.782 5.65601 185.247 4.10401C183.872 2.71101 182.01 1.94001 180.005 1.93201H179.992C177.988 1.94001 176.126 2.71201 174.75 4.10401C173.216 5.65701 172.383 7.90601 172.404 10.437C172.441 14.769 170.384 16.404 170.302 16.467C170.042 16.661 169.936 16.997 170.037 17.305C170.138 17.613 170.427 17.82 170.75 17.82H175.244C175.344 20.364 177.432 22.407 180 22.407C182.568 22.407 184.655 20.364 184.756 17.82H189.25C189.574 17.82 189.86 17.612 189.962 17.305C190.064 16.998 189.957 16.661 189.697 16.468ZM180 20.408C178.534 20.408 177.343 19.261 177.244 17.82H182.756C182.656 19.26 181.466 20.407 180 20.407V20.408Z" fill="#D9D9D9"/>
<path d="M19.25 31.018H4.75C3.233 31.018 2 32.252 2 33.77V46.265C2 47.783 3.233 49.018 4.75 49.018H19.25C20.767 49.018 22 47.783 22 46.265V33.77C22 32.252 20.767 31.018 19.25 31.018ZM4.75 32.518H19.25C19.94 32.518 20.5 33.078 20.5 33.768V34.482L12.45 39.849C12.177 40.029 11.824 40.031 11.55 39.847L3.5 34.482V33.768C3.5 33.078 4.06 32.518 4.75 32.518ZM19.25 47.516H4.75C4.06 47.516 3.5 46.956 3.5 46.266V36.24L10.74 41.07C11.123 41.326 11.562 41.454 12 41.454C12.44 41.454 12.877 41.326 13.26 41.071L20.5 36.241V46.263C20.5 46.953 19.94 47.513 19.25 47.513V47.516Z" fill="#D9D9D9"/>
<path d="M39.55 40.082C39.823 40.264 40.177 40.264 40.45 40.082L50 33.716V33.5C50 32.26 48.99 31.25 47.75 31.25H32.25C31.01 31.25 30 32.26 30 33.5V33.697L39.55 40.082Z" fill="#D9D9D9"/>
<path d="M41.26 41.295C40.877 41.55 40.44 41.677 40 41.677C39.56 41.677 39.123 41.55 38.74 41.294L30 35.452V47.122C30 48.362 31.01 49.372 32.25 49.372H47.75C48.99 49.372 50 48.362 50 47.122V35.47L41.26 41.293V41.295Z" fill="#D9D9D9"/>
<path d="M75.9 51.5C75.743 51.5 75.588 51.45 75.458 51.356L68 45.928L60.542 51.358C60.314 51.522 60.012 51.548 59.76 51.418C59.51 51.291 59.35 51.033 59.35 50.751V33.6C59.35 32.36 60.36 31.35 61.6 31.35H74.398C75.638 31.35 76.648 32.36 76.648 33.6V50.75C76.648 51.032 76.49 51.29 76.238 51.418C76.132 51.473 76.015 51.5 75.898 51.5H75.9ZM68 44.25C68.155 44.25 68.31 44.298 68.44 44.394L75.15 49.277V33.6C75.15 33.188 74.813 32.85 74.4 32.85H61.6C61.187 32.85 60.85 33.188 60.85 33.6V49.277L67.56 44.394C67.69 44.298 67.845 44.25 68 44.25Z" fill="#D9D9D9"/>
<path d="M131.75 50H116.25C115.01 50 114 48.99 114 47.75V32.25C114 31.01 115.01 30 116.25 30H131.75C132.99 30 134 31.01 134 32.25V47.75C134 48.99 132.99 50 131.75 50ZM116.25 31.5C115.836 31.5 115.5 31.837 115.5 32.25V47.75C115.5 48.163 115.836 48.5 116.25 48.5H131.75C132.164 48.5 132.5 48.163 132.5 47.75V32.25C132.5 31.837 132.164 31.5 131.75 31.5H116.25Z" fill="#D9D9D9"/>
<path d="M129 36.64H119C118.586 36.64 118.25 36.303 118.25 35.89C118.25 35.477 118.586 35.14 119 35.14H129C129.414 35.14 129.75 35.475 129.75 35.89C129.75 36.305 129.414 36.64 129 36.64ZM129 40.75H119C118.586 40.75 118.25 40.414 118.25 40C118.25 39.586 118.586 39.25 119 39.25H129C129.414 39.25 129.75 39.586 129.75 40C129.75 40.414 129.414 40.75 129 40.75ZM124 44.86H119C118.586 44.86 118.25 44.525 118.25 44.11C118.25 43.695 118.586 43.36 119 43.36H124C124.414 43.36 124.75 43.697 124.75 44.11C124.75 44.523 124.414 44.86 124 44.86Z" fill="#D9D9D9"/>
<path d="M12 67.816C13.355 67.816 14.872 67.666 15.84 66.56C16.654 65.63 16.918 64.192 16.646 62.168C16.266 59.343 14.529 57.656 12 57.656C9.47103 57.656 7.73403 59.343 7.35403 62.17C7.08203 64.192 7.34603 65.63 8.16003 66.56C9.12803 67.667 10.645 67.816 12 67.816ZM8.84003 62.368C9.00203 61.168 9.62703 59.156 12 59.156C14.373 59.156 14.998 61.169 15.16 62.368C15.367 63.918 15.217 64.995 14.71 65.573C14.255 66.093 13.444 66.316 12 66.316C10.556 66.316 9.74503 66.093 9.29003 65.573C8.78303 64.995 8.63303 63.917 8.84003 62.368ZM20.28 75.236C19.403 71.71 15.998 69.246 12 69.246C8.00203 69.246 4.59703 71.71 3.72003 75.236C3.54803 75.928 3.69203 76.636 4.11503 77.176C4.52303 77.696 5.15503 77.996 5.84803 77.996H18.152C18.845 77.996 19.477 77.696 19.885 77.176C20.309 76.636 20.452 75.929 20.279 75.236H20.28ZM18.704 76.252C18.578 76.412 18.388 76.498 18.152 76.498H5.84803C5.61303 76.498 5.42203 76.413 5.29603 76.252C5.15903 76.078 5.11603 75.84 5.17603 75.598C5.88603 72.743 8.69303 70.748 12 70.748C15.307 70.748 18.114 72.742 18.824 75.598C18.884 75.84 18.841 76.078 18.704 76.252Z" fill="#D9D9D9"/>
<path d="M185 41.5C185.828 41.5 186.5 40.8284 186.5 40C186.5 39.1716 185.828 38.5 185 38.5C184.172 38.5 183.5 39.1716 183.5 40C183.5 40.8284 184.172 41.5 185 41.5Z" fill="#D9D9D9"/>
<path d="M180 41.5C180.828 41.5 181.5 40.8284 181.5 40C181.5 39.1716 180.828 38.5 180 38.5C179.172 38.5 178.5 39.1716 178.5 40C178.5 40.8284 179.172 41.5 180 41.5Z" fill="#D9D9D9"/>
<path d="M175 41.5C175.828 41.5 176.5 40.8284 176.5 40C176.5 39.1716 175.828 38.5 175 38.5C174.172 38.5 173.5 39.1716 173.5 40C173.5 40.8284 174.172 41.5 175 41.5Z" fill="#D9D9D9"/>
<path d="M180 50.75C174.072 50.75 169.25 45.928 169.25 40C169.25 34.072 174.072 29.25 180 29.25C185.928 29.25 190.75 34.072 190.75 40C190.75 45.928 185.928 50.75 180 50.75ZM180 30.75C174.9 30.75 170.75 34.9 170.75 40C170.75 45.1 174.9 49.25 180 49.25C185.1 49.25 189.25 45.1 189.25 40C189.25 34.9 185.1 30.75 180 30.75Z" fill="#D9D9D9"/>
<path d="M103.9 51.5C103.7 51.5 103.6 51.5 103.5 51.4L96 45.9L88.5 51.3C88.3 51.5 88 51.5 87.7 51.4C87.5 51.3 87.3 51 87.3 50.7V33.6C87.3 32.4 88.3 31.4 89.5 31.4H102.3C103.5 31.4 104.5 32.4 104.5 33.6V50.7C104.5 51 104.3 51.2 104.1 51.4C104.1 51.5 104 51.5 103.9 51.5Z" fill="#D9D9D9"/>
<path d="M159.75 30H144.25C143.013 30 142 31.013 142 32.25V47.75C142 48.987 143.013 50 144.25 50H159.75C160.987 50 162 48.987 162 47.75V32.25C162 31.013 160.987 30 159.75 30ZM151 44.75H147C146.586 44.75 146.25 44.414 146.25 44C146.25 43.586 146.586 43.25 147 43.25H151C151.414 43.25 151.75 43.586 151.75 44C151.75 44.414 151.414 44.75 151 44.75ZM157 40.75H147C146.586 40.75 146.25 40.414 146.25 40C146.25 39.586 146.586 39.25 147 39.25H157C157.414 39.25 157.75 39.586 157.75 40C157.75 40.414 157.414 40.75 157 40.75ZM157 36.75H147C146.586 36.75 146.25 36.414 146.25 36C146.25 35.586 146.586 35.25 147 35.25H157C157.414 35.25 157.75 35.586 157.75 36C157.75 36.414 157.414 36.75 157 36.75Z" fill="#D9D9D9"/>
<path d="M40.225 68.165C38.869 68.165 37.353 68.015 36.385 66.909C35.571 65.979 35.308 64.541 35.58 62.517C35.96 59.691 37.696 58.004 40.226 58.004C42.756 58.004 44.493 59.691 44.872 62.517C45.144 64.541 44.88 65.977 44.066 66.909C43.096 68.015 41.581 68.164 40.226 68.164L40.225 68.165ZM46.074 78.015H34.376C33.713 78.015 33.126 77.735 32.726 77.229C32.304 76.695 32.15 75.959 32.316 75.261C33.15 71.731 36.402 69.264 40.224 69.264C44.046 69.264 47.298 71.73 48.134 75.261C48.298 75.959 48.144 76.695 47.722 77.228C47.322 77.733 46.737 78.013 46.074 78.013V78.015Z" fill="#D9D9D9"/>
<path d="M105 7.337H101.07L101.442 3.065C101.478 2.653 101.172 2.29 100.76 2.253C100.343 2.223 99.984 2.523 99.948 2.936L99.565 7.336H93.245L93.615 3.066C93.652 2.653 93.345 2.29 92.935 2.253C92.515 2.223 92.158 2.523 92.122 2.936L91.74 7.336H87.782C87.368 7.336 87.032 7.673 87.032 8.086C87.032 8.499 87.368 8.836 87.782 8.836H91.61L91.06 15.163H87C86.586 15.163 86.25 15.499 86.25 15.913C86.25 16.327 86.586 16.663 87 16.663H90.93L90.558 20.935C90.522 21.347 90.828 21.71 91.24 21.747L91.306 21.75C91.691 21.75 92.018 21.455 92.052 21.064L92.435 16.664H98.755L98.385 20.934C98.349 21.347 98.655 21.71 99.067 21.747L99.133 21.75C99.518 21.75 99.845 21.455 99.879 21.064L100.261 16.664H104.218C104.631 16.664 104.968 16.327 104.968 15.914C104.968 15.501 104.631 15.164 104.218 15.164H100.39L100.94 8.837H105C105.414 8.837 105.75 8.501 105.75 8.087C105.75 7.673 105.414 7.337 105 7.337ZM98.885 15.163H92.565L93.115 8.837H99.435L98.885 15.163Z" fill="#D9D9D9"/>
<path d="M132.585 9.468C133.245 9.468 133.785 8.93 133.785 8.268C133.785 7.606 133.245 7.068 132.585 7.068H129.365L129.675 3.521C129.702 3.203 129.605 2.891 129.398 2.646C129.192 2.401 128.903 2.25 128.576 2.221C127.926 2.186 127.341 2.653 127.283 3.314L126.957 7.068H121.9L122.208 3.523C122.268 2.865 121.778 2.281 121.111 2.221C120.446 2.171 119.876 2.651 119.818 3.313L119.493 7.067H116.163C115.5 7.067 114.963 7.605 114.963 8.267C114.963 8.929 115.501 9.467 116.163 9.467H119.285L118.845 14.531H115.416C114.754 14.531 114.216 15.071 114.216 15.731C114.216 16.391 114.754 16.933 115.416 16.933H118.636L118.326 20.481C118.269 21.138 118.758 21.721 119.416 21.781L119.522 21.786C120.148 21.786 120.662 21.314 120.717 20.688L121.044 16.935H126.1L125.792 20.479C125.732 21.137 126.222 21.721 126.882 21.781L126.988 21.786C127.605 21.786 128.13 21.304 128.183 20.688L128.508 16.935H131.838C132.498 16.935 133.038 16.395 133.038 15.735C133.038 15.075 132.498 14.533 131.838 14.533H128.716L129.156 9.469H132.586L132.585 9.468ZM126.747 9.468L126.307 14.531H121.253L121.693 9.469H126.748L126.747 9.468Z" fill="#D9D9D9"/>
<path d="M78.772 66.506L73.154 64.314L70.994 57.814C70.892 57.507 70.604 57.3 70.282 57.3C69.96 57.3 69.672 57.507 69.57 57.813L67.41 64.313L61.79 66.505C61.503 66.617 61.313 66.895 61.313 67.205C61.313 67.515 61.503 67.79 61.791 67.903L67.411 70.095L69.571 76.595C69.673 76.901 69.961 77.108 70.283 77.108C70.605 77.108 70.893 76.901 70.995 76.595L73.155 70.095L78.775 67.903C79.062 67.791 79.252 67.513 79.252 67.203C79.252 66.893 79.062 66.618 78.774 66.506H78.772ZM72.282 68.826C72.074 68.906 71.912 69.076 71.842 69.286L70.282 73.981L68.722 69.288C68.652 69.078 68.492 68.908 68.284 68.826L64.129 67.206L68.283 65.584C68.491 65.504 68.653 65.334 68.723 65.122L70.283 60.429L71.843 65.123C71.913 65.335 72.073 65.505 72.281 65.586L76.436 67.206L72.281 68.828L72.282 68.826ZM62.663 59.812H60.783V58.05C60.783 57.636 60.446 57.3 60.033 57.3C59.62 57.3 59.283 57.636 59.283 58.05V59.812H57.5C57.086 59.812 56.75 60.148 56.75 60.562C56.75 60.976 57.086 61.312 57.5 61.312H59.282V63.074C59.282 63.488 59.618 63.824 60.032 63.824C60.446 63.824 60.782 63.488 60.782 63.074V61.312H62.662C63.077 61.312 63.412 60.976 63.412 60.562C63.412 60.148 63.077 59.812 62.662 59.812H62.663ZM65.198 75.434H64.098V74.418C64.098 74.004 63.763 73.668 63.348 73.668C62.933 73.668 62.598 74.004 62.598 74.418V75.434H61.57C61.156 75.434 60.82 75.77 60.82 76.184C60.82 76.598 61.156 76.934 61.57 76.934H62.6V77.95C62.6 78.364 62.935 78.7 63.35 78.7C63.765 78.7 64.1 78.364 64.1 77.95V76.934H65.198C65.612 76.934 65.948 76.598 65.948 76.184C65.948 75.77 65.612 75.434 65.198 75.434Z" fill="#D9D9D9"/>
<path d="M103.75 58H88.25C87.01 58 86 59.01 86 60.25V75.75C86 76.99 87.01 78 88.25 78H103.75C104.99 78 106 76.99 106 75.75V60.25C106 59.01 104.99 58 103.75 58ZM88.25 59.5H103.75C104.163 59.5 104.5 59.837 104.5 60.25V69.926L100.642 66.068C100.502 65.928 100.312 65.848 100.112 65.848H100.109C99.909 65.848 99.716 65.928 99.577 66.072L95.26 70.456L93.447 68.65C93.307 68.51 93.117 68.43 92.917 68.43C92.724 68.4 92.522 68.51 92.382 68.657L87.5 73.642V60.25C87.5 59.837 87.837 59.5 88.25 59.5ZM87.506 75.78L92.924 70.246L99.206 76.5H88.25C87.848 76.5 87.523 76.178 87.506 75.78ZM103.75 76.5H101.33L96.323 71.513L100.115 67.663L104.5 72.047V75.75C104.5 76.163 104.163 76.5 103.75 76.5Z" fill="#D9D9D9"/>
<path d="M92.868 65.851C93.7197 65.851 94.41 65.1606 94.41 64.309C94.41 63.4574 93.7197 62.767 92.868 62.767C92.0164 62.767 91.326 63.4574 91.326 64.309C91.326 65.1606 92.0164 65.851 92.868 65.851Z" fill="#D9D9D9"/>
<path d="M131 66.5V64.8H126.6V71.2H128.3V69.2H130.3V67.5H128.3V66.5H131ZM123.7 64.8H125.4V71.2H123.7V64.8ZM120.1 66.4C120.5 66.4 121 66.6 121.3 66.9L122.5 65.9C121.9 65.2 121 64.8 120.1 64.8C118.3 64.8 116.9 66.2 116.9 68C116.9 69.8 118.3 71.2 120.1 71.2C121.1 71.2 121.9 70.8 122.5 70.1V67.6H119.7V68.8H120.9V69.4C120.7 69.5 120.4 69.6 120.1 69.6C119.2 69.6 118.5 68.9 118.5 68C118.5 67.2 119.2 66.4 120.1 66.4Z" fill="#D9D9D9"/>
<path d="M132.5 58.02H115.5C114.26 58.02 113.25 59.027 113.25 60.267V75.774C113.25 77.012 114.26 78.02 115.5 78.02H132.5C133.74 78.02 134.75 77.012 134.75 75.774V60.267C134.75 59.027 133.74 58.02 132.5 58.02ZM133.25 75.774C133.25 76.184 132.914 76.52 132.5 76.52H115.5C115.086 76.52 114.75 76.184 114.75 75.774V60.267C114.75 59.855 115.086 59.52 115.5 59.52H132.5C132.914 59.52 133.25 59.855 133.25 60.267V75.774Z" fill="#D9D9D9"/>
<path d="M160.222 65.16H158.888C158.903 65.07 158.916 64.978 158.916 64.883V62.57C158.916 61.59 158.119 60.793 157.138 60.793H143.5V59.358C143.5 58.944 143.164 58.608 142.75 58.608C142.336 58.608 142 58.944 142 59.358V76.83C142 77.245 142.336 77.58 142.75 77.58C143.164 77.58 143.5 77.245 143.5 76.83V75.396H154.056C155.036 75.396 155.834 74.599 155.834 73.619V71.306C155.834 71.211 155.82 71.119 155.806 71.028H160.223C161.203 71.028 162.001 70.23 162.001 69.25V66.94C162.001 65.957 161.204 65.16 160.223 65.16H160.222ZM157.14 62.293C157.292 62.293 157.417 62.417 157.417 62.57V64.88C157.417 65.034 157.292 65.16 157.139 65.16H143.5V62.29H157.14V62.293ZM154.333 71.307V73.619C154.333 73.772 154.208 73.896 154.055 73.896H143.5V71.028H154.056C154.209 71.028 154.333 71.154 154.333 71.308V71.307ZM160.5 69.25C160.5 69.403 160.375 69.527 160.222 69.527H143.5V66.66H160.222C160.375 66.66 160.5 66.784 160.5 66.937V69.25Z" fill="#D9D9D9"/>
<path d="M180 78.75C174.072 78.75 169.25 73.928 169.25 68C169.25 62.072 174.072 57.25 180 57.25C185.928 57.25 190.75 62.072 190.75 68C190.75 73.928 185.928 78.75 180 78.75ZM180 58.75C174.9 58.75 170.75 62.9 170.75 68C170.75 73.1 174.9 77.25 180 77.25C185.1 77.25 189.25 73.1 189.25 68C189.25 62.9 185.1 58.75 180 58.75Z" fill="#D9D9D9"/>
<path d="M180 73.115C178.108 73.115 176.367 72.165 175.344 70.571C175.12 70.223 175.221 69.761 175.57 69.536C175.918 69.31 176.382 69.412 176.606 69.762C177.353 70.924 178.622 71.617 180.001 71.617C181.38 71.617 182.649 70.924 183.397 69.763C183.621 69.413 184.085 69.313 184.433 69.538C184.783 69.762 184.883 70.226 184.659 70.574C183.634 72.168 181.893 73.119 180.001 73.119L180 73.115Z" fill="#D9D9D9"/>
<path d="M182.738 66.936C183.554 66.936 184.216 66.2743 184.216 65.458C184.216 64.6417 183.554 63.98 182.738 63.98C181.922 63.98 181.26 64.6417 181.26 65.458C181.26 66.2743 181.922 66.936 182.738 66.936Z" fill="#D9D9D9"/>
<path d="M177.262 66.936C178.078 66.936 178.74 66.2743 178.74 65.458C178.74 64.6417 178.078 63.98 177.262 63.98C176.446 63.98 175.784 64.6417 175.784 65.458C175.784 66.2743 176.446 66.936 177.262 66.936Z" fill="#D9D9D9"/>
<g clip-path="url(#clip0_24_2028)">
<path d="M-37.9 103C-38 102.9 -38 102.9 -38 102.8C-37.9 102.8 -37.9 102.9 -37.9 103ZM18 87.2H16.7V86.9C16.7 86.5 16.4 86.1 15.9 86.1C15.5 86.1 15.1 86.4 15.1 86.9V87.2H7.7V86.9C7.7 86.5 7.4 86.1 6.9 86.1C6.5 86.1 6.1 86.4 6.1 86.9V87.2H4.8C3.4 87.2 2.3 88.3 2.3 89.7V102.8C2.3 104.2 3.4 105.3 4.8 105.3H7.7C8.1 105.3 8.5 105 8.5 104.5C8.5 104.1 8.2 103.7 7.7 103.7H4.8C4.2 103.7 3.8 103.2 3.8 102.7V92.9C3.8 92.6 4.2 92.2 4.8 92.2H18C18.6 92.2 19 92.6 19 92.9V94.7C19 95.1 19.3 95.5 19.8 95.5C20.2 95.5 20.6 95.2 20.6 94.7V89.7C20.5 88.3 19.4 87.2 18 87.2ZM19 90.9C18.7 90.8 18.3 90.7 18 90.7H4.8C4.4 90.7 4.1 90.8 3.8 90.9V89.7C3.8 89.1 4.3 88.7 4.8 88.7H6.1V89.2C6.1 89.6 6.4 90 6.9 90C7.3 90 7.7 89.7 7.7 89.2V88.7H15.2V89.2C15.2 89.6 15.5 90 16 90C16.4 90 16.8 89.7 16.8 89.2V88.7H18C18.6 88.7 19 89.2 19 89.7V90.9Z" fill="#D9D9D9"/>
<path d="M15.5 95.4C12.1 95.4 9.29999 98.2 9.29999 101.6C9.29999 105 12.1 107.8 15.5 107.8C18.9 107.8 21.7 105 21.7 101.6C21.7 98.2 18.9 95.4 15.5 95.4ZM15.5 106.4C12.9 106.4 10.8 104.3 10.8 101.7C10.8 99.1 12.9 97 15.5 97C18.1 97 20.2 99.1 20.2 101.7C20.2 104.2 18.1 106.4 15.5 106.4Z" fill="#D9D9D9"/>
<path d="M18.9 103.7C18.8 103.9 18.5 104.1 18.3 104.1C18.2 104.1 18 104.1 17.9 104L14.8 102V99C14.8 98.6 15.1 98.2 15.6 98.2C16 98.2 16.4 98.5 16.4 99V101.2L18.8 102.7C19 102.9 19.1 103.3 18.9 103.7Z" fill="#D9D9D9"/>
</g>
<path d="M49.53 105.47L45.87 101.81C47.195 100.24 48 98.214 48 96C48 91.03 43.97 87 39 87C34.03 87 30 91.03 30 96C30 100.97 34.03 105 39 105C41.215 105 43.24 104.196 44.808 102.87L48.468 106.53C48.615 106.676 48.808 106.75 48.998 106.75C49.188 106.75 49.383 106.677 49.528 106.53C49.823 106.237 49.823 105.763 49.53 105.47ZM31.5 96C31.5 91.865 34.865 88.5 39 88.5C43.135 88.5 46.5 91.865 46.5 96C46.5 100.135 43.135 103.5 39 103.5C34.865 103.5 31.5 100.135 31.5 96Z" fill="#D9D9D9"/>
<path d="M68.0001 93.21C65.9101 93.21 64.2101 94.91 64.2101 97C64.2101 99.09 65.9101 100.79 68.0001 100.79C70.0901 100.79 71.7901 99.09 71.7901 97C71.7901 94.91 70.0901 93.21 68.0001 93.21ZM68.0001 99.29C66.7381 99.29 65.7101 98.264 65.7101 97C65.7101 95.736 66.7401 94.71 68.0001 94.71C69.2601 94.71 70.2901 95.736 70.2901 97C70.2901 98.264 69.2621 99.29 68.0001 99.29Z" fill="#D9D9D9"/>
<path d="M68.36 107.375H67.638C66.455 107.375 65.484 106.487 65.376 105.311L65.362 105.164C65.337 104.877 65.155 104.631 64.89 104.52C64.604 104.4 64.308 104.455 64.092 104.635L63.976 104.732C63.108 105.457 61.723 105.395 60.916 104.592L60.406 104.082C59.57 103.242 59.51 101.928 60.266 101.022L60.364 100.904C60.55 100.682 60.594 100.381 60.486 100.117C60.376 99.845 60.128 99.663 59.84 99.637L59.69 99.623C58.51 99.516 57.623 98.543 57.623 97.361V96.639C57.623 95.456 58.511 94.485 59.687 94.377L59.843 94.363C60.128 94.338 60.373 94.156 60.485 93.89C60.595 93.62 60.55 93.317 60.365 93.095L60.271 92.979C59.514 92.071 59.573 90.756 60.408 89.919L60.92 89.407C61.724 88.603 63.108 88.542 63.98 89.267L64.096 89.365C64.314 89.549 64.624 89.595 64.886 89.487C65.156 89.375 65.338 89.129 65.363 88.844L65.377 88.691C65.484 87.511 66.457 86.625 67.639 86.625H68.361C69.544 86.625 70.515 87.513 70.623 88.689L70.637 88.845C70.662 89.13 70.843 89.375 71.109 89.485C71.386 89.602 71.689 89.547 71.903 89.368L72.023 89.266C72.89 88.543 74.277 88.604 75.083 89.406L75.593 89.918C76.429 90.756 76.489 92.071 75.733 92.978L75.633 93.096C75.445 93.316 75.399 93.618 75.51 93.884C75.622 94.154 75.87 94.334 76.156 94.362L76.308 94.376C77.488 94.483 78.375 95.456 78.375 96.638V97.361C78.375 98.544 77.487 99.515 76.311 99.623L76.156 99.637C75.872 99.661 75.626 99.842 75.516 100.107C75.403 100.379 75.449 100.681 75.633 100.902L75.733 101.022C76.489 101.927 76.429 103.242 75.593 104.082L75.083 104.592C74.276 105.396 72.893 105.456 72.023 104.732L71.908 104.636C71.691 104.453 71.378 104.406 71.118 104.514C70.845 104.628 70.663 104.874 70.638 105.16L70.624 105.31C70.517 106.483 69.544 107.37 68.362 107.37L68.36 107.375ZM64.587 102.955C64.887 102.955 65.18 103.015 65.457 103.13C66.247 103.458 66.781 104.184 66.857 105.026L66.871 105.173C66.908 105.573 67.238 105.873 67.641 105.873H68.363C68.763 105.873 69.093 105.573 69.131 105.173L69.145 105.025C69.221 104.183 69.755 103.458 70.537 103.133C71.33 102.803 72.233 102.951 72.87 103.483L72.983 103.577C73.161 103.725 73.349 103.757 73.476 103.757C73.682 103.757 73.876 103.677 74.022 103.53L74.532 103.02C74.816 102.736 74.837 102.29 74.58 101.982L74.48 101.862C73.938 101.212 73.803 100.322 74.128 99.539C74.454 98.749 75.18 98.219 76.022 98.142L76.177 98.128C76.574 98.091 76.877 97.761 76.877 97.358V96.636C76.877 96.236 76.574 95.906 76.175 95.868L76.023 95.854C75.177 95.776 74.453 95.244 74.128 94.461C73.802 93.673 73.938 92.783 74.481 92.134L74.581 92.016C74.838 91.706 74.817 91.26 74.533 90.976L74.023 90.466C73.877 90.319 73.683 90.239 73.477 90.239C73.35 90.239 73.162 90.271 72.985 90.419L72.865 90.519C72.231 91.047 71.315 91.189 70.543 90.873C69.755 90.546 69.223 89.821 69.146 88.977L69.132 88.822C69.097 88.425 68.767 88.122 68.365 88.122H67.642C67.242 88.122 66.912 88.425 66.874 88.824L66.86 88.976C66.784 89.819 66.252 90.544 65.47 90.869C64.683 91.195 63.777 91.052 63.14 90.519L63.022 90.423C62.842 90.273 62.654 90.243 62.527 90.243C62.321 90.243 62.127 90.323 61.981 90.469L61.469 90.979C61.187 91.263 61.166 91.709 61.423 92.017L61.523 92.135C62.063 92.788 62.2 93.679 61.875 94.46C61.548 95.248 60.823 95.78 59.98 95.857L59.824 95.871C59.427 95.908 59.124 96.238 59.124 96.641V97.363C59.124 97.763 59.427 98.093 59.826 98.131L59.976 98.145C60.824 98.223 61.549 98.757 61.873 99.541C62.198 100.327 62.063 101.216 61.52 101.866L61.424 101.981C61.164 102.291 61.186 102.737 61.47 103.021L61.98 103.531C62.126 103.678 62.32 103.758 62.526 103.758C62.653 103.758 62.841 103.728 63.018 103.578L63.134 103.482C63.54 103.146 64.057 102.958 64.587 102.958V102.955Z" fill="#D9D9D9"/>
<path d="M98.0459 87.242L93.8979 87.232H93.8959C89.5219 87.232 86.0959 90.659 86.0959 95.034C86.0959 99.132 89.2819 102.24 93.5609 102.404V106.232C93.5609 106.34 93.6049 106.518 93.6809 106.635C93.8229 106.86 94.0649 106.982 94.3129 106.982C94.4509 106.982 94.5899 106.944 94.7149 106.864C94.9789 106.696 101.188 102.724 102.803 101.358C104.705 99.748 105.843 97.388 105.846 95.046V95.029C105.84 90.662 102.416 87.242 98.0459 87.241V87.242ZM101.833 100.214C100.699 101.174 96.9709 103.619 95.0609 104.857V101.67C95.0609 101.256 94.7259 100.92 94.3109 100.92H93.9149C90.2549 100.92 87.5969 98.444 87.5969 95.034C87.5969 91.5 90.3649 88.732 93.8969 88.732L98.0439 88.742H98.0459C101.578 88.742 104.346 91.508 104.348 95.038C104.345 96.948 103.406 98.882 101.834 100.214H101.833Z" fill="#D9D9D9"/>
<path d="M135.77 100.67C135.478 100.377 135.003 100.377 134.71 100.67L132.49 102.89V92.65C132.49 90.582 130.807 88.9 128.74 88.9H122.89C122.476 88.9 122.14 89.236 122.14 89.65C122.14 90.064 122.476 90.4 122.89 90.4H128.74C129.98 90.4 130.99 91.41 130.99 92.65V102.89L128.77 100.67C128.477 100.377 128.002 100.377 127.71 100.67C127.418 100.963 127.416 101.438 127.71 101.73L131.21 105.23C131.355 105.377 131.547 105.45 131.74 105.45C131.933 105.45 132.123 105.378 132.27 105.23L135.77 101.73C136.064 101.438 136.064 100.963 135.77 100.67ZM125.11 103.95H119.26C118.02 103.95 117.01 102.94 117.01 101.7V91.46L119.23 93.68C119.378 93.827 119.57 93.9 119.762 93.9C119.954 93.9 120.146 93.827 120.292 93.68C120.585 93.387 120.585 92.912 120.292 92.62L116.792 89.12C116.499 88.826 116.024 88.826 115.732 89.12L112.232 92.62C111.938 92.912 111.938 93.387 112.232 93.68C112.526 93.973 112.999 93.973 113.292 93.68L115.512 91.46V101.7C115.512 103.768 117.195 105.45 119.262 105.45H125.112C125.526 105.45 125.862 105.114 125.862 104.7C125.862 104.286 125.525 103.95 125.112 103.95H125.11Z" fill="#D9D9D9"/>
<path d="M152 106.638H151.986C149.403 106.59 141.95 99.856 141.95 93.478C141.95 90.414 144.475 87.724 147.353 87.724C149.643 87.724 151.183 89.304 151.999 90.454C152.813 89.306 154.353 87.724 156.644 87.724C159.524 87.724 162.048 90.414 162.048 93.479C162.048 99.855 154.594 106.589 152.011 106.636H152V106.638ZM147.354 89.225C145.274 89.225 143.451 91.213 143.451 93.48C143.451 99.22 150.485 105.076 152.001 105.138C153.519 105.076 160.551 99.221 160.551 93.48C160.551 91.213 158.728 89.225 156.648 89.225C154.12 89.225 152.708 92.161 152.696 92.19C152.466 92.752 151.54 92.752 151.309 92.19C151.295 92.16 149.884 89.225 147.355 89.225H147.354Z" fill="#D9D9D9"/>
<path d="M185.53 92.47L180.53 87.47C180.237 87.177 179.762 87.177 179.47 87.47L174.47 92.47C174.176 92.763 174.176 93.238 174.47 93.53C174.764 93.822 175.237 93.824 175.53 93.53L179.25 89.81V100C179.25 100.414 179.586 100.75 180 100.75C180.414 100.75 180.75 100.414 180.75 100V89.81L184.47 93.53C184.616 93.677 184.808 93.75 185 93.75C185.192 93.75 185.384 93.678 185.53 93.53C185.823 93.237 185.823 92.763 185.53 92.47Z" fill="#D9D9D9"/>
<path d="M187.708 106.944H172.292C171.028 106.944 170 105.916 170 104.652V99C170 98.586 170.336 98.25 170.75 98.25C171.164 98.25 171.5 98.586 171.5 99V104.652C171.5 105.089 171.855 105.444 172.292 105.444H187.708C188.145 105.444 188.5 105.089 188.5 104.652V99C188.5 98.586 188.836 98.25 189.25 98.25C189.664 98.25 190 98.586 190 99V104.652C190 105.916 188.972 106.944 187.708 106.944Z" fill="#D9D9D9"/>
<path d="M5 127C6.10457 127 7 126.105 7 125C7 123.895 6.10457 123 5 123C3.89543 123 3 123.895 3 125C3 126.105 3.89543 127 5 127Z" fill="#D9D9D9"/>
<path d="M12 127C13.1046 127 14 126.105 14 125C14 123.895 13.1046 123 12 123C10.8954 123 10 123.895 10 125C10 126.105 10.8954 127 12 127Z" fill="#D9D9D9"/>
<path d="M19 127C20.1046 127 21 126.105 21 125C21 123.895 20.1046 123 19 123C17.8954 123 17 123.895 17 125C17 126.105 17.8954 127 19 127Z" fill="#D9D9D9"/>
<path d="M50.5 125.5C50.5 123.92 49.625 122.55 48.352 121.9C48.506 121.465 48.59 120.995 48.59 120.5C48.59 118.29 46.88 116.502 44.772 116.502C44.302 116.502 43.852 116.586 43.436 116.752C42.818 115.415 41.51 114.5 40 114.5C38.49 114.5 37.184 115.417 36.563 116.75C36.148 116.585 35.697 116.5 35.227 116.5C33.117 116.5 31.409 118.29 31.409 120.5C31.409 120.994 31.492 121.464 31.646 121.9C30.374 122.55 29.499 123.918 29.499 125.5C29.499 126.995 30.281 128.298 31.441 128.986C31.421 129.156 31.409 129.326 31.409 129.5C31.409 131.71 33.117 133.5 35.227 133.5C35.697 133.5 36.147 133.414 36.562 133.25C37.182 134.584 38.488 135.5 39.999 135.5C41.511 135.5 42.817 134.584 43.436 133.25C43.851 133.413 44.301 133.498 44.772 133.498C46.882 133.498 48.59 131.708 48.59 129.498C48.59 129.324 48.578 129.154 48.557 128.985C49.715 128.298 50.5 126.995 50.5 125.501V125.5ZM43.884 122.166L39.55 128.666C39.405 128.883 39.168 129 38.925 129C38.782 129 38.637 128.96 38.509 128.874L38.394 128.78L35.979 126.365C35.686 126.072 35.686 125.597 35.979 125.305C36.272 125.013 36.747 125.011 37.039 125.305L38.809 127.072L42.634 121.332C42.864 120.987 43.33 120.896 43.674 121.125C44.02 121.355 44.114 121.821 43.884 122.165V122.166Z" fill="#D9D9D9"/>
<path d="M75.75 120.31H73.87C73.68 117.23 71.124 114.784 68 114.784C64.876 114.784 62.32 117.232 62.13 120.31H60.25C59.01 120.31 58 121.317 58 122.56V132.79C58 134.03 59.01 135.04 60.25 135.04H75.75C76.99 135.04 78 134.03 78 132.79V122.56C78 121.318 76.99 120.31 75.75 120.31ZM68.75 128.687V130.083C68.75 130.497 68.414 130.833 68 130.833C67.586 130.833 67.25 130.497 67.25 130.083V128.687C66.486 128.387 65.943 127.647 65.943 126.777C65.943 125.64 66.863 124.719 68 124.719C69.136 124.719 70.057 125.639 70.057 126.775C70.057 127.645 69.514 128.385 68.75 128.685V128.687ZM63.648 120.31C63.838 118.06 65.705 116.284 68 116.284C70.295 116.284 72.163 118.061 72.352 120.307H63.648V120.31Z" fill="#D9D9D9"/>
<defs>
<clipPath id="clip0_24_2028">
<rect width="24" height="24" fill="white" transform="translate(0 85)"/>
</clipPath>
</defs>
</svg>
