<svg width="251" height="514" viewBox="0 0 251 514" fill="none" xmlns="http://www.w3.org/2000/svg">
<path d="M36.643 17.937C35.808 18.307 34.911 18.557 33.968 18.67C34.93 18.094 35.668 17.18 36.016 16.092C35.116 16.626 34.119 17.014 33.058 17.222C32.208 16.318 30.998 15.752 29.658 15.752C27.086 15.752 25 17.838 25 20.412C25 20.776 25.042 21.13 25.12 21.472C21.247 21.277 17.816 19.422 15.518 16.604C15.118 17.294 14.888 18.094 14.888 18.946C14.888 20.562 15.711 21.989 16.96 22.824C16.196 22.799 15.478 22.59 14.85 22.241V22.301C14.85 24.558 16.455 26.441 18.587 26.869C18.195 26.975 17.784 27.031 17.36 27.031C17.06 27.031 16.767 27.003 16.483 26.949C17.076 28.799 18.796 30.147 20.835 30.183C19.24 31.433 17.231 32.178 15.049 32.178C14.673 32.178 14.302 32.156 13.937 32.113C15.999 33.436 18.447 34.206 21.077 34.206C29.647 34.206 34.332 27.108 34.332 20.952C34.332 20.752 34.327 20.55 34.318 20.35C35.228 19.692 36.018 18.873 36.641 17.94L36.643 17.937Z" fill="#D9D9D9"/>
<path d="M35.58 78.35L25.475 72.897C25.178 72.737 24.821 72.737 24.525 72.897L14.425 78.35C13.939 78.614 13.758 79.22 14.02 79.706C14.2 80.041 14.545 80.231 14.9 80.231C15.06 80.231 15.224 80.193 15.375 80.111L16.109 79.715L17.699 90.965C17.915 92.179 19.009 93.027 20.359 93.027H29.641C30.991 93.027 32.085 92.179 32.303 90.939L33.891 79.714L34.628 80.112C35.113 80.375 35.72 80.194 35.982 79.708C36.245 79.222 36.062 78.615 35.578 78.353L35.58 78.35ZM25 86.435C23.205 86.435 21.75 84.98 21.75 83.185C21.75 81.39 23.205 79.935 25 79.935C26.795 79.935 28.25 81.39 28.25 83.185C28.25 84.98 26.795 86.435 25 86.435Z" fill="#D9D9D9"/>
<path d="M69.7471 89V75.6128H66.9453V81.0493H60.915V75.6128H58.1133V89H60.915V83.3594H66.9453V89H69.7471ZM76.3062 89.2134C79.312 89.2134 81.2324 87.293 81.2324 84.0181C81.2324 80.7896 79.2842 78.8413 76.3062 78.8413C73.3281 78.8413 71.3799 80.7988 71.3799 84.0181C71.3799 87.2837 73.3003 89.2134 76.3062 89.2134ZM76.3062 87.1445C74.9702 87.1445 74.126 86.022 74.126 84.0273C74.126 82.0513 74.9888 80.9102 76.3062 80.9102C77.6235 80.9102 78.4771 82.0513 78.4771 84.0273C78.4771 86.022 77.6328 87.1445 76.3062 87.1445ZM82.6333 89H85.3423V82.9976C85.3423 81.8843 86.0381 81.105 87.0679 81.105C88.0698 81.105 88.6729 81.7358 88.6729 82.8027V89H91.2798V82.9604C91.2798 81.8564 91.957 81.105 92.9868 81.105C94.0352 81.105 94.6104 81.7358 94.6104 82.8862V89H97.3193V82.209C97.3193 80.2051 96.0112 78.8691 94.063 78.8691C92.6064 78.8691 91.4189 79.6577 90.9736 80.9102H90.918C90.584 79.6113 89.582 78.8691 88.144 78.8691C86.7896 78.8691 85.7227 79.6577 85.3052 80.8545H85.2495V79.0547H82.6333V89ZM103.498 80.8452C104.704 80.8452 105.53 81.7173 105.585 82.9883H101.364C101.457 81.7451 102.311 80.8452 103.498 80.8452ZM105.623 85.957C105.372 86.7178 104.611 87.2095 103.619 87.2095C102.236 87.2095 101.336 86.2354 101.336 84.8159V84.6489H108.192V83.8232C108.192 80.7988 106.365 78.8413 103.47 78.8413C100.529 78.8413 98.6738 80.9009 98.6738 84.0737C98.6738 87.2559 100.511 89.2134 103.572 89.2134C106.031 89.2134 107.812 87.9053 108.109 85.957H105.623Z" fill="#D9D9D9"/>
<path d="M34 136.337H30.07L30.442 132.065C30.478 131.653 30.172 131.29 29.76 131.253C29.343 131.223 28.984 131.523 28.948 131.936L28.565 136.336H22.245L22.615 132.066C22.652 131.653 22.345 131.29 21.935 131.253C21.515 131.223 21.158 131.523 21.122 131.936L20.74 136.336H16.782C16.368 136.336 16.032 136.673 16.032 137.086C16.032 137.499 16.368 137.836 16.782 137.836H20.61L20.06 144.163H16C15.586 144.163 15.25 144.499 15.25 144.913C15.25 145.327 15.586 145.663 16 145.663H19.93L19.558 149.935C19.522 150.347 19.828 150.71 20.24 150.747L20.306 150.75C20.691 150.75 21.018 150.455 21.052 150.064L21.435 145.664H27.755L27.385 149.934C27.349 150.347 27.655 150.71 28.067 150.747L28.133 150.75C28.518 150.75 28.845 150.455 28.879 150.064L29.261 145.664H33.218C33.631 145.664 33.968 145.327 33.968 144.914C33.968 144.501 33.631 144.164 33.218 144.164H29.39L29.94 137.837H34C34.414 137.837 34.75 137.501 34.75 137.087C34.75 136.673 34.414 136.337 34 136.337ZM27.885 144.163H21.565L22.115 137.837H28.435L27.885 144.163Z" fill="#D9D9D9"/>
<path d="M66.9824 144.681H60.915V141.304H66.6392V139.151H60.915V135.923H66.9824V133.613H58.1133V147H66.9824V144.681ZM72.8643 143.549L74.7568 147H77.6978L74.6177 141.972L77.7256 137.055H74.7754L73.0127 140.413H72.957L71.1665 137.055H68.1143L71.2129 142.046L68.0957 147H70.9438L72.8086 143.549H72.8643ZM84.6187 136.897C83.1807 136.897 82.0767 137.621 81.5386 138.79H81.4829V137.055H78.811V150.247H81.52V145.33H81.5757C82.1045 146.453 83.2178 147.158 84.665 147.158C87.1514 147.158 88.6914 145.228 88.6914 142.027C88.6914 138.817 87.1421 136.897 84.6187 136.897ZM83.7095 144.978C82.3828 144.978 81.5107 143.827 81.5107 142.027C81.5107 140.246 82.3828 139.068 83.7095 139.068C85.064 139.068 85.9175 140.228 85.9175 142.027C85.9175 143.836 85.064 144.978 83.7095 144.978ZM90.1572 147H92.8662V133.613H90.1572V147ZM99.2583 147.213C102.264 147.213 104.185 145.293 104.185 142.018C104.185 138.79 102.236 136.841 99.2583 136.841C96.2803 136.841 94.332 138.799 94.332 142.018C94.332 145.284 96.2524 147.213 99.2583 147.213ZM99.2583 145.145C97.9224 145.145 97.0781 144.022 97.0781 142.027C97.0781 140.051 97.9409 138.91 99.2583 138.91C100.576 138.91 101.429 140.051 101.429 142.027C101.429 144.022 100.585 145.145 99.2583 145.145ZM105.585 147H108.294V141.443C108.294 140.042 109.074 139.226 110.41 139.226C110.799 139.226 111.17 139.291 111.393 139.383V136.999C111.208 136.943 110.938 136.897 110.623 136.897C109.454 136.897 108.61 137.583 108.257 138.845H108.202V137.055H105.585V147ZM116.635 138.845C117.841 138.845 118.667 139.717 118.722 140.988H114.501C114.594 139.745 115.447 138.845 116.635 138.845ZM118.759 143.957C118.509 144.718 117.748 145.209 116.755 145.209C115.373 145.209 114.473 144.235 114.473 142.816V142.649H121.329V141.823C121.329 138.799 119.501 136.841 116.607 136.841C113.666 136.841 111.811 138.901 111.811 142.074C111.811 145.256 113.647 147.213 116.709 147.213C119.167 147.213 120.949 145.905 121.246 143.957H118.759Z" fill="#D9D9D9"/>
<path d="M34.697 203.468C34.677 203.452 32.557 201.828 32.594 197.438C32.614 194.906 31.782 192.656 30.247 191.103C28.872 189.71 27.01 188.94 25.005 188.93H24.992C22.988 188.94 21.126 189.71 19.75 191.104C18.216 192.657 17.382 194.906 17.404 197.438C17.441 201.768 15.384 203.405 15.302 203.468C15.042 203.661 14.936 203.998 15.037 204.306C15.139 204.614 15.427 204.821 15.749 204.821H20.669C20.771 207.131 22.666 208.981 24.999 208.981C27.332 208.981 29.225 207.131 29.326 204.821H34.248C34.57 204.821 34.858 204.615 34.958 204.307C35.061 204 34.955 203.662 34.695 203.469L34.697 203.468ZM25 207.478C23.495 207.478 22.27 206.301 22.172 204.82H27.828C27.728 206.3 26.505 207.48 25 207.48V207.478ZM17.38 203.32C18.12 202.188 18.928 200.292 18.904 197.424C18.886 195.264 19.548 193.442 20.817 192.157C21.91 191.05 23.397 190.437 25 190.43C26.603 190.438 28.087 191.05 29.18 192.158C30.45 193.443 31.113 195.264 31.095 197.425C31.071 200.293 31.88 202.19 32.62 203.321H17.38V203.32Z" fill="#D9D9D9"/>
<path d="M60.7944 205V196.233H60.8779L67.1401 205H69.4595V191.613H66.7783V200.333H66.7041L60.4512 191.613H58.1133V205H60.7944ZM76.0278 205.213C79.0337 205.213 80.9541 203.293 80.9541 200.018C80.9541 196.79 79.0059 194.841 76.0278 194.841C73.0498 194.841 71.1016 196.799 71.1016 200.018C71.1016 203.284 73.022 205.213 76.0278 205.213ZM76.0278 203.145C74.6919 203.145 73.8477 202.022 73.8477 200.027C73.8477 198.051 74.7104 196.91 76.0278 196.91C77.3452 196.91 78.1987 198.051 78.1987 200.027C78.1987 202.022 77.3545 203.145 76.0278 203.145ZM83.0786 192.763V195.055H81.6777V197.096H83.0786V202.319C83.0786 204.258 83.9878 205.037 86.3257 205.037C86.873 205.037 87.3369 204.991 87.6152 204.926V202.931C87.4482 202.959 87.1978 202.978 86.9565 202.978C86.1587 202.978 85.7876 202.616 85.7876 201.855V197.096H87.6245V195.055H85.7876V192.763H83.0786ZM89.1553 205H91.8643V195.055H89.1553V205ZM90.5098 193.96C91.3262 193.96 91.957 193.338 91.957 192.559C91.957 191.771 91.3262 191.158 90.5098 191.158C89.6934 191.158 89.0625 191.771 89.0625 192.559C89.0625 193.338 89.6934 193.96 90.5098 193.96ZM94.397 205H97.106V197.096H99.0171V195.101H97.041V194.442C97.041 193.737 97.4307 193.348 98.3213 193.348C98.5903 193.348 98.8594 193.366 99.0542 193.403V191.613C98.7388 191.548 98.1729 191.492 97.6719 191.492C95.3154 191.492 94.397 192.401 94.397 194.35V195.101H93.0425V197.096H94.397V205ZM100.492 205H103.201V195.055H100.492V205ZM101.847 193.96C102.663 193.96 103.294 193.338 103.294 192.559C103.294 191.771 102.663 191.158 101.847 191.158C101.03 191.158 100.399 191.771 100.399 192.559C100.399 193.338 101.03 193.96 101.847 193.96ZM114.046 198.756C113.926 196.502 112.219 194.841 109.528 194.841C106.55 194.841 104.648 196.827 104.648 200.018C104.648 203.265 106.55 205.213 109.547 205.213C112.163 205.213 113.917 203.701 114.056 201.354H111.532C111.365 202.439 110.66 203.089 109.575 203.089C108.229 203.089 107.395 201.976 107.395 200.018C107.395 198.098 108.229 196.966 109.565 196.966C110.679 196.966 111.375 197.708 111.532 198.756H114.046ZM119.205 203.2C118.286 203.2 117.674 202.736 117.674 201.994C117.674 201.289 118.249 200.834 119.26 200.76L121.357 200.63V201.354C121.357 202.43 120.383 203.2 119.205 203.2ZM118.314 205.158C119.557 205.158 120.791 204.536 121.348 203.479H121.403V205H124.02V198.163C124.02 196.159 122.359 194.841 119.808 194.841C117.173 194.841 115.531 196.168 115.429 198.098H117.906C118.036 197.365 118.676 196.864 119.687 196.864C120.708 196.864 121.357 197.402 121.357 198.33V198.988L118.852 199.137C116.375 199.285 114.983 200.333 114.983 202.143C114.983 203.933 116.421 205.158 118.314 205.158ZM126.497 192.763V195.055H125.096V197.096H126.497V202.319C126.497 204.258 127.406 205.037 129.744 205.037C130.291 205.037 130.755 204.991 131.033 204.926V202.931C130.866 202.959 130.616 202.978 130.375 202.978C129.577 202.978 129.206 202.616 129.206 201.855V197.096H131.042V195.055H129.206V192.763H126.497ZM132.573 205H135.282V195.055H132.573V205ZM133.928 193.96C134.744 193.96 135.375 193.338 135.375 192.559C135.375 191.771 134.744 191.158 133.928 191.158C133.111 191.158 132.48 191.771 132.48 192.559C132.48 193.338 133.111 193.96 133.928 193.96ZM141.656 205.213C144.662 205.213 146.582 203.293 146.582 200.018C146.582 196.79 144.634 194.841 141.656 194.841C138.678 194.841 136.729 196.799 136.729 200.018C136.729 203.284 138.65 205.213 141.656 205.213ZM141.656 203.145C140.32 203.145 139.476 202.022 139.476 200.027C139.476 198.051 140.338 196.91 141.656 196.91C142.973 196.91 143.827 198.051 143.827 200.027C143.827 202.022 142.982 203.145 141.656 203.145ZM147.983 205H150.692V199.294C150.692 198.005 151.462 197.114 152.677 197.114C153.893 197.114 154.505 197.856 154.505 199.155V205H157.214V198.589C157.214 196.261 155.971 194.869 153.763 194.869C152.232 194.869 151.184 195.593 150.655 196.827H150.599V195.055H147.983V205ZM158.763 197.977C158.763 199.443 159.728 200.426 161.611 200.853L163.448 201.261C164.339 201.475 164.673 201.753 164.673 202.254C164.673 202.903 164.051 203.312 163.021 203.312C161.945 203.312 161.287 202.829 161.157 201.994H158.513C158.661 203.933 160.294 205.213 162.947 205.213C165.573 205.213 167.373 203.924 167.373 201.966C167.373 200.482 166.565 199.693 164.571 199.248L162.669 198.84C161.797 198.636 161.37 198.302 161.37 197.81C161.37 197.17 161.982 196.743 162.919 196.743C163.921 196.743 164.562 197.235 164.617 198.033H167.113C167.076 196.103 165.452 194.841 162.957 194.841C160.405 194.841 158.763 196.084 158.763 197.977Z" fill="#D9D9D9"/>
<rect x="24.5" y="180.5" width="17" height="17" rx="8.5" fill="#1D9BF0"/>
<rect x="24.5" y="180.5" width="17" height="17" rx="8.5" stroke="black"/>
<path d="M32.4868 192H34.0928V184.25H32.4814L30.478 185.641V187.102L32.4546 185.737H32.4868V192Z" fill="white"/>
<path d="M32.25 248.018H17.75C16.233 248.018 15 249.252 15 250.77V263.265C15 264.783 16.233 266.018 17.75 266.018H32.25C33.767 266.018 35 264.783 35 263.265V250.77C35 249.252 33.767 248.018 32.25 248.018ZM17.75 249.518H32.25C32.94 249.518 33.5 250.078 33.5 250.768V251.482L25.45 256.849C25.177 257.029 24.824 257.031 24.55 256.847L16.5 251.482V250.768C16.5 250.078 17.06 249.518 17.75 249.518ZM32.25 264.516H17.75C17.06 264.516 16.5 263.956 16.5 263.266V253.24L23.74 258.07C24.123 258.326 24.562 258.454 25 258.454C25.44 258.454 25.877 258.326 26.26 258.071L33.5 253.241V263.263C33.5 263.953 32.94 264.513 32.25 264.513V264.516Z" fill="#D9D9D9"/>
<path d="M72.2891 263V249.613H69.042L65.2383 259.104H65.1641L61.3604 249.613H58.1133V263H60.6089V253.964H60.6831L64.3198 262.87H66.0825L69.7192 253.964H69.7935V263H72.2891ZM78.7461 254.845C79.9521 254.845 80.7778 255.717 80.8335 256.988H76.6123C76.7051 255.745 77.5586 254.845 78.7461 254.845ZM80.8706 259.957C80.6201 260.718 79.8594 261.209 78.8667 261.209C77.4844 261.209 76.5845 260.235 76.5845 258.816V258.649H83.4404V257.823C83.4404 254.799 81.6128 252.841 78.7183 252.841C75.7773 252.841 73.9219 254.901 73.9219 258.074C73.9219 261.256 75.7588 263.213 78.8203 263.213C81.2788 263.213 83.0601 261.905 83.3569 259.957H80.8706ZM84.6743 255.977C84.6743 257.443 85.6392 258.426 87.5225 258.853L89.3594 259.261C90.25 259.475 90.584 259.753 90.584 260.254C90.584 260.903 89.9624 261.312 88.9326 261.312C87.8564 261.312 87.1978 260.829 87.0679 259.994H84.4238C84.5723 261.933 86.2051 263.213 88.8584 263.213C91.4839 263.213 93.2837 261.924 93.2837 259.966C93.2837 258.482 92.4766 257.693 90.4819 257.248L88.5801 256.84C87.708 256.636 87.2812 256.302 87.2812 255.81C87.2812 255.17 87.8936 254.743 88.8306 254.743C89.8325 254.743 90.4727 255.235 90.5283 256.033H93.0239C92.9868 254.103 91.3633 252.841 88.8677 252.841C86.3164 252.841 84.6743 254.084 84.6743 255.977ZM94.4712 255.977C94.4712 257.443 95.436 258.426 97.3193 258.853L99.1562 259.261C100.047 259.475 100.381 259.753 100.381 260.254C100.381 260.903 99.7593 261.312 98.7295 261.312C97.6533 261.312 96.9946 260.829 96.8647 259.994H94.2207C94.3691 261.933 96.002 263.213 98.6553 263.213C101.281 263.213 103.081 261.924 103.081 259.966C103.081 258.482 102.273 257.693 100.279 257.248L98.377 256.84C97.5049 256.636 97.0781 256.302 97.0781 255.81C97.0781 255.17 97.6904 254.743 98.6274 254.743C99.6294 254.743 100.27 255.235 100.325 256.033H102.821C102.784 254.103 101.16 252.841 98.6646 252.841C96.1133 252.841 94.4712 254.084 94.4712 255.977ZM108.276 261.2C107.357 261.2 106.745 260.736 106.745 259.994C106.745 259.289 107.32 258.834 108.332 258.76L110.428 258.63V259.354C110.428 260.43 109.454 261.2 108.276 261.2ZM107.385 263.158C108.628 263.158 109.862 262.536 110.419 261.479H110.475V263H113.091V256.163C113.091 254.159 111.43 252.841 108.879 252.841C106.244 252.841 104.602 254.168 104.5 256.098H106.977C107.107 255.365 107.747 254.864 108.758 254.864C109.779 254.864 110.428 255.402 110.428 256.33V256.988L107.923 257.137C105.446 257.285 104.055 258.333 104.055 260.143C104.055 261.933 105.493 263.158 107.385 263.158ZM119.437 260.885C118.091 260.885 117.256 259.827 117.256 258.009C117.256 256.2 118.101 255.068 119.437 255.068C120.791 255.068 121.654 256.218 121.654 258.009C121.654 259.809 120.791 260.885 119.437 260.885ZM119.39 266.748C122.368 266.748 124.354 265.236 124.354 262.861V253.055H121.682V254.79H121.635C121.116 253.648 119.993 252.897 118.564 252.897C116.041 252.897 114.482 254.836 114.482 257.99C114.482 261.098 116.087 262.972 118.518 262.972C119.956 262.972 121.125 262.249 121.589 261.191H121.645V262.935C121.645 264.085 120.865 264.865 119.464 264.865C118.435 264.865 117.655 264.392 117.442 263.705H114.789C115.002 265.477 116.774 266.748 119.39 266.748ZM130.588 254.845C131.794 254.845 132.62 255.717 132.675 256.988H128.454C128.547 255.745 129.4 254.845 130.588 254.845ZM132.712 259.957C132.462 260.718 131.701 261.209 130.708 261.209C129.326 261.209 128.426 260.235 128.426 258.816V258.649H135.282V257.823C135.282 254.799 133.455 252.841 130.56 252.841C127.619 252.841 125.764 254.901 125.764 258.074C125.764 261.256 127.601 263.213 130.662 263.213C133.121 263.213 134.902 261.905 135.199 259.957H132.712ZM136.516 255.977C136.516 257.443 137.481 258.426 139.364 258.853L141.201 259.261C142.092 259.475 142.426 259.753 142.426 260.254C142.426 260.903 141.804 261.312 140.774 261.312C139.698 261.312 139.04 260.829 138.91 259.994H136.266C136.414 261.933 138.047 263.213 140.7 263.213C143.326 263.213 145.125 261.924 145.125 259.966C145.125 258.482 144.318 257.693 142.324 257.248L140.422 256.84C139.55 256.636 139.123 256.302 139.123 255.81C139.123 255.17 139.735 254.743 140.672 254.743C141.674 254.743 142.314 255.235 142.37 256.033H144.866C144.829 254.103 143.205 252.841 140.709 252.841C138.158 252.841 136.516 254.084 136.516 255.977Z" fill="#D9D9D9"/>
<path d="M32.9 326.5C32.743 326.5 32.588 326.45 32.458 326.356L25 320.928L17.542 326.358C17.314 326.522 17.012 326.548 16.76 326.418C16.51 326.291 16.35 326.033 16.35 325.751V308.6C16.35 307.36 17.36 306.35 18.6 306.35H31.398C32.638 306.35 33.648 307.36 33.648 308.6V325.75C33.648 326.032 33.49 326.29 33.238 326.418C33.132 326.473 33.015 326.5 32.898 326.5H32.9ZM25 319.25C25.155 319.25 25.31 319.298 25.44 319.394L32.15 324.277V308.6C32.15 308.188 31.813 307.85 31.4 307.85H18.6C18.187 307.85 17.85 308.188 17.85 308.6V324.277L24.56 319.394C24.69 319.298 24.845 319.25 25 319.25Z" fill="#D9D9D9"/>
<path d="M64.0415 321C66.8989 321 68.6709 319.525 68.6709 317.168C68.6709 315.396 67.335 314.07 65.5166 313.931V313.856C66.936 313.643 68.0308 312.418 68.0308 310.953C68.0308 308.902 66.4536 307.613 63.9395 307.613H58.1133V321H64.0415ZM60.915 309.7H63.2158C64.5239 309.7 65.2754 310.312 65.2754 311.389C65.2754 312.521 64.4219 313.179 62.9282 313.179H60.915V309.7ZM60.915 318.913V315.025H63.2622C64.9136 315.025 65.8135 315.693 65.8135 316.946C65.8135 318.226 64.9414 318.913 63.3271 318.913H60.915ZM74.5991 321.213C77.605 321.213 79.5254 319.293 79.5254 316.018C79.5254 312.79 77.5771 310.841 74.5991 310.841C71.6211 310.841 69.6729 312.799 69.6729 316.018C69.6729 319.284 71.5933 321.213 74.5991 321.213ZM74.5991 319.145C73.2632 319.145 72.4189 318.022 72.4189 316.027C72.4189 314.051 73.2817 312.91 74.5991 312.91C75.9165 312.91 76.77 314.051 76.77 316.027C76.77 318.022 75.9258 319.145 74.5991 319.145ZM85.4907 321.213C88.4966 321.213 90.417 319.293 90.417 316.018C90.417 312.79 88.4688 310.841 85.4907 310.841C82.5127 310.841 80.5645 312.799 80.5645 316.018C80.5645 319.284 82.4849 321.213 85.4907 321.213ZM85.4907 319.145C84.1548 319.145 83.3105 318.022 83.3105 316.027C83.3105 314.051 84.1733 312.91 85.4907 312.91C86.8081 312.91 87.6616 314.051 87.6616 316.027C87.6616 318.022 86.8174 319.145 85.4907 319.145ZM94.6289 315.044H94.5918V307.613H91.8828V321H94.5918V317.716L95.2969 316.955L98.145 321H101.262L97.2822 315.322L101.077 311.055H98.0059L94.6289 315.044ZM102.042 321H104.75V314.998C104.75 313.884 105.446 313.105 106.476 313.105C107.478 313.105 108.081 313.736 108.081 314.803V321H110.688V314.96C110.688 313.856 111.365 313.105 112.395 313.105C113.443 313.105 114.019 313.736 114.019 314.886V321H116.728V314.209C116.728 312.205 115.419 310.869 113.471 310.869C112.015 310.869 110.827 311.658 110.382 312.91H110.326C109.992 311.611 108.99 310.869 107.552 310.869C106.198 310.869 105.131 311.658 104.713 312.854H104.658V311.055H102.042V321ZM122.285 319.2C121.366 319.2 120.754 318.736 120.754 317.994C120.754 317.289 121.329 316.834 122.34 316.76L124.437 316.63V317.354C124.437 318.43 123.463 319.2 122.285 319.2ZM121.394 321.158C122.637 321.158 123.871 320.536 124.428 319.479H124.483V321H127.1V314.163C127.1 312.159 125.439 310.841 122.888 310.841C120.253 310.841 118.611 312.168 118.509 314.098H120.986C121.116 313.365 121.756 312.864 122.767 312.864C123.788 312.864 124.437 313.402 124.437 314.33V314.988L121.932 315.137C119.455 315.285 118.063 316.333 118.063 318.143C118.063 319.933 119.501 321.158 121.394 321.158ZM128.853 321H131.562V315.443C131.562 314.042 132.341 313.226 133.677 313.226C134.067 313.226 134.438 313.291 134.661 313.383V310.999C134.475 310.943 134.206 310.897 133.891 310.897C132.722 310.897 131.877 311.583 131.525 312.845H131.469V311.055H128.853V321ZM138.585 315.044H138.548V307.613H135.839V321H138.548V317.716L139.253 316.955L142.101 321H145.218L141.238 315.322L145.033 311.055H141.962L138.585 315.044ZM145.645 313.977C145.645 315.443 146.61 316.426 148.493 316.853L150.33 317.261C151.221 317.475 151.555 317.753 151.555 318.254C151.555 318.903 150.933 319.312 149.903 319.312C148.827 319.312 148.168 318.829 148.039 317.994H145.395C145.543 319.933 147.176 321.213 149.829 321.213C152.455 321.213 154.254 319.924 154.254 317.966C154.254 316.482 153.447 315.693 151.453 315.248L149.551 314.84C148.679 314.636 148.252 314.302 148.252 313.81C148.252 313.17 148.864 312.743 149.801 312.743C150.803 312.743 151.443 313.235 151.499 314.033H153.995C153.958 312.103 152.334 310.841 149.838 310.841C147.287 310.841 145.645 312.084 145.645 313.977Z" fill="#D9D9D9"/>
<path d="M32.75 383H17.25C16.01 383 15 381.99 15 380.75V365.25C15 364.01 16.01 363 17.25 363H32.75C33.99 363 35 364.01 35 365.25V380.75C35 381.99 33.99 383 32.75 383ZM17.25 364.5C16.836 364.5 16.5 364.837 16.5 365.25V380.75C16.5 381.163 16.836 381.5 17.25 381.5H32.75C33.164 381.5 33.5 381.163 33.5 380.75V365.25C33.5 364.837 33.164 364.5 32.75 364.5H17.25Z" fill="#D9D9D9"/>
<path d="M30 369.64H20C19.586 369.64 19.25 369.303 19.25 368.89C19.25 368.477 19.586 368.14 20 368.14H30C30.414 368.14 30.75 368.475 30.75 368.89C30.75 369.305 30.414 369.64 30 369.64ZM30 373.75H20C19.586 373.75 19.25 373.414 19.25 373C19.25 372.586 19.586 372.25 20 372.25H30C30.414 372.25 30.75 372.586 30.75 373C30.75 373.414 30.414 373.75 30 373.75ZM25 377.86H20C19.586 377.86 19.25 377.525 19.25 377.11C19.25 376.695 19.586 376.36 20 376.36H25C25.414 376.36 25.75 376.697 25.75 377.11C25.75 377.523 25.414 377.86 25 377.86Z" fill="#D9D9D9"/>
<path d="M66.769 376.681H60.915V365.613H58.1133V379H66.769V376.681ZM68.2441 379H70.9531V369.055H68.2441V379ZM69.5986 367.96C70.415 367.96 71.0459 367.338 71.0459 366.559C71.0459 365.771 70.415 365.158 69.5986 365.158C68.7822 365.158 68.1514 365.771 68.1514 366.559C68.1514 367.338 68.7822 367.96 69.5986 367.96ZM72.5952 371.977C72.5952 373.443 73.5601 374.426 75.4434 374.853L77.2803 375.261C78.1709 375.475 78.5049 375.753 78.5049 376.254C78.5049 376.903 77.8833 377.312 76.8535 377.312C75.7773 377.312 75.1187 376.829 74.9888 375.994H72.3447C72.4932 377.933 74.126 379.213 76.7793 379.213C79.4048 379.213 81.2046 377.924 81.2046 375.966C81.2046 374.482 80.3975 373.693 78.4028 373.248L76.501 372.84C75.6289 372.636 75.2021 372.302 75.2021 371.81C75.2021 371.17 75.8145 370.743 76.7515 370.743C77.7534 370.743 78.3936 371.235 78.4492 372.033H80.9448C80.9077 370.103 79.2842 368.841 76.7886 368.841C74.2373 368.841 72.5952 370.084 72.5952 371.977ZM83.2827 366.763V369.055H81.8818V371.096H83.2827V376.319C83.2827 378.258 84.1919 379.037 86.5298 379.037C87.0771 379.037 87.541 378.991 87.8193 378.926V376.931C87.6523 376.959 87.4019 376.978 87.1606 376.978C86.3628 376.978 85.9917 376.616 85.9917 375.855V371.096H87.8286V369.055H85.9917V366.763H83.2827ZM89.146 371.977C89.146 373.443 90.1108 374.426 91.9941 374.853L93.8311 375.261C94.7217 375.475 95.0557 375.753 95.0557 376.254C95.0557 376.903 94.4341 377.312 93.4043 377.312C92.3281 377.312 91.6694 376.829 91.5396 375.994H88.8955C89.0439 377.933 90.6768 379.213 93.3301 379.213C95.9556 379.213 97.7554 377.924 97.7554 375.966C97.7554 374.482 96.9482 373.693 94.9536 373.248L93.0518 372.84C92.1797 372.636 91.7529 372.302 91.7529 371.81C91.7529 371.17 92.3652 370.743 93.3022 370.743C94.3042 370.743 94.9443 371.235 95 372.033H97.4956C97.4585 370.103 95.835 368.841 93.3394 368.841C90.7881 368.841 89.146 370.084 89.146 371.977Z" fill="#D9D9D9"/>
<path d="M25 430.816C26.355 430.816 27.872 430.666 28.84 429.56C29.654 428.63 29.918 427.192 29.646 425.168C29.266 422.343 27.529 420.656 25 420.656C22.471 420.656 20.734 422.343 20.354 425.17C20.082 427.192 20.346 428.63 21.16 429.56C22.128 430.667 23.645 430.816 25 430.816ZM21.84 425.368C22.002 424.168 22.627 422.156 25 422.156C27.373 422.156 27.998 424.169 28.16 425.368C28.367 426.918 28.217 427.995 27.71 428.573C27.255 429.093 26.444 429.316 25 429.316C23.556 429.316 22.745 429.093 22.29 428.573C21.783 427.995 21.633 426.917 21.84 425.368ZM33.28 438.236C32.403 434.71 28.998 432.246 25 432.246C21.002 432.246 17.597 434.71 16.72 438.236C16.548 438.928 16.692 439.636 17.115 440.176C17.523 440.696 18.155 440.996 18.848 440.996H31.152C31.845 440.996 32.477 440.696 32.885 440.176C33.309 439.636 33.452 438.929 33.279 438.236H33.28ZM31.704 439.252C31.578 439.412 31.388 439.498 31.152 439.498H18.848C18.613 439.498 18.422 439.413 18.296 439.252C18.159 439.078 18.116 438.84 18.176 438.598C18.886 435.743 21.693 433.748 25 433.748C28.307 433.748 31.114 435.742 31.824 438.598C31.884 438.84 31.841 439.078 31.704 439.252Z" fill="#D9D9D9"/>
<path d="M58.1133 423.613V437H60.915V432.779H63.4199C66.2402 432.779 68.1978 430.942 68.1978 428.196C68.1978 425.44 66.3052 423.613 63.5591 423.613H58.1133ZM60.915 425.83H62.8169C64.4219 425.83 65.3496 426.684 65.3496 428.205C65.3496 429.736 64.4126 430.589 62.8076 430.589H60.915V425.83ZM69.6265 437H72.3354V431.443C72.3354 430.042 73.1147 429.226 74.4507 429.226C74.8403 429.226 75.2114 429.291 75.4341 429.383V426.999C75.2485 426.943 74.9795 426.897 74.6641 426.897C73.4951 426.897 72.6509 427.583 72.2983 428.845H72.2427V427.055H69.6265V437ZM80.7778 437.213C83.7837 437.213 85.7041 435.293 85.7041 432.018C85.7041 428.79 83.7559 426.841 80.7778 426.841C77.7998 426.841 75.8516 428.799 75.8516 432.018C75.8516 435.284 77.772 437.213 80.7778 437.213ZM80.7778 435.145C79.4419 435.145 78.5977 434.022 78.5977 432.027C78.5977 430.051 79.4604 428.91 80.7778 428.91C82.0952 428.91 82.9487 430.051 82.9487 432.027C82.9487 434.022 82.1045 435.145 80.7778 435.145ZM87.8286 437H90.5376V429.096H92.4487V427.101H90.4727V426.442C90.4727 425.737 90.8623 425.348 91.7529 425.348C92.022 425.348 92.291 425.366 92.4858 425.403V423.613C92.1704 423.548 91.6045 423.492 91.1035 423.492C88.7471 423.492 87.8286 424.401 87.8286 426.35V427.101H86.4741V429.096H87.8286V437ZM93.9238 437H96.6328V427.055H93.9238V437ZM95.2783 425.96C96.0947 425.96 96.7256 425.338 96.7256 424.559C96.7256 423.771 96.0947 423.158 95.2783 423.158C94.4619 423.158 93.8311 423.771 93.8311 424.559C93.8311 425.338 94.4619 425.96 95.2783 425.96ZM98.5068 437H101.216V423.613H98.5068V437ZM107.506 428.845C108.712 428.845 109.538 429.717 109.593 430.988H105.372C105.465 429.745 106.318 428.845 107.506 428.845ZM109.63 433.957C109.38 434.718 108.619 435.209 107.626 435.209C106.244 435.209 105.344 434.235 105.344 432.816V432.649H112.2V431.823C112.2 428.799 110.373 426.841 107.478 426.841C104.537 426.841 102.682 428.901 102.682 432.074C102.682 435.256 104.519 437.213 107.58 437.213C110.039 437.213 111.82 435.905 112.117 433.957H109.63Z" fill="#D9D9D9"/>
<path d="M30 490.5C30.8284 490.5 31.5 489.828 31.5 489C31.5 488.172 30.8284 487.5 30 487.5C29.1716 487.5 28.5 488.172 28.5 489C28.5 489.828 29.1716 490.5 30 490.5Z" fill="#D9D9D9"/>
<path d="M25 490.5C25.8284 490.5 26.5 489.828 26.5 489C26.5 488.172 25.8284 487.5 25 487.5C24.1716 487.5 23.5 488.172 23.5 489C23.5 489.828 24.1716 490.5 25 490.5Z" fill="#D9D9D9"/>
<path d="M20 490.5C20.8284 490.5 21.5 489.828 21.5 489C21.5 488.172 20.8284 487.5 20 487.5C19.1716 487.5 18.5 488.172 18.5 489C18.5 489.828 19.1716 490.5 20 490.5Z" fill="#D9D9D9"/>
<path d="M25 499.75C19.072 499.75 14.25 494.928 14.25 489C14.25 483.072 19.072 478.25 25 478.25C30.928 478.25 35.75 483.072 35.75 489C35.75 494.928 30.928 499.75 25 499.75ZM25 479.75C19.9 479.75 15.75 483.9 15.75 489C15.75 494.1 19.9 498.25 25 498.25C30.1 498.25 34.25 494.1 34.25 489C34.25 483.9 30.1 479.75 25 479.75Z" fill="#D9D9D9"/>
<path d="M72.2891 495V481.613H69.042L65.2383 491.104H65.1641L61.3604 481.613H58.1133V495H60.6089V485.964H60.6831L64.3198 494.87H66.0825L69.7192 485.964H69.7935V495H72.2891ZM78.8481 495.213C81.854 495.213 83.7744 493.293 83.7744 490.018C83.7744 486.79 81.8262 484.841 78.8481 484.841C75.8701 484.841 73.9219 486.799 73.9219 490.018C73.9219 493.284 75.8423 495.213 78.8481 495.213ZM78.8481 493.145C77.5122 493.145 76.668 492.022 76.668 490.027C76.668 488.051 77.5308 486.91 78.8481 486.91C80.1655 486.91 81.019 488.051 81.019 490.027C81.019 492.022 80.1748 493.145 78.8481 493.145ZM85.1753 495H87.8843V489.443C87.8843 488.042 88.6636 487.226 89.9995 487.226C90.3892 487.226 90.7603 487.291 90.9829 487.383V484.999C90.7974 484.943 90.5283 484.897 90.2129 484.897C89.0439 484.897 88.1997 485.583 87.8472 486.845H87.7915V485.055H85.1753V495ZM96.2246 486.845C97.4307 486.845 98.2563 487.717 98.312 488.988H94.0908C94.1836 487.745 95.0371 486.845 96.2246 486.845ZM98.3491 491.957C98.0986 492.718 97.3379 493.209 96.3452 493.209C94.9629 493.209 94.063 492.235 94.063 490.816V490.649H100.919V489.823C100.919 486.799 99.0913 484.841 96.1968 484.841C93.2559 484.841 91.4004 486.901 91.4004 490.074C91.4004 493.256 93.2373 495.213 96.2988 495.213C98.7573 495.213 100.539 493.905 100.835 491.957H98.3491Z" fill="#D9D9D9"/>
</svg>
