<svg width="300" height="53" viewBox="0 0 300 53" fill="none" xmlns="http://www.w3.org/2000/svg">
<rect width="300" height="53" fill="black"/>
<rect y="52" width="300" height="1" fill="#2F3336"/>
<path d="M29.418 33V18.9082H26.4688V24.6309H20.1211V18.9082H17.1719V33H20.1211V27.0625H26.4688V33H29.418ZM36.3223 33.2246C39.4863 33.2246 41.5078 31.2031 41.5078 27.7559C41.5078 24.3574 39.457 22.3066 36.3223 22.3066C33.1875 22.3066 31.1367 24.3672 31.1367 27.7559C31.1367 31.1934 33.1582 33.2246 36.3223 33.2246ZM36.3223 31.0469C34.916 31.0469 34.0273 29.8652 34.0273 27.7656C34.0273 25.6855 34.9355 24.4844 36.3223 24.4844C37.709 24.4844 38.6074 25.6855 38.6074 27.7656C38.6074 29.8652 37.7188 31.0469 36.3223 31.0469ZM42.9824 33H45.834V26.6816C45.834 25.5098 46.5664 24.6895 47.6504 24.6895C48.7051 24.6895 49.3398 25.3535 49.3398 26.4766V33H52.084V26.6426C52.084 25.4805 52.7969 24.6895 53.8809 24.6895C54.9844 24.6895 55.5898 25.3535 55.5898 26.5645V33H58.4414V25.8516C58.4414 23.7422 57.0645 22.3359 55.0137 22.3359C53.4805 22.3359 52.2305 23.166 51.7617 24.4844H51.7031C51.3516 23.1172 50.2969 22.3359 48.7832 22.3359C47.3574 22.3359 46.2344 23.166 45.7949 24.4258H45.7363V22.5312H42.9824V33ZM64.9453 24.416C66.2148 24.416 67.084 25.334 67.1426 26.6719H62.6992C62.7969 25.3633 63.6953 24.416 64.9453 24.416ZM67.1816 29.7969C66.918 30.5977 66.1172 31.1152 65.0723 31.1152C63.6172 31.1152 62.6699 30.0898 62.6699 28.5957V28.4199H69.8867V27.5508C69.8867 24.3672 67.9629 22.3066 64.916 22.3066C61.8203 22.3066 59.8672 24.4746 59.8672 27.8145C59.8672 31.1641 61.8008 33.2246 65.0234 33.2246C67.6113 33.2246 69.4863 31.8477 69.7988 29.7969H67.1816Z" fill="white"/>
<rect x="250" y="9" width="34" height="34" rx="17" fill="black"/>
<path d="M275.977 24.755L271.295 22.9283L269.495 17.5117C269.41 17.2558 269.17 17.0833 268.902 17.0833C268.633 17.0833 268.393 17.2558 268.308 17.5108L266.508 22.9275L261.825 24.7542C261.586 24.8475 261.428 25.0792 261.428 25.3375C261.428 25.5958 261.586 25.825 261.826 25.9192L266.509 27.7458L268.309 33.1625C268.394 33.4175 268.634 33.59 268.903 33.59C269.171 33.59 269.411 33.4175 269.496 33.1625L271.296 27.7458L275.979 25.9192C276.218 25.8258 276.377 25.5942 276.377 25.3358C276.377 25.0775 276.218 24.8483 275.978 24.755H275.977ZM270.568 26.6883C270.395 26.755 270.26 26.8967 270.202 27.0717L268.902 30.9842L267.602 27.0733C267.543 26.8983 267.41 26.7567 267.237 26.6883L263.774 25.3383L267.236 23.9867C267.409 23.92 267.544 23.7783 267.602 23.6017L268.903 19.6908L270.203 23.6025C270.261 23.7792 270.394 23.9208 270.568 23.9883L274.03 25.3383L270.568 26.69L270.568 26.6883ZM262.552 19.1767H260.986V17.7083C260.986 17.3633 260.705 17.0833 260.361 17.0833C260.017 17.0833 259.736 17.3633 259.736 17.7083V19.1767H258.25C257.905 19.1767 257.625 19.4567 257.625 19.8017C257.625 20.1467 257.905 20.4267 258.25 20.4267H259.735V21.895C259.735 22.24 260.015 22.52 260.36 22.52C260.705 22.52 260.985 22.24 260.985 21.895V20.4267H262.552C262.898 20.4267 263.177 20.1467 263.177 19.8017C263.177 19.4567 262.898 19.1767 262.552 19.1767H262.552ZM264.665 32.195H263.748V31.3483C263.748 31.0033 263.469 30.7233 263.123 30.7233C262.778 30.7233 262.498 31.0033 262.498 31.3483V32.195H261.642C261.297 32.195 261.017 32.475 261.017 32.82C261.017 33.165 261.297 33.445 261.642 33.445H262.5V34.2917C262.5 34.6367 262.779 34.9167 263.125 34.9167C263.471 34.9167 263.75 34.6367 263.75 34.2917V33.445H264.665C265.01 33.445 265.29 33.165 265.29 32.82C265.29 32.475 265.01 32.195 264.665 32.195Z" fill="#D9D9D9"/>
</svg>
