<svg width="350" height="42" viewBox="0 0 350 42" fill="none" xmlns="http://www.w3.org/2000/svg">
<rect width="350" height="42" rx="21" fill="#202327"/>
<rect width="42" height="42" rx="21" fill="#202327"/>
<path d="M28.1475 27.3525L25.4025 24.6075C26.3963 23.43 27 21.9105 27 20.25C27 16.5225 23.9775 13.5 20.25 13.5C16.5225 13.5 13.5 16.5225 13.5 20.25C13.5 23.9775 16.5225 27 20.25 27C21.9113 27 23.43 26.397 24.606 25.4025L27.351 28.1475C27.4613 28.257 27.606 28.3125 27.7485 28.3125C27.891 28.3125 28.0373 28.2578 28.146 28.1475C28.3673 27.9278 28.3673 27.5722 28.1475 27.3525ZM14.625 20.25C14.625 17.1487 17.1488 14.625 20.25 14.625C23.3513 14.625 25.875 17.1487 25.875 20.25C25.875 23.3512 23.3513 25.875 20.25 25.875C17.1488 25.875 14.625 23.3512 14.625 20.25Z" fill="#6E767D"/>
<path d="M54.8423 23.2388C54.9814 25.0625 56.5269 26.249 58.7681 26.249C61.1851 26.249 62.7158 25.0112 62.7158 23.0703C62.7158 21.5176 61.8369 20.668 59.647 20.1187L58.541 19.8257C57.0835 19.4521 56.5049 18.9761 56.5049 18.1484C56.5049 17.0791 57.4351 16.376 58.8413 16.376C60.1597 16.376 61.0532 17.0205 61.2363 18.1045H62.562C62.4521 16.3979 60.9287 15.1821 58.8853 15.1821C56.6514 15.1821 55.1499 16.3979 55.1499 18.1924C55.1499 19.6938 55.9775 20.5581 57.8892 21.0415L59.2441 21.3931C60.7017 21.7593 61.3608 22.3306 61.3608 23.2314C61.3608 24.2788 60.3135 25.0479 58.8926 25.0479C57.3911 25.0479 56.3364 24.3447 56.1753 23.2388H54.8423ZM67.9014 19.0786C69.1538 19.0786 69.9888 20.0015 70.0181 21.4004H65.6675C65.7627 20.0015 66.6416 19.0786 67.9014 19.0786ZM69.9814 23.9565C69.6519 24.6523 68.9634 25.0259 67.9453 25.0259C66.605 25.0259 65.7334 24.0371 65.6675 22.4771V22.4185H71.3438V21.9351C71.3438 19.4814 70.0474 17.9653 67.916 17.9653C65.748 17.9653 64.3564 19.5767 64.3564 22.0596C64.3564 24.5571 65.7261 26.1392 67.916 26.1392C69.6445 26.1392 70.8604 25.3115 71.2412 23.9565H69.9814ZM73.3213 26H74.5811V21.1074C74.5811 19.9941 75.4526 19.1885 76.6538 19.1885C76.9028 19.1885 77.3569 19.2324 77.4595 19.2617V18.002C77.2983 17.98 77.0347 17.9653 76.8296 17.9653C75.7822 17.9653 74.874 18.5073 74.6396 19.2764H74.5225V18.1045H73.3213V26ZM81.4658 25.0332C80.5503 25.0332 79.8691 24.5645 79.8691 23.7588C79.8691 22.9678 80.3965 22.5503 81.5977 22.4697L83.7217 22.3306V23.0557C83.7217 24.1836 82.7622 25.0332 81.4658 25.0332ZM81.2314 26.1392C82.2861 26.1392 83.1504 25.6777 83.6631 24.8354H83.7803V26H84.9814V20.5947C84.9814 18.9541 83.9048 17.9653 81.9785 17.9653C80.2939 17.9653 79.0488 18.8003 78.8804 20.0674H80.1548C80.3306 19.4448 80.9897 19.0859 81.9346 19.0859C83.1138 19.0859 83.7217 19.6206 83.7217 20.5947V21.3125L81.4438 21.4517C79.6055 21.5615 78.5654 22.3745 78.5654 23.7881C78.5654 25.231 79.7007 26.1392 81.2314 26.1392ZM93.8438 20.5215C93.624 19.1152 92.4521 17.9653 90.5332 17.9653C88.3213 17.9653 86.915 19.562 86.915 22.0229C86.915 24.5352 88.3286 26.1392 90.5405 26.1392C92.4375 26.1392 93.6167 25.0698 93.8438 23.6196H92.5693C92.335 24.5132 91.5952 25.0039 90.5332 25.0039C89.127 25.0039 88.2188 23.8467 88.2188 22.0229C88.2188 20.2358 89.1123 19.1006 90.5332 19.1006C91.6685 19.1006 92.3643 19.7378 92.5693 20.5215H93.8438ZM95.7773 26H97.0371V21.3271C97.0371 19.9941 97.8135 19.1006 99.2271 19.1006C100.421 19.1006 101.051 19.7964 101.051 21.1953V26H102.311V20.8877C102.311 19.0347 101.256 17.9653 99.5859 17.9653C98.3774 17.9653 97.5498 18.478 97.1543 19.3496H97.0371V14.9697H95.7773V26ZM113.07 26V16.6177H116.476V15.4312H108.346V16.6177H111.751V26H113.07ZM127.33 18.1045H126.063L124.51 24.418H124.393L122.628 18.1045H121.419L119.654 24.418H119.537L117.984 18.1045H116.71L118.922 26H120.196L121.954 19.8916H122.071L123.836 26H125.118L127.33 18.1045ZM129.044 26H130.304V18.1045H129.044V26ZM129.674 16.5005C130.157 16.5005 130.553 16.105 130.553 15.6216C130.553 15.1382 130.157 14.7427 129.674 14.7427C129.19 14.7427 128.795 15.1382 128.795 15.6216C128.795 16.105 129.19 16.5005 129.674 16.5005ZM133.233 16.061V18.1045H131.959V19.1592H133.233V23.9492C133.233 25.458 133.885 26.0586 135.511 26.0586C135.76 26.0586 136.002 26.0293 136.251 25.9854V24.9233C136.017 24.9453 135.892 24.9526 135.665 24.9526C134.845 24.9526 134.493 24.5571 134.493 23.627V19.1592H136.251V18.1045H134.493V16.061H133.233ZM138.683 16.061V18.1045H137.408V19.1592H138.683V23.9492C138.683 25.458 139.334 26.0586 140.96 26.0586C141.209 26.0586 141.451 26.0293 141.7 25.9854V24.9233C141.466 24.9453 141.341 24.9526 141.114 24.9526C140.294 24.9526 139.942 24.5571 139.942 23.627V19.1592H141.7V18.1045H139.942V16.061H138.683ZM146.637 19.0786C147.889 19.0786 148.724 20.0015 148.753 21.4004H144.403C144.498 20.0015 145.377 19.0786 146.637 19.0786ZM148.717 23.9565C148.387 24.6523 147.699 25.0259 146.681 25.0259C145.34 25.0259 144.469 24.0371 144.403 22.4771V22.4185H150.079V21.9351C150.079 19.4814 148.783 17.9653 146.651 17.9653C144.483 17.9653 143.092 19.5767 143.092 22.0596C143.092 24.5571 144.461 26.1392 146.651 26.1392C148.38 26.1392 149.596 25.3115 149.977 23.9565H148.717ZM152.057 26H153.316V21.1074C153.316 19.9941 154.188 19.1885 155.389 19.1885C155.638 19.1885 156.092 19.2324 156.195 19.2617V18.002C156.034 17.98 155.77 17.9653 155.565 17.9653C154.518 17.9653 153.609 18.5073 153.375 19.2764H153.258V18.1045H152.057V26Z" fill="#6E767D"/>
</svg>
