<svg width="127" height="42" viewBox="0 0 127 42" fill="none" xmlns="http://www.w3.org/2000/svg">
<path d="M12.8423 23.2388C12.9814 25.0625 14.5269 26.249 16.7681 26.249C19.1851 26.249 20.7158 25.0112 20.7158 23.0703C20.7158 21.5176 19.8369 20.668 17.647 20.1187L16.541 19.8257C15.0835 19.4521 14.5049 18.9761 14.5049 18.1484C14.5049 17.0791 15.4351 16.376 16.8413 16.376C18.1597 16.376 19.0532 17.0205 19.2363 18.1045H20.562C20.4521 16.3979 18.9287 15.1821 16.8853 15.1821C14.6514 15.1821 13.1499 16.3979 13.1499 18.1924C13.1499 19.6938 13.9775 20.5581 15.8892 21.0415L17.2441 21.3931C18.7017 21.7593 19.3608 22.3306 19.3608 23.2314C19.3608 24.2788 18.3135 25.0479 16.8926 25.0479C15.3911 25.0479 14.3364 24.3447 14.1753 23.2388H12.8423ZM25.9014 19.0786C27.1538 19.0786 27.9888 20.0015 28.0181 21.4004H23.6675C23.7627 20.0015 24.6416 19.0786 25.9014 19.0786ZM27.9814 23.9565C27.6519 24.6523 26.9634 25.0259 25.9453 25.0259C24.605 25.0259 23.7334 24.0371 23.6675 22.4771V22.4185H29.3438V21.9351C29.3438 19.4814 28.0474 17.9653 25.916 17.9653C23.748 17.9653 22.3564 19.5767 22.3564 22.0596C22.3564 24.5571 23.7261 26.1392 25.916 26.1392C27.6445 26.1392 28.8604 25.3115 29.2412 23.9565H27.9814ZM31.3213 26H32.5811V21.1074C32.5811 19.9941 33.4526 19.1885 34.6538 19.1885C34.9028 19.1885 35.3569 19.2324 35.4595 19.2617V18.002C35.2983 17.98 35.0347 17.9653 34.8296 17.9653C33.7822 17.9653 32.874 18.5073 32.6396 19.2764H32.5225V18.1045H31.3213V26ZM39.4658 25.0332C38.5503 25.0332 37.8691 24.5645 37.8691 23.7588C37.8691 22.9678 38.3965 22.5503 39.5977 22.4697L41.7217 22.3306V23.0557C41.7217 24.1836 40.7622 25.0332 39.4658 25.0332ZM39.2314 26.1392C40.2861 26.1392 41.1504 25.6777 41.6631 24.8354H41.7803V26H42.9814V20.5947C42.9814 18.9541 41.9048 17.9653 39.9785 17.9653C38.2939 17.9653 37.0488 18.8003 36.8804 20.0674H38.1548C38.3306 19.4448 38.9897 19.0859 39.9346 19.0859C41.1138 19.0859 41.7217 19.6206 41.7217 20.5947V21.3125L39.4438 21.4517C37.6055 21.5615 36.5654 22.3745 36.5654 23.7881C36.5654 25.231 37.7007 26.1392 39.2314 26.1392ZM51.8438 20.5215C51.624 19.1152 50.4521 17.9653 48.5332 17.9653C46.3213 17.9653 44.915 19.562 44.915 22.0229C44.915 24.5352 46.3286 26.1392 48.5405 26.1392C50.4375 26.1392 51.6167 25.0698 51.8438 23.6196H50.5693C50.335 24.5132 49.5952 25.0039 48.5332 25.0039C47.127 25.0039 46.2188 23.8467 46.2188 22.0229C46.2188 20.2358 47.1123 19.1006 48.5332 19.1006C49.6685 19.1006 50.3643 19.7378 50.5693 20.5215H51.8438ZM53.7773 26H55.0371V21.3271C55.0371 19.9941 55.8135 19.1006 57.2271 19.1006C58.4209 19.1006 59.0508 19.7964 59.0508 21.1953V26H60.3105V20.8877C60.3105 19.0347 59.2559 17.9653 57.5859 17.9653C56.3774 17.9653 55.5498 18.478 55.1543 19.3496H55.0371V14.9697H53.7773V26ZM71.0698 26V16.6177H74.4756V15.4312H66.3457V16.6177H69.7515V26H71.0698ZM85.3301 18.1045H84.063L82.5103 24.418H82.3931L80.6279 18.1045H79.4194L77.6543 24.418H77.5371L75.9844 18.1045H74.71L76.9219 26H78.1963L79.9541 19.8916H80.0713L81.8364 26H83.1182L85.3301 18.1045ZM87.0439 26H88.3037V18.1045H87.0439V26ZM87.6738 16.5005C88.1572 16.5005 88.5527 16.105 88.5527 15.6216C88.5527 15.1382 88.1572 14.7427 87.6738 14.7427C87.1904 14.7427 86.7949 15.1382 86.7949 15.6216C86.7949 16.105 87.1904 16.5005 87.6738 16.5005ZM91.2334 16.061V18.1045H89.959V19.1592H91.2334V23.9492C91.2334 25.458 91.8853 26.0586 93.5112 26.0586C93.7603 26.0586 94.002 26.0293 94.251 25.9854V24.9233C94.0166 24.9453 93.8921 24.9526 93.665 24.9526C92.8447 24.9526 92.4932 24.5571 92.4932 23.627V19.1592H94.251V18.1045H92.4932V16.061H91.2334ZM96.6826 16.061V18.1045H95.4082V19.1592H96.6826V23.9492C96.6826 25.458 97.3345 26.0586 98.9604 26.0586C99.2095 26.0586 99.4512 26.0293 99.7002 25.9854V24.9233C99.4658 24.9453 99.3413 24.9526 99.1143 24.9526C98.2939 24.9526 97.9424 24.5571 97.9424 23.627V19.1592H99.7002V18.1045H97.9424V16.061H96.6826ZM104.637 19.0786C105.889 19.0786 106.724 20.0015 106.753 21.4004H102.403C102.498 20.0015 103.377 19.0786 104.637 19.0786ZM106.717 23.9565C106.387 24.6523 105.699 25.0259 104.681 25.0259C103.34 25.0259 102.469 24.0371 102.403 22.4771V22.4185H108.079V21.9351C108.079 19.4814 106.783 17.9653 104.651 17.9653C102.483 17.9653 101.092 19.5767 101.092 22.0596C101.092 24.5571 102.461 26.1392 104.651 26.1392C106.38 26.1392 107.596 25.3115 107.977 23.9565H106.717ZM110.057 26H111.316V21.1074C111.316 19.9941 112.188 19.1885 113.389 19.1885C113.638 19.1885 114.092 19.2324 114.195 19.2617V18.002C114.034 17.98 113.77 17.9653 113.565 17.9653C112.518 17.9653 111.609 18.5073 111.375 19.2764H111.258V18.1045H110.057V26Z" fill="#6E767D"/>
</svg>
