<svg width="116" height="50" viewBox="0 0 116 50" fill="none" xmlns="http://www.w3.org/2000/svg">
<g clip-path="url(#clip0_23_1552)">
<rect width="116" height="50" fill="#202327"/>
<path d="M16.8057 27.063C16.8862 29.0332 18.5195 30.271 21.0391 30.271C23.6904 30.271 25.3237 28.9673 25.3237 26.8359C25.3237 25.1953 24.4082 24.2798 22.2842 23.833L21.0098 23.562C19.772 23.2983 19.2666 22.9248 19.2666 22.2729C19.2666 21.4673 19.999 20.9546 21.105 20.9546C22.1743 20.9546 22.9507 21.5112 23.0532 22.3462H25.1333C25.0674 20.4639 23.4194 19.1602 21.0903 19.1602C18.6514 19.1602 17.0474 20.4712 17.0474 22.4634C17.0474 24.0747 17.9922 25.0781 19.9185 25.481L21.2954 25.7739C22.5918 26.0522 23.1191 26.4404 23.1191 27.1143C23.1191 27.9126 22.3062 28.4692 21.1562 28.4692C19.9111 28.4692 19.0469 27.9199 18.9443 27.063H16.8057ZM27.2793 30H29.4106V25.3638C29.4106 24.3164 30.0259 23.606 31.0952 23.606C32.062 23.606 32.582 24.1846 32.582 25.3052V30H34.7134V24.7998C34.7134 22.8589 33.6807 21.7676 31.9448 21.7676C30.7583 21.7676 29.8794 22.3242 29.5059 23.2471H29.374V18.8379H27.2793V30ZM40.3677 30.1758C42.8506 30.1758 44.3447 28.6011 44.3447 25.957C44.3447 23.335 42.8286 21.7456 40.3677 21.7456C37.9067 21.7456 36.3906 23.3423 36.3906 25.957C36.3906 28.6011 37.8848 30.1758 40.3677 30.1758ZM40.3677 28.4326C39.2251 28.4326 38.5806 27.5317 38.5806 25.957C38.5806 24.4043 39.2324 23.4888 40.3677 23.4888C41.4956 23.4888 42.1548 24.4043 42.1548 25.957C42.1548 27.5244 41.5029 28.4326 40.3677 28.4326ZM56.9424 21.9214H54.8257L53.6245 27.7148H53.4927L52.0718 21.9214H50.0356L48.6221 27.7148H48.4902L47.2891 21.9214H45.1284L47.2817 30H49.5229L50.9512 24.4263H51.083L52.5259 30H54.7964L56.9424 21.9214ZM62.333 30H64.4644V25.1367C64.4644 24.2358 65.0576 23.584 65.8926 23.584C66.7275 23.584 67.2256 24.0747 67.2256 24.9316V30H69.2764V25.0562C69.2764 24.1992 69.833 23.584 70.6973 23.584C71.5981 23.584 72.0449 24.0601 72.0449 25.0195V30H74.1763V24.4556C74.1763 22.793 73.1729 21.7456 71.5615 21.7456C70.4336 21.7456 69.5034 22.3389 69.1299 23.2397H68.998C68.6758 22.3022 67.8994 21.7456 66.7642 21.7456C65.7021 21.7456 64.8599 22.3169 64.5303 23.2397H64.3984V21.9214H62.333V30ZM79.8306 30.1758C82.3135 30.1758 83.8076 28.6011 83.8076 25.957C83.8076 23.335 82.2915 21.7456 79.8306 21.7456C77.3696 21.7456 75.8535 23.3423 75.8535 25.957C75.8535 28.6011 77.3477 30.1758 79.8306 30.1758ZM79.8306 28.4326C78.688 28.4326 78.0435 27.5317 78.0435 25.957C78.0435 24.4043 78.6953 23.4888 79.8306 23.4888C80.9585 23.4888 81.6177 24.4043 81.6177 25.957C81.6177 27.5244 80.9658 28.4326 79.8306 28.4326ZM85.5508 30H87.6821V25.5249C87.6821 24.3896 88.4805 23.7012 89.645 23.7012C89.9893 23.7012 90.4873 23.7671 90.6558 23.833V21.8921C90.4727 21.8262 90.1138 21.7896 89.8208 21.7896C88.7954 21.7896 87.9604 22.4048 87.748 23.2104H87.6162V21.9214H85.5508V30ZM95.3872 23.3789C96.3833 23.3789 97.0278 24.0454 97.0718 25.1147H93.6294C93.7026 24.0674 94.3984 23.3789 95.3872 23.3789ZM97.1157 27.7002C96.8887 28.2349 96.3101 28.5352 95.4678 28.5352C94.3545 28.5352 93.6514 27.7881 93.6221 26.5869V26.4771H99.1665V25.8252C99.1665 23.2617 97.7603 21.7456 95.3799 21.7456C92.9775 21.7456 91.498 23.3716 91.498 26.001C91.498 28.623 92.9482 30.1758 95.4092 30.1758C97.3867 30.1758 98.7783 29.2236 99.1006 27.7002H97.1157Z" fill="#1D9BF0"/>
</g>
<defs>
<clipPath id="clip0_23_1552">
<rect width="116" height="50" fill="white"/>
</clipPath>
</defs>
</svg>
