<svg width="55" height="24" viewBox="0 0 55 24" fill="none" xmlns="http://www.w3.org/2000/svg">
<path d="M13.418 19V4.9082H10.4688V10.6309H4.12109V4.9082H1.17188V19H4.12109V13.0625H10.4688V19H13.418ZM20.3223 19.2246C23.4863 19.2246 25.5078 17.2031 25.5078 13.7559C25.5078 10.3574 23.457 8.30664 20.3223 8.30664C17.1875 8.30664 15.1367 10.3672 15.1367 13.7559C15.1367 17.1934 17.1582 19.2246 20.3223 19.2246ZM20.3223 17.0469C18.916 17.0469 18.0273 15.8652 18.0273 13.7656C18.0273 11.6855 18.9355 10.4844 20.3223 10.4844C21.709 10.4844 22.6074 11.6855 22.6074 13.7656C22.6074 15.8652 21.7188 17.0469 20.3223 17.0469ZM26.9824 19H29.834V12.6816C29.834 11.5098 30.5664 10.6895 31.6504 10.6895C32.7051 10.6895 33.3398 11.3535 33.3398 12.4766V19H36.084V12.6426C36.084 11.4805 36.7969 10.6895 37.8809 10.6895C38.9844 10.6895 39.5898 11.3535 39.5898 12.5645V19H42.4414V11.8516C42.4414 9.74219 41.0645 8.33594 39.0137 8.33594C37.4805 8.33594 36.2305 9.16602 35.7617 10.4844H35.7031C35.3516 9.11719 34.2969 8.33594 32.7832 8.33594C31.3574 8.33594 30.2344 9.16602 29.7949 10.4258H29.7363V8.53125H26.9824V19ZM48.9453 10.416C50.2148 10.416 51.084 11.334 51.1426 12.6719H46.6992C46.7969 11.3633 47.6953 10.416 48.9453 10.416ZM51.1816 15.7969C50.918 16.5977 50.1172 17.1152 49.0723 17.1152C47.6172 17.1152 46.6699 16.0898 46.6699 14.5957V14.4199H53.8867V13.5508C53.8867 10.3672 51.9629 8.30664 48.916 8.30664C45.8203 8.30664 43.8672 10.4746 43.8672 13.8145C43.8672 17.1641 45.8008 19.2246 49.0234 19.2246C51.6113 19.2246 53.4863 17.8477 53.7988 15.7969H51.1816Z" fill="white"/>
</svg>
