<svg width="350" height="48" viewBox="0 0 350 48" fill="none" xmlns="http://www.w3.org/2000/svg">
<rect width="350" height="48" fill="#202327"/>
<path d="M23.1157 30V18.9229H26.9937V16.6128H16.4453V18.9229H20.314V30H23.1157ZM27.0493 30H29.7583V24.4429C29.7583 23.042 30.5376 22.2256 31.8735 22.2256C32.2632 22.2256 32.6343 22.2905 32.8569 22.3833V19.999C32.6714 19.9434 32.4023 19.897 32.0869 19.897C30.918 19.897 30.0737 20.5835 29.7212 21.8452H29.6655V20.0547H27.0493V30ZM38.0986 21.8452C39.3047 21.8452 40.1304 22.7173 40.186 23.9883H35.9648C36.0576 22.7451 36.9111 21.8452 38.0986 21.8452ZM40.2231 26.957C39.9727 27.7178 39.2119 28.2095 38.2192 28.2095C36.8369 28.2095 35.937 27.2354 35.937 25.8159V25.6489H42.793V24.8232C42.793 21.7988 40.9653 19.8413 38.0708 19.8413C35.1299 19.8413 33.2744 21.9009 33.2744 25.0737C33.2744 28.2559 35.1113 30.2134 38.1729 30.2134C40.6313 30.2134 42.4126 28.9053 42.7095 26.957H40.2231ZM44.1938 30H46.9028V24.2944C46.9028 23.0049 47.6729 22.1143 48.8882 22.1143C50.1035 22.1143 50.7158 22.8564 50.7158 24.1553V30H53.4248V23.5894C53.4248 21.2607 52.1816 19.8691 49.9736 19.8691C48.4429 19.8691 47.3945 20.5928 46.8657 21.8267H46.8101V20.0547H44.1938V30ZM58.8335 30.1577C60.2993 30.1577 61.4497 29.3877 61.9321 28.293H61.9785V30H64.6504V16.6128H61.9414V21.7617H61.8857C61.4033 20.6577 60.29 19.897 58.8521 19.897C56.3564 19.897 54.7793 21.8545 54.7793 25.0088C54.7793 28.1909 56.3472 30.1577 58.8335 30.1577ZM59.752 22.0679C61.0972 22.0679 61.96 23.2183 61.96 25.0273C61.96 26.8457 61.0972 27.9775 59.752 27.9775C58.3882 27.9775 57.5532 26.855 57.5532 25.0273C57.5532 23.209 58.3882 22.0679 59.752 22.0679ZM66.2925 22.9771C66.2925 24.4429 67.2573 25.4263 69.1406 25.853L70.9775 26.2612C71.8682 26.4746 72.2021 26.7529 72.2021 27.2539C72.2021 27.9033 71.5806 28.3115 70.5508 28.3115C69.4746 28.3115 68.8159 27.8291 68.686 26.9941H66.042C66.1904 28.9331 67.8232 30.2134 70.4766 30.2134C73.1021 30.2134 74.9019 28.9238 74.9019 26.9663C74.9019 25.4819 74.0947 24.6934 72.1001 24.248L70.1982 23.8398C69.3262 23.6357 68.8994 23.3018 68.8994 22.8101C68.8994 22.1699 69.5117 21.7432 70.4487 21.7432C71.4507 21.7432 72.0908 22.2349 72.1465 23.0327H74.6421C74.605 21.103 72.9814 19.8413 70.4858 19.8413C67.9346 19.8413 66.2925 21.0845 66.2925 22.9771ZM80.7466 30H83.4556V22.0957H85.3667V20.1011H83.3906V19.4424C83.3906 18.7373 83.7803 18.3477 84.6709 18.3477C84.9399 18.3477 85.209 18.3662 85.4038 18.4033V16.6128C85.0884 16.5479 84.5225 16.4922 84.0215 16.4922C81.665 16.4922 80.7466 17.4014 80.7466 19.3496V20.1011H79.3921V22.0957H80.7466V30ZM91.0815 30.2134C94.0874 30.2134 96.0078 28.293 96.0078 25.0181C96.0078 21.7896 94.0596 19.8413 91.0815 19.8413C88.1035 19.8413 86.1553 21.7988 86.1553 25.0181C86.1553 28.2837 88.0757 30.2134 91.0815 30.2134ZM91.0815 28.1445C89.7456 28.1445 88.9014 27.022 88.9014 25.0273C88.9014 23.0513 89.7642 21.9102 91.0815 21.9102C92.3989 21.9102 93.2524 23.0513 93.2524 25.0273C93.2524 27.022 92.4082 28.1445 91.0815 28.1445ZM97.4087 30H100.118V24.4429C100.118 23.042 100.897 22.2256 102.233 22.2256C102.623 22.2256 102.994 22.2905 103.216 22.3833V19.999C103.031 19.9434 102.762 19.897 102.446 19.897C101.277 19.897 100.433 20.5835 100.081 21.8452H100.025V20.0547H97.4087V30ZM109.367 33.6831C111.909 33.6831 113.152 32.7739 114.006 30.2227L117.429 20.0547H114.572L112.457 27.8291H112.41L110.295 20.0547H107.317L110.777 30.0093C110.796 30.0464 110.694 30.4453 110.694 30.4824C110.508 31.271 110.017 31.5864 109.024 31.5864C108.922 31.5864 108.43 31.5864 108.347 31.5679V33.6553C108.43 33.6738 109.274 33.6831 109.367 33.6831ZM122.699 30.2134C125.705 30.2134 127.625 28.293 127.625 25.0181C127.625 21.7896 125.677 19.8413 122.699 19.8413C119.721 19.8413 117.772 21.7988 117.772 25.0181C117.772 28.2837 119.693 30.2134 122.699 30.2134ZM122.699 28.1445C121.363 28.1445 120.519 27.022 120.519 25.0273C120.519 23.0513 121.381 21.9102 122.699 21.9102C124.016 21.9102 124.87 23.0513 124.87 25.0273C124.87 27.022 124.025 28.1445 122.699 28.1445ZM138.21 20.0547H135.501V25.751C135.501 27.0684 134.75 27.9312 133.544 27.9312C132.347 27.9312 131.688 27.2261 131.688 25.8994V20.0547H128.979V26.4653C128.979 28.7847 130.408 30.1855 132.561 30.1855C134.063 30.1855 135.047 29.4619 135.539 28.2095H135.594V30H138.21V20.0547Z" fill="#D9D9D9"/>
<rect width="64" height="20" transform="translate(286 14)" fill="#202327"/>
<path d="M310 20.8417C308.258 20.8417 306.842 22.2583 306.842 24C306.842 25.7417 308.258 27.1583 310 27.1583C311.742 27.1583 313.158 25.7417 313.158 24C313.158 22.2583 311.742 20.8417 310 20.8417ZM310 25.9083C308.948 25.9083 308.092 25.0533 308.092 24C308.092 22.9467 308.95 22.0917 310 22.0917C311.05 22.0917 311.908 22.9467 311.908 24C311.908 25.0533 311.052 25.9083 310 25.9083Z" fill="#EFF3F4"/>
<path d="M310.3 32.6459H309.698C308.713 32.6459 307.903 31.9059 307.813 30.9259L307.802 30.8034C307.781 30.5642 307.629 30.3592 307.408 30.2667C307.17 30.1667 306.923 30.2125 306.743 30.3625L306.647 30.4434C305.923 31.0475 304.769 30.9959 304.097 30.3267L303.672 29.9017C302.975 29.2017 302.925 28.1067 303.555 27.3517L303.637 27.2534C303.792 27.0684 303.828 26.8175 303.738 26.5975C303.647 26.3709 303.44 26.2192 303.2 26.1975L303.075 26.1859C302.092 26.0967 301.353 25.2859 301.353 24.3009V23.6992C301.353 22.7134 302.093 21.9042 303.073 21.8142L303.203 21.8025C303.44 21.7817 303.644 21.63 303.738 21.4084C303.829 21.1834 303.792 20.9309 303.638 20.7459L303.559 20.6492C302.928 19.8925 302.978 18.7967 303.673 18.0992L304.1 17.6725C304.77 17.0025 305.923 16.9517 306.65 17.5559L306.747 17.6375C306.928 17.7909 307.187 17.8292 307.405 17.7392C307.63 17.6459 307.782 17.4409 307.803 17.2034L307.814 17.0759C307.903 16.0925 308.714 15.3542 309.699 15.3542H310.301C311.287 15.3542 312.096 16.0942 312.186 17.0742L312.198 17.2042C312.218 17.4417 312.369 17.6459 312.591 17.7375C312.822 17.835 313.074 17.7892 313.253 17.64L313.353 17.555C314.075 16.9525 315.231 17.0034 315.903 17.6717L316.328 18.0984C317.024 18.7967 317.074 19.8925 316.444 20.6484L316.361 20.7467C316.204 20.93 316.166 21.1817 316.258 21.4034C316.352 21.6284 316.558 21.7784 316.797 21.8017L316.923 21.8134C317.907 21.9025 318.646 22.7134 318.646 23.6984V24.3009C318.646 25.2867 317.906 26.0959 316.926 26.1859L316.797 26.1975C316.56 26.2175 316.355 26.3684 316.263 26.5892C316.169 26.8159 316.208 27.0675 316.361 27.2517L316.444 27.3517C317.074 28.1059 317.024 29.2017 316.328 29.9017L315.903 30.3267C315.23 30.9967 314.078 31.0467 313.353 30.4434L313.257 30.3634C313.076 30.2109 312.815 30.1717 312.598 30.2617C312.371 30.3567 312.219 30.5617 312.198 30.8L312.187 30.925C312.098 31.9025 311.287 32.6417 310.302 32.6417L310.3 32.6459ZM307.156 28.9625C307.406 28.9625 307.65 29.0125 307.881 29.1084C308.539 29.3817 308.984 29.9867 309.048 30.6884L309.059 30.8109C309.09 31.1442 309.365 31.3942 309.701 31.3942H310.303C310.636 31.3942 310.911 31.1442 310.943 30.8109L310.954 30.6875C311.018 29.9859 311.463 29.3817 312.114 29.1109C312.775 28.8359 313.528 28.9592 314.058 29.4025L314.153 29.4809C314.301 29.6042 314.458 29.6309 314.563 29.6309C314.735 29.6309 314.897 29.5642 315.018 29.4417L315.443 29.0167C315.68 28.78 315.698 28.4084 315.483 28.1517L315.4 28.0517C314.948 27.51 314.836 26.7684 315.107 26.1159C315.378 25.4575 315.983 25.0159 316.685 24.9517L316.814 24.94C317.145 24.9092 317.398 24.6342 317.398 24.2984V23.6967C317.398 23.3634 317.145 23.0884 316.813 23.0567L316.686 23.045C315.981 22.98 315.378 22.5367 315.107 21.8842C314.835 21.2275 314.948 20.4859 315.401 19.945L315.484 19.8467C315.698 19.5884 315.681 19.2167 315.444 18.98L315.019 18.555C314.898 18.4325 314.736 18.3659 314.564 18.3659C314.458 18.3659 314.302 18.3925 314.154 18.5159L314.054 18.5992C313.526 19.0392 312.763 19.1575 312.119 18.8942C311.463 18.6217 311.019 18.0175 310.955 17.3142L310.943 17.185C310.914 16.8542 310.639 16.6017 310.304 16.6017H309.702C309.368 16.6017 309.093 16.8542 309.062 17.1867L309.05 17.3134C308.987 18.0159 308.543 18.62 307.892 18.8909C307.236 19.1625 306.481 19.0434 305.95 18.5992L305.852 18.5192C305.702 18.3942 305.545 18.3692 305.439 18.3692C305.268 18.3692 305.106 18.4359 304.984 18.5575L304.558 18.9825C304.323 19.2192 304.305 19.5909 304.519 19.8475L304.603 19.9459C305.053 20.49 305.167 21.2325 304.896 21.8834C304.623 22.54 304.019 22.9834 303.317 23.0475L303.187 23.0592C302.856 23.09 302.603 23.365 302.603 23.7009V24.3025C302.603 24.6359 302.856 24.9109 303.188 24.9425L303.313 24.9542C304.02 25.0192 304.624 25.4642 304.894 26.1175C305.165 26.7725 305.053 27.5134 304.6 28.055L304.52 28.1509C304.303 28.4092 304.322 28.7809 304.558 29.0175L304.983 29.4425C305.105 29.565 305.267 29.6317 305.438 29.6317C305.544 29.6317 305.701 29.6067 305.848 29.4817L305.945 29.4017C306.283 29.1217 306.714 28.965 307.156 28.965V28.9625Z" fill="#EFF3F4"/>
</svg>
