<svg width="506" height="54" viewBox="0 0 506 54" fill="none" xmlns="http://www.w3.org/2000/svg">
<path d="M10.2173 9.91309V8.62402H5.93262V9.78125H8.90625V10.0376C8.90625 11.8247 7.62451 13.0332 5.73486 13.0332C3.61084 13.0332 2.29248 11.3779 2.29248 8.71191C2.29248 6.08252 3.63281 4.39795 5.72754 4.39795C7.29492 4.39795 8.35693 5.15234 8.81104 6.58057H10.1514C9.77051 4.48584 8.07129 3.18213 5.72754 3.18213C2.83447 3.18213 0.9375 5.37207 0.9375 8.71191C0.9375 12.0957 2.80518 14.249 5.72754 14.249C8.43018 14.249 10.2173 12.5205 10.2173 9.91309ZM14.8242 13.0332C13.9087 13.0332 13.2275 12.5645 13.2275 11.7588C13.2275 10.9678 13.7549 10.5503 14.9561 10.4697L17.0801 10.3306V11.0557C17.0801 12.1836 16.1206 13.0332 14.8242 13.0332ZM14.5898 14.1392C15.6445 14.1392 16.5088 13.6777 17.0215 12.8354H17.1387V14H18.3398V8.59473C18.3398 6.9541 17.2632 5.96533 15.3369 5.96533C13.6523 5.96533 12.4072 6.80029 12.2388 8.06738H13.5132C13.689 7.44482 14.3481 7.08594 15.293 7.08594C16.4722 7.08594 17.0801 7.62061 17.0801 8.59473V9.3125L14.8022 9.45166C12.9639 9.56152 11.9238 10.3745 11.9238 11.7881C11.9238 13.231 13.0591 14.1392 14.5898 14.1392ZM20.6689 14H21.9287V9.10742C21.9287 7.99414 22.8003 7.18848 24.0015 7.18848C24.2505 7.18848 24.7046 7.23242 24.8071 7.26172V6.00195C24.646 5.97998 24.3823 5.96533 24.1772 5.96533C23.1299 5.96533 22.2217 6.50732 21.9873 7.27637H21.8701V6.10449H20.6689V14ZM29.0845 14.1392C30.1758 14.1392 31.1133 13.6191 31.6113 12.7402H31.7285V14H32.9297V2.96973H31.6699V7.34961H31.5601C31.1133 6.48535 30.1831 5.96533 29.0845 5.96533C27.0776 5.96533 25.7666 7.57666 25.7666 10.0522C25.7666 12.5352 27.063 14.1392 29.0845 14.1392ZM29.3774 7.10059C30.8057 7.10059 31.6992 8.24316 31.6992 10.0522C31.6992 11.876 30.813 13.0039 29.3774 13.0039C27.9346 13.0039 27.0703 11.8979 27.0703 10.0522C27.0703 8.21387 27.9419 7.10059 29.3774 7.10059ZM38.5254 7.07861C39.7778 7.07861 40.6128 8.00146 40.6421 9.40039H36.2915C36.3867 8.00146 37.2656 7.07861 38.5254 7.07861ZM40.6055 11.9565C40.2759 12.6523 39.5874 13.0259 38.5693 13.0259C37.229 13.0259 36.3574 12.0371 36.2915 10.4771V10.4185H41.9678V9.93506C41.9678 7.48145 40.6714 5.96533 38.54 5.96533C36.3721 5.96533 34.9805 7.57666 34.9805 10.0596C34.9805 12.5571 36.3501 14.1392 38.54 14.1392C40.2686 14.1392 41.4844 13.3115 41.8652 11.9565H40.6055ZM43.9453 14H45.2051V9.32715C45.2051 7.94287 46.0181 7.10059 47.2778 7.10059C48.5376 7.10059 49.1382 7.77441 49.1382 9.19531V14H50.3979V8.8877C50.3979 7.0127 49.4092 5.96533 47.6367 5.96533C46.4282 5.96533 45.6592 6.47803 45.2637 7.34961H45.1465V6.10449H43.9453V14ZM52.7344 14H53.9941V6.10449H52.7344V14ZM53.3643 4.50049C53.8477 4.50049 54.2432 4.10498 54.2432 3.62158C54.2432 3.13818 53.8477 2.74268 53.3643 2.74268C52.8809 2.74268 52.4854 3.13818 52.4854 3.62158C52.4854 4.10498 52.8809 4.50049 53.3643 4.50049ZM56.3965 14H57.6562V9.32715C57.6562 7.94287 58.4692 7.10059 59.729 7.10059C60.9888 7.10059 61.5894 7.77441 61.5894 9.19531V14H62.8491V8.8877C62.8491 7.0127 61.8604 5.96533 60.0879 5.96533C58.8794 5.96533 58.1104 6.47803 57.7148 7.34961H57.5977V6.10449H56.3965V14ZM68.3496 12.7695C66.8848 12.7695 66.0645 11.6562 66.0645 9.93506C66.0645 8.21387 66.8848 7.10059 68.3496 7.10059C69.8071 7.10059 70.6934 8.21387 70.6934 9.93506C70.6934 11.6562 69.8145 12.7695 68.3496 12.7695ZM68.4082 17.0322C70.5615 17.0322 71.9238 15.9043 71.9238 14.1392V6.10449H70.7227V7.35693H70.6055C70.1514 6.50732 69.1772 5.96533 68.0713 5.96533C66.0425 5.96533 64.7607 7.56934 64.7607 9.93506C64.7607 12.3008 66.0278 13.8828 68.0713 13.8828C69.1553 13.8828 70.0488 13.3921 70.5469 12.5205H70.6641V14.0732C70.6641 15.2378 69.8218 15.9336 68.4082 15.9336C67.2729 15.9336 66.5698 15.5161 66.4307 14.8716H65.0977C65.2881 16.1753 66.5039 17.0322 68.4082 17.0322ZM82.4561 14.1392C84.4556 14.1392 85.7666 12.5205 85.7666 10.0522C85.7666 7.56934 84.4629 5.96533 82.4561 5.96533C81.3721 5.96533 80.4126 6.5 79.9805 7.34961H79.8633V2.96973H78.6035V14H79.8047V12.7402H79.9219C80.4199 13.6191 81.3574 14.1392 82.4561 14.1392ZM82.1631 7.10059C83.606 7.10059 84.4629 8.20654 84.4629 10.0522C84.4629 11.8979 83.606 13.0039 82.1631 13.0039C80.7275 13.0039 79.834 11.876 79.834 10.0522C79.834 8.22852 80.7275 7.10059 82.1631 7.10059ZM90.9888 14.1392C93.2373 14.1392 94.6289 12.5864 94.6289 10.0522C94.6289 7.51074 93.2373 5.96533 90.9888 5.96533C88.7402 5.96533 87.3486 7.51074 87.3486 10.0522C87.3486 12.5864 88.7402 14.1392 90.9888 14.1392ZM90.9888 13.0039C89.4946 13.0039 88.6523 11.9199 88.6523 10.0522C88.6523 8.17725 89.4946 7.10059 90.9888 7.10059C92.4829 7.10059 93.3252 8.17725 93.3252 10.0522C93.3252 11.9199 92.4829 13.0039 90.9888 13.0039ZM99.8511 14.1392C102.1 14.1392 103.491 12.5864 103.491 10.0522C103.491 7.51074 102.1 5.96533 99.8511 5.96533C97.6025 5.96533 96.2109 7.51074 96.2109 10.0522C96.2109 12.5864 97.6025 14.1392 99.8511 14.1392ZM99.8511 13.0039C98.3569 13.0039 97.5146 11.9199 97.5146 10.0522C97.5146 8.17725 98.3569 7.10059 99.8511 7.10059C101.345 7.10059 102.188 8.17725 102.188 10.0522C102.188 11.9199 101.345 13.0039 99.8511 13.0039ZM105.469 14H106.729V9.10742C106.729 7.99414 107.527 7.10059 108.56 7.10059C109.556 7.10059 110.208 7.70117 110.208 8.63867V14H111.467V8.92432C111.467 7.9209 112.2 7.10059 113.298 7.10059C114.412 7.10059 114.961 7.67188 114.961 8.83643V14H116.221V8.54346C116.221 6.88818 115.32 5.96533 113.708 5.96533C112.617 5.96533 111.716 6.51465 111.292 7.34961H111.174C110.808 6.5293 110.061 5.96533 108.992 5.96533C107.937 5.96533 107.146 6.4707 106.787 7.34961H106.67V6.10449H105.469V14ZM121.67 7.07861C122.922 7.07861 123.757 8.00146 123.787 9.40039H119.436C119.531 8.00146 120.41 7.07861 121.67 7.07861ZM123.75 11.9565C123.42 12.6523 122.732 13.0259 121.714 13.0259C120.374 13.0259 119.502 12.0371 119.436 10.4771V10.4185H125.112V9.93506C125.112 7.48145 123.816 5.96533 121.685 5.96533C119.517 5.96533 118.125 7.57666 118.125 10.0596C118.125 12.5571 119.495 14.1392 121.685 14.1392C123.413 14.1392 124.629 13.3115 125.01 11.9565H123.75ZM130.012 14.1392C131.104 14.1392 132.041 13.6191 132.539 12.7402H132.656V14H133.857V2.96973H132.598V7.34961H132.488C132.041 6.48535 131.111 5.96533 130.012 5.96533C128.005 5.96533 126.694 7.57666 126.694 10.0522C126.694 12.5352 127.991 14.1392 130.012 14.1392ZM130.305 7.10059C131.733 7.10059 132.627 8.24316 132.627 10.0522C132.627 11.876 131.741 13.0039 130.305 13.0039C128.862 13.0039 127.998 11.8979 127.998 10.0522C127.998 8.21387 128.87 7.10059 130.305 7.10059ZM143.459 14.1392C144.551 14.1392 145.488 13.6191 145.986 12.7402H146.104V14H147.305V2.96973H146.045V7.34961H145.935C145.488 6.48535 144.558 5.96533 143.459 5.96533C141.453 5.96533 140.142 7.57666 140.142 10.0522C140.142 12.5352 141.438 14.1392 143.459 14.1392ZM143.752 7.10059C145.181 7.10059 146.074 8.24316 146.074 10.0522C146.074 11.876 145.188 13.0039 143.752 13.0039C142.31 13.0039 141.445 11.8979 141.445 10.0522C141.445 8.21387 142.317 7.10059 143.752 7.10059ZM156.138 6.10449H154.878V10.7773C154.878 12.1616 154.116 12.9893 152.725 12.9893C151.465 12.9893 150.938 12.3301 150.938 10.9092V6.10449H149.678V11.2168C149.678 13.0845 150.601 14.1392 152.373 14.1392C153.582 14.1392 154.424 13.6411 154.819 12.7622H154.937V14H156.138V6.10449ZM158.511 14H159.771V9.10742C159.771 7.99414 160.642 7.18848 161.843 7.18848C162.092 7.18848 162.546 7.23242 162.649 7.26172V6.00195C162.488 5.97998 162.224 5.96533 162.019 5.96533C160.972 5.96533 160.063 6.50732 159.829 7.27637H159.712V6.10449H158.511V14ZM164.253 14H165.513V6.10449H164.253V14ZM164.883 4.50049C165.366 4.50049 165.762 4.10498 165.762 3.62158C165.762 3.13818 165.366 2.74268 164.883 2.74268C164.399 2.74268 164.004 3.13818 164.004 3.62158C164.004 4.10498 164.399 4.50049 164.883 4.50049ZM167.915 14H169.175V9.32715C169.175 7.94287 169.988 7.10059 171.248 7.10059C172.507 7.10059 173.108 7.77441 173.108 9.19531V14H174.368V8.8877C174.368 7.0127 173.379 5.96533 171.606 5.96533C170.398 5.96533 169.629 6.47803 169.233 7.34961H169.116V6.10449H167.915V14ZM179.868 12.7695C178.403 12.7695 177.583 11.6562 177.583 9.93506C177.583 8.21387 178.403 7.10059 179.868 7.10059C181.326 7.10059 182.212 8.21387 182.212 9.93506C182.212 11.6562 181.333 12.7695 179.868 12.7695ZM179.927 17.0322C182.08 17.0322 183.442 15.9043 183.442 14.1392V6.10449H182.241V7.35693H182.124C181.67 6.50732 180.696 5.96533 179.59 5.96533C177.561 5.96533 176.279 7.56934 176.279 9.93506C176.279 12.3008 177.546 13.8828 179.59 13.8828C180.674 13.8828 181.567 13.3921 182.065 12.5205H182.183V14.0732C182.183 15.2378 181.34 15.9336 179.927 15.9336C178.792 15.9336 178.088 15.5161 177.949 14.8716H176.616C176.807 16.1753 178.022 17.0322 179.927 17.0322ZM190.576 4.06104V6.10449H189.302V7.15918H190.576V11.9492C190.576 13.458 191.228 14.0586 192.854 14.0586C193.103 14.0586 193.345 14.0293 193.594 13.9854V12.9233C193.359 12.9453 193.235 12.9526 193.008 12.9526C192.188 12.9526 191.836 12.5571 191.836 11.627V7.15918H193.594V6.10449H191.836V4.06104H190.576ZM195.571 14H196.831V9.32715C196.831 7.99414 197.607 7.10059 199.021 7.10059C200.215 7.10059 200.845 7.79639 200.845 9.19531V14H202.104V8.8877C202.104 7.03467 201.05 5.96533 199.38 5.96533C198.171 5.96533 197.344 6.47803 196.948 7.34961H196.831V2.96973H195.571V14ZM207.554 7.07861C208.806 7.07861 209.641 8.00146 209.67 9.40039H205.32C205.415 8.00146 206.294 7.07861 207.554 7.07861ZM209.634 11.9565C209.304 12.6523 208.616 13.0259 207.598 13.0259C206.257 13.0259 205.386 12.0371 205.32 10.4771V10.4185H210.996V9.93506C210.996 7.48145 209.7 5.96533 207.568 5.96533C205.4 5.96533 204.009 7.57666 204.009 10.0596C204.009 12.5571 205.378 14.1392 207.568 14.1392C209.297 14.1392 210.513 13.3115 210.894 11.9565H209.634ZM221.052 5.96533C219.976 5.96533 219.031 6.51465 218.525 7.42285H218.408V6.10449H217.207V16.6367H218.467V12.8135H218.584C219.016 13.6484 219.924 14.1392 221.052 14.1392C223.059 14.1392 224.37 12.5205 224.37 10.0522C224.37 7.56934 223.066 5.96533 221.052 5.96533ZM220.752 13.0039C219.331 13.0039 218.43 11.8613 218.43 10.0522C218.43 8.23584 219.331 7.10059 220.759 7.10059C222.202 7.10059 223.066 8.20654 223.066 10.0522C223.066 11.8979 222.202 13.0039 220.752 13.0039ZM228.779 13.0332C227.864 13.0332 227.183 12.5645 227.183 11.7588C227.183 10.9678 227.71 10.5503 228.911 10.4697L231.035 10.3306V11.0557C231.035 12.1836 230.076 13.0332 228.779 13.0332ZM228.545 14.1392C229.6 14.1392 230.464 13.6777 230.977 12.8354H231.094V14H232.295V8.59473C232.295 6.9541 231.218 5.96533 229.292 5.96533C227.607 5.96533 226.362 6.80029 226.194 8.06738H227.468C227.644 7.44482 228.303 7.08594 229.248 7.08594C230.427 7.08594 231.035 7.62061 231.035 8.59473V9.3125L228.757 9.45166C226.919 9.56152 225.879 10.3745 225.879 11.7881C225.879 13.231 227.014 14.1392 228.545 14.1392ZM234.624 14H235.884V9.32715C235.884 7.94287 236.697 7.10059 237.957 7.10059C239.216 7.10059 239.817 7.77441 239.817 9.19531V14H241.077V8.8877C241.077 7.0127 240.088 5.96533 238.315 5.96533C237.107 5.96533 236.338 6.47803 235.942 7.34961H235.825V6.10449H234.624V14ZM246.306 14.1392C247.397 14.1392 248.335 13.6191 248.833 12.7402H248.95V14H250.151V2.96973H248.892V7.34961H248.782C248.335 6.48535 247.405 5.96533 246.306 5.96533C244.299 5.96533 242.988 7.57666 242.988 10.0522C242.988 12.5352 244.285 14.1392 246.306 14.1392ZM246.599 7.10059C248.027 7.10059 248.921 8.24316 248.921 10.0522C248.921 11.876 248.035 13.0039 246.599 13.0039C245.156 13.0039 244.292 11.8979 244.292 10.0522C244.292 8.21387 245.164 7.10059 246.599 7.10059ZM255.747 7.07861C257 7.07861 257.834 8.00146 257.864 9.40039H253.513C253.608 8.00146 254.487 7.07861 255.747 7.07861ZM257.827 11.9565C257.498 12.6523 256.809 13.0259 255.791 13.0259C254.451 13.0259 253.579 12.0371 253.513 10.4771V10.4185H259.189V9.93506C259.189 7.48145 257.893 5.96533 255.762 5.96533C253.594 5.96533 252.202 7.57666 252.202 10.0596C252.202 12.5571 253.572 14.1392 255.762 14.1392C257.49 14.1392 258.706 13.3115 259.087 11.9565H257.827ZM261.167 14H262.427V9.10742C262.427 7.99414 263.225 7.10059 264.258 7.10059C265.254 7.10059 265.906 7.70117 265.906 8.63867V14H267.166V8.92432C267.166 7.9209 267.898 7.10059 268.997 7.10059C270.11 7.10059 270.659 7.67188 270.659 8.83643V14H271.919V8.54346C271.919 6.88818 271.018 5.96533 269.407 5.96533C268.315 5.96533 267.415 6.51465 266.99 7.34961H266.873C266.506 6.5293 265.759 5.96533 264.69 5.96533C263.635 5.96533 262.844 6.4707 262.485 7.34961H262.368V6.10449H261.167V14ZM274.248 14H275.508V6.10449H274.248V14ZM274.878 4.50049C275.361 4.50049 275.757 4.10498 275.757 3.62158C275.757 3.13818 275.361 2.74268 274.878 2.74268C274.395 2.74268 273.999 3.13818 273.999 3.62158C273.999 4.10498 274.395 4.50049 274.878 4.50049ZM284.443 8.52148C284.224 7.11523 283.052 5.96533 281.133 5.96533C278.921 5.96533 277.515 7.56201 277.515 10.0229C277.515 12.5352 278.928 14.1392 281.14 14.1392C283.037 14.1392 284.216 13.0698 284.443 11.6196H283.169C282.935 12.5132 282.195 13.0039 281.133 13.0039C279.727 13.0039 278.818 11.8467 278.818 10.0229C278.818 8.23584 279.712 7.10059 281.133 7.10059C282.268 7.10059 282.964 7.73779 283.169 8.52148H284.443ZM287.344 14.0732C287.871 14.0732 288.296 13.6411 288.296 13.1211C288.296 12.5938 287.871 12.1689 287.344 12.1689C286.824 12.1689 286.392 12.5938 286.392 13.1211C286.392 13.6411 286.824 14.0732 287.344 14.0732ZM294.646 11.2388C294.785 13.0625 296.331 14.249 298.572 14.249C300.989 14.249 302.52 13.0112 302.52 11.0703C302.52 9.51758 301.641 8.66797 299.451 8.11865L298.345 7.82568C296.887 7.45215 296.309 6.97607 296.309 6.14844C296.309 5.0791 297.239 4.37598 298.645 4.37598C299.963 4.37598 300.857 5.02051 301.04 6.10449H302.366C302.256 4.39795 300.732 3.18213 298.689 3.18213C296.455 3.18213 294.954 4.39795 294.954 6.19238C294.954 7.69385 295.781 8.55811 297.693 9.0415L299.048 9.39307C300.505 9.75928 301.165 10.3306 301.165 11.2314C301.165 12.2788 300.117 13.0479 298.696 13.0479C297.195 13.0479 296.14 12.3447 295.979 11.2388H294.646ZM304.585 14H305.845V6.10449H304.585V14ZM305.215 4.50049C305.698 4.50049 306.094 4.10498 306.094 3.62158C306.094 3.13818 305.698 2.74268 305.215 2.74268C304.731 2.74268 304.336 3.13818 304.336 3.62158C304.336 4.10498 304.731 4.50049 305.215 4.50049ZM311.045 11.019L312.913 14H314.407L311.689 10.001L314.37 6.10449H312.942L311.089 9.0415H310.972L309.097 6.10449H307.595L310.327 10.0522L307.625 14H309.053L310.928 11.019H311.045ZM324.646 14C326.895 14 328.228 12.894 328.228 11.0337C328.228 9.63477 327.312 8.646 325.869 8.46289V8.3457C326.887 8.1626 327.693 7.1665 327.693 6.06787C327.693 4.44922 326.506 3.43115 324.565 3.43115H320.522V14H324.646ZM321.841 4.5957H324.287C325.598 4.5957 326.36 5.21826 326.36 6.29492C326.36 7.41553 325.547 7.98682 323.95 7.98682H321.841V4.5957ZM321.841 12.8354V9.12207H324.324C326.008 9.12207 326.873 9.74463 326.873 10.9678C326.873 12.1909 326.038 12.8354 324.448 12.8354H321.841ZM330.293 14H331.553V2.96973H330.293V14ZM336.431 13.0332C335.515 13.0332 334.834 12.5645 334.834 11.7588C334.834 10.9678 335.361 10.5503 336.562 10.4697L338.687 10.3306V11.0557C338.687 12.1836 337.727 13.0332 336.431 13.0332ZM336.196 14.1392C337.251 14.1392 338.115 13.6777 338.628 12.8354H338.745V14H339.946V8.59473C339.946 6.9541 338.87 5.96533 336.943 5.96533C335.259 5.96533 334.014 6.80029 333.845 8.06738H335.12C335.295 7.44482 335.955 7.08594 336.899 7.08594C338.079 7.08594 338.687 7.62061 338.687 8.59473V9.3125L336.409 9.45166C334.57 9.56152 333.53 10.3745 333.53 11.7881C333.53 13.231 334.666 14.1392 336.196 14.1392ZM348.809 8.52148C348.589 7.11523 347.417 5.96533 345.498 5.96533C343.286 5.96533 341.88 7.56201 341.88 10.0229C341.88 12.5352 343.293 14.1392 345.505 14.1392C347.402 14.1392 348.582 13.0698 348.809 11.6196H347.534C347.3 12.5132 346.56 13.0039 345.498 13.0039C344.092 13.0039 343.184 11.8467 343.184 10.0229C343.184 8.23584 344.077 7.10059 345.498 7.10059C346.633 7.10059 347.329 7.73779 347.534 8.52148H348.809ZM352.119 9.5542H352.002V2.96973H350.742V14H352.002V11.0044L352.756 10.3013L355.715 14H357.319L353.694 9.48828L357.092 6.10449H355.547L352.119 9.5542ZM372.979 6.10449H371.711L370.159 12.418H370.042L368.276 6.10449H367.068L365.303 12.418H365.186L363.633 6.10449H362.358L364.57 14H365.845L367.603 7.8916H367.72L369.485 14H370.767L372.979 6.10449ZM374.663 14H375.923V9.10742C375.923 7.99414 376.794 7.18848 377.996 7.18848C378.245 7.18848 378.699 7.23242 378.801 7.26172V6.00195C378.64 5.97998 378.376 5.96533 378.171 5.96533C377.124 5.96533 376.216 6.50732 375.981 7.27637H375.864V6.10449H374.663V14ZM380.405 14H381.665V6.10449H380.405V14ZM381.035 4.50049C381.519 4.50049 381.914 4.10498 381.914 3.62158C381.914 3.13818 381.519 2.74268 381.035 2.74268C380.552 2.74268 380.156 3.13818 380.156 3.62158C380.156 4.10498 380.552 4.50049 381.035 4.50049ZM384.595 4.06104V6.10449H383.32V7.15918H384.595V11.9492C384.595 13.458 385.247 14.0586 386.873 14.0586C387.122 14.0586 387.363 14.0293 387.612 13.9854V12.9233C387.378 12.9453 387.253 12.9526 387.026 12.9526C386.206 12.9526 385.854 12.5571 385.854 11.627V7.15918H387.612V6.10449H385.854V4.06104H384.595ZM392.549 7.07861C393.801 7.07861 394.636 8.00146 394.666 9.40039H390.315C390.41 8.00146 391.289 7.07861 392.549 7.07861ZM394.629 11.9565C394.299 12.6523 393.611 13.0259 392.593 13.0259C391.252 13.0259 390.381 12.0371 390.315 10.4771V10.4185H395.991V9.93506C395.991 7.48145 394.695 5.96533 392.563 5.96533C390.396 5.96533 389.004 7.57666 389.004 10.0596C389.004 12.5571 390.374 14.1392 392.563 14.1392C394.292 14.1392 395.508 13.3115 395.889 11.9565H394.629ZM397.969 14H399.229V9.10742C399.229 7.99414 400.1 7.18848 401.301 7.18848C401.55 7.18848 402.004 7.23242 402.107 7.26172V6.00195C401.946 5.97998 401.682 5.96533 401.477 5.96533C400.43 5.96533 399.521 6.50732 399.287 7.27637H399.17V6.10449H397.969V14ZM403.352 8.26514C403.352 9.40771 404.026 10.0449 405.505 10.4038L406.86 10.7334C407.703 10.9385 408.113 11.3047 408.113 11.8467C408.113 12.5718 407.351 13.0771 406.289 13.0771C405.278 13.0771 404.648 12.6523 404.436 11.9858H403.14C403.279 13.2969 404.487 14.1392 406.245 14.1392C408.04 14.1392 409.409 13.165 409.409 11.7515C409.409 10.6162 408.691 9.97168 407.205 9.61279L405.989 9.31982C405.059 9.09277 404.619 8.75586 404.619 8.21387C404.619 7.51074 405.352 7.03467 406.289 7.03467C407.241 7.03467 407.856 7.45215 408.025 8.08203H409.27C409.102 6.78564 407.952 5.96533 406.296 5.96533C404.619 5.96533 403.352 6.9541 403.352 8.26514ZM415.437 8.26514C415.437 9.40771 416.111 10.0449 417.59 10.4038L418.945 10.7334C419.788 10.9385 420.198 11.3047 420.198 11.8467C420.198 12.5718 419.436 13.0771 418.374 13.0771C417.363 13.0771 416.733 12.6523 416.521 11.9858H415.225C415.364 13.2969 416.572 14.1392 418.33 14.1392C420.125 14.1392 421.494 13.165 421.494 11.7515C421.494 10.6162 420.776 9.97168 419.29 9.61279L418.074 9.31982C417.144 9.09277 416.704 8.75586 416.704 8.21387C416.704 7.51074 417.437 7.03467 418.374 7.03467C419.326 7.03467 419.941 7.45215 420.11 8.08203H421.355C421.187 6.78564 420.037 5.96533 418.381 5.96533C416.704 5.96533 415.437 6.9541 415.437 8.26514ZM423.545 14H424.805V9.32715C424.805 7.99414 425.581 7.10059 426.995 7.10059C428.188 7.10059 428.818 7.79639 428.818 9.19531V14H430.078V8.8877C430.078 7.03467 429.023 5.96533 427.354 5.96533C426.145 5.96533 425.317 6.47803 424.922 7.34961H424.805V2.96973H423.545V14ZM434.81 13.0332C433.894 13.0332 433.213 12.5645 433.213 11.7588C433.213 10.9678 433.74 10.5503 434.941 10.4697L437.065 10.3306V11.0557C437.065 12.1836 436.106 13.0332 434.81 13.0332ZM434.575 14.1392C435.63 14.1392 436.494 13.6777 437.007 12.8354H437.124V14H438.325V8.59473C438.325 6.9541 437.249 5.96533 435.322 5.96533C433.638 5.96533 432.393 6.80029 432.224 8.06738H433.499C433.674 7.44482 434.333 7.08594 435.278 7.08594C436.458 7.08594 437.065 7.62061 437.065 8.59473V9.3125L434.788 9.45166C432.949 9.56152 431.909 10.3745 431.909 11.7881C431.909 13.231 433.044 14.1392 434.575 14.1392ZM440.654 14H441.914V9.10742C441.914 7.99414 442.786 7.18848 443.987 7.18848C444.236 7.18848 444.69 7.23242 444.792 7.26172V6.00195C444.631 5.97998 444.368 5.96533 444.163 5.96533C443.115 5.96533 442.207 6.50732 441.973 7.27637H441.855V6.10449H440.654V14ZM449.297 7.07861C450.549 7.07861 451.384 8.00146 451.414 9.40039H447.063C447.158 8.00146 448.037 7.07861 449.297 7.07861ZM451.377 11.9565C451.047 12.6523 450.359 13.0259 449.341 13.0259C448 13.0259 447.129 12.0371 447.063 10.4771V10.4185H452.739V9.93506C452.739 7.48145 451.443 5.96533 449.312 5.96533C447.144 5.96533 445.752 7.57666 445.752 10.0596C445.752 12.5571 447.122 14.1392 449.312 14.1392C451.04 14.1392 452.256 13.3115 452.637 11.9565H451.377ZM459.023 14H460.283V9.32715C460.283 7.99414 461.06 7.10059 462.473 7.10059C463.667 7.10059 464.297 7.79639 464.297 9.19531V14H465.557V8.8877C465.557 7.03467 464.502 5.96533 462.832 5.96533C461.624 5.96533 460.796 6.47803 460.4 7.34961H460.283V2.96973H459.023V14ZM471.101 14.1392C473.35 14.1392 474.741 12.5864 474.741 10.0522C474.741 7.51074 473.35 5.96533 471.101 5.96533C468.853 5.96533 467.461 7.51074 467.461 10.0522C467.461 12.5864 468.853 14.1392 471.101 14.1392ZM471.101 13.0039C469.607 13.0039 468.765 11.9199 468.765 10.0522C468.765 8.17725 469.607 7.10059 471.101 7.10059C472.595 7.10059 473.438 8.17725 473.438 10.0522C473.438 11.9199 472.595 13.0039 471.101 13.0039ZM486.357 6.10449H485.09L483.538 12.418H483.42L481.655 6.10449H480.447L478.682 12.418H478.564L477.012 6.10449H475.737L477.949 14H479.224L480.981 7.8916H481.099L482.864 14H484.146L486.357 6.10449ZM492.305 14H493.564V6.10449H492.305V14ZM492.935 4.50049C493.418 4.50049 493.813 4.10498 493.813 3.62158C493.813 3.13818 493.418 2.74268 492.935 2.74268C492.451 2.74268 492.056 3.13818 492.056 3.62158C492.056 4.10498 492.451 4.50049 492.935 4.50049ZM496.494 4.06104V6.10449H495.22V7.15918H496.494V11.9492C496.494 13.458 497.146 14.0586 498.772 14.0586C499.021 14.0586 499.263 14.0293 499.512 13.9854V12.9233C499.277 12.9453 499.153 12.9526 498.926 12.9526C498.105 12.9526 497.754 12.5571 497.754 11.627V7.15918H499.512V6.10449H497.754V4.06104H496.494ZM1.25977 32H2.51953V27.3271C2.51953 25.9941 3.2959 25.1006 4.70947 25.1006C5.90332 25.1006 6.5332 25.7964 6.5332 27.1953V32H7.79297V26.8877C7.79297 25.0347 6.73828 23.9653 5.06836 23.9653C3.85986 23.9653 3.03223 24.478 2.63672 25.3496H2.51953V20.9697H1.25977V32ZM12.5244 31.0332C11.6089 31.0332 10.9277 30.5645 10.9277 29.7588C10.9277 28.9678 11.4551 28.5503 12.6562 28.4697L14.7803 28.3306V29.0557C14.7803 30.1836 13.8208 31.0332 12.5244 31.0332ZM12.29 32.1392C13.3447 32.1392 14.209 31.6777 14.7217 30.8354H14.8389V32H16.04V26.5947C16.04 24.9541 14.9634 23.9653 13.0371 23.9653C11.3525 23.9653 10.1074 24.8003 9.93896 26.0674H11.2134C11.3892 25.4448 12.0483 25.0859 12.9932 25.0859C14.1724 25.0859 14.7803 25.6206 14.7803 26.5947V27.3125L12.5024 27.4517C10.6641 27.5615 9.62402 28.3745 9.62402 29.7881C9.62402 31.231 10.7593 32.1392 12.29 32.1392ZM18.186 26.2651C18.186 27.4077 18.8599 28.0449 20.3394 28.4038L21.6943 28.7334C22.5366 28.9385 22.9468 29.3047 22.9468 29.8467C22.9468 30.5718 22.1851 31.0771 21.123 31.0771C20.1123 31.0771 19.4824 30.6523 19.27 29.9858H17.9736C18.1128 31.2969 19.3213 32.1392 21.0791 32.1392C22.8735 32.1392 24.2432 31.165 24.2432 29.7515C24.2432 28.6162 23.5254 27.9717 22.0386 27.6128L20.8228 27.3198C19.8926 27.0928 19.4531 26.7559 19.4531 26.2139C19.4531 25.5107 20.1855 25.0347 21.123 25.0347C22.0752 25.0347 22.6904 25.4521 22.8589 26.082H24.104C23.9355 24.7856 22.7856 23.9653 21.1304 23.9653C19.4531 23.9653 18.186 24.9541 18.186 26.2651ZM30.5273 32H31.7871V27.3271C31.7871 25.9941 32.5635 25.1006 33.9771 25.1006C35.1709 25.1006 35.8008 25.7964 35.8008 27.1953V32H37.0605V26.8877C37.0605 25.0347 36.0059 23.9653 34.3359 23.9653C33.1274 23.9653 32.2998 24.478 31.9043 25.3496H31.7871V20.9697H30.5273V32ZM42.5098 25.0786C43.7622 25.0786 44.5972 26.0015 44.6265 27.4004H40.2759C40.3711 26.0015 41.25 25.0786 42.5098 25.0786ZM44.5898 29.9565C44.2603 30.6523 43.5718 31.0259 42.5537 31.0259C41.2134 31.0259 40.3418 30.0371 40.2759 28.4771V28.4185H45.9521V27.9351C45.9521 25.4814 44.6558 23.9653 42.5244 23.9653C40.3564 23.9653 38.9648 25.5767 38.9648 28.0596C38.9648 30.5571 40.3345 32.1392 42.5244 32.1392C44.2529 32.1392 45.4688 31.3115 45.8496 29.9565H44.5898ZM48.0029 32H49.2627V20.9697H48.0029V32ZM55.5542 23.9653C54.4775 23.9653 53.5327 24.5146 53.0273 25.4229H52.9102V24.1045H51.709V34.6367H52.9688V30.8135H53.0859C53.5181 31.6484 54.4263 32.1392 55.5542 32.1392C57.561 32.1392 58.8721 30.5205 58.8721 28.0522C58.8721 25.5693 57.5684 23.9653 55.5542 23.9653ZM55.2539 31.0039C53.833 31.0039 52.9321 29.8613 52.9321 28.0522C52.9321 26.2358 53.833 25.1006 55.2612 25.1006C56.7041 25.1006 57.5684 26.2065 57.5684 28.0522C57.5684 29.8979 56.7041 31.0039 55.2539 31.0039ZM63.999 25.0786C65.2515 25.0786 66.0864 26.0015 66.1157 27.4004H61.7651C61.8604 26.0015 62.7393 25.0786 63.999 25.0786ZM66.0791 29.9565C65.7495 30.6523 65.061 31.0259 64.043 31.0259C62.7026 31.0259 61.8311 30.0371 61.7651 28.4771V28.4185H67.4414V27.9351C67.4414 25.4814 66.145 23.9653 64.0137 23.9653C61.8457 23.9653 60.4541 25.5767 60.4541 28.0596C60.4541 30.5571 61.8237 32.1392 64.0137 32.1392C65.7422 32.1392 66.958 31.3115 67.3389 29.9565H66.0791ZM72.3413 32.1392C73.4326 32.1392 74.3701 31.6191 74.8682 30.7402H74.9854V32H76.1865V20.9697H74.9268V25.3496H74.8169C74.3701 24.4854 73.4399 23.9653 72.3413 23.9653C70.3345 23.9653 69.0234 25.5767 69.0234 28.0522C69.0234 30.5352 70.3198 32.1392 72.3413 32.1392ZM72.6343 25.1006C74.0625 25.1006 74.9561 26.2432 74.9561 28.0522C74.9561 29.876 74.0698 31.0039 72.6343 31.0039C71.1914 31.0039 70.3271 29.8979 70.3271 28.0522C70.3271 26.2139 71.1987 25.1006 72.6343 25.1006ZM83.3936 22.061V24.1045H82.1191V25.1592H83.3936V29.9492C83.3936 31.458 84.0454 32.0586 85.6714 32.0586C85.9204 32.0586 86.1621 32.0293 86.4111 31.9854V30.9233C86.1768 30.9453 86.0522 30.9526 85.8252 30.9526C85.0049 30.9526 84.6533 30.5571 84.6533 29.627V25.1592H86.4111V24.1045H84.6533V22.061H83.3936ZM88.3887 32H89.6484V27.3271C89.6484 25.9941 90.4248 25.1006 91.8384 25.1006C93.0322 25.1006 93.6621 25.7964 93.6621 27.1953V32H94.9219V26.8877C94.9219 25.0347 93.8672 23.9653 92.1973 23.9653C90.9888 23.9653 90.1611 24.478 89.7656 25.3496H89.6484V20.9697H88.3887V32ZM100.371 25.0786C101.624 25.0786 102.458 26.0015 102.488 27.4004H98.1372C98.2324 26.0015 99.1113 25.0786 100.371 25.0786ZM102.451 29.9565C102.122 30.6523 101.433 31.0259 100.415 31.0259C99.0747 31.0259 98.2031 30.0371 98.1372 28.4771V28.4185H103.813V27.9351C103.813 25.4814 102.517 23.9653 100.386 23.9653C98.2178 23.9653 96.8262 25.5767 96.8262 28.0596C96.8262 30.5571 98.1958 32.1392 100.386 32.1392C102.114 32.1392 103.33 31.3115 103.711 29.9565H102.451ZM105.791 32H107.051V27.1074C107.051 25.9941 107.849 25.1006 108.882 25.1006C109.878 25.1006 110.53 25.7012 110.53 26.6387V32H111.79V26.9243C111.79 25.9209 112.522 25.1006 113.621 25.1006C114.734 25.1006 115.283 25.6719 115.283 26.8364V32H116.543V26.5435C116.543 24.8882 115.642 23.9653 114.031 23.9653C112.939 23.9653 112.039 24.5146 111.614 25.3496H111.497C111.13 24.5293 110.383 23.9653 109.314 23.9653C108.259 23.9653 107.468 24.4707 107.109 25.3496H106.992V24.1045H105.791V32ZM123.076 32H124.336V27.1074C124.336 25.9941 125.208 25.1885 126.409 25.1885C126.658 25.1885 127.112 25.2324 127.214 25.2617V24.002C127.053 23.98 126.79 23.9653 126.584 23.9653C125.537 23.9653 124.629 24.5073 124.395 25.2764H124.277V24.1045H123.076V32ZM131.719 25.0786C132.971 25.0786 133.806 26.0015 133.835 27.4004H129.485C129.58 26.0015 130.459 25.0786 131.719 25.0786ZM133.799 29.9565C133.469 30.6523 132.781 31.0259 131.763 31.0259C130.422 31.0259 129.551 30.0371 129.485 28.4771V28.4185H135.161V27.9351C135.161 25.4814 133.865 23.9653 131.733 23.9653C129.565 23.9653 128.174 25.5767 128.174 28.0596C128.174 30.5571 129.543 32.1392 131.733 32.1392C133.462 32.1392 134.678 31.3115 135.059 29.9565H133.799ZM141.892 28.3452V27.1514H137.087V28.3452H141.892ZM147.363 25.0786C148.616 25.0786 149.451 26.0015 149.48 27.4004H145.129C145.225 26.0015 146.104 25.0786 147.363 25.0786ZM149.443 29.9565C149.114 30.6523 148.425 31.0259 147.407 31.0259C146.067 31.0259 145.195 30.0371 145.129 28.4771V28.4185H150.806V27.9351C150.806 25.4814 149.509 23.9653 147.378 23.9653C145.21 23.9653 143.818 25.5767 143.818 28.0596C143.818 30.5571 145.188 32.1392 147.378 32.1392C149.106 32.1392 150.322 31.3115 150.703 29.9565H149.443ZM152.6 26.2651C152.6 27.4077 153.274 28.0449 154.753 28.4038L156.108 28.7334C156.951 28.9385 157.361 29.3047 157.361 29.8467C157.361 30.5718 156.599 31.0771 155.537 31.0771C154.526 31.0771 153.896 30.6523 153.684 29.9858H152.388C152.527 31.2969 153.735 32.1392 155.493 32.1392C157.288 32.1392 158.657 31.165 158.657 29.7515C158.657 28.6162 157.939 27.9717 156.453 27.6128L155.237 27.3198C154.307 27.0928 153.867 26.7559 153.867 26.2139C153.867 25.5107 154.6 25.0347 155.537 25.0347C156.489 25.0347 157.104 25.4521 157.273 26.082H158.518C158.35 24.7856 157.2 23.9653 155.544 23.9653C153.867 23.9653 152.6 24.9541 152.6 26.2651ZM161.089 22.061V24.1045H159.814V25.1592H161.089V29.9492C161.089 31.458 161.741 32.0586 163.367 32.0586C163.616 32.0586 163.857 32.0293 164.106 31.9854V30.9233C163.872 30.9453 163.748 30.9526 163.521 30.9526C162.7 30.9526 162.349 30.5571 162.349 29.627V25.1592H164.106V24.1045H162.349V22.061H161.089ZM168.442 31.0332C167.527 31.0332 166.846 30.5645 166.846 29.7588C166.846 28.9678 167.373 28.5503 168.574 28.4697L170.698 28.3306V29.0557C170.698 30.1836 169.739 31.0332 168.442 31.0332ZM168.208 32.1392C169.263 32.1392 170.127 31.6777 170.64 30.8354H170.757V32H171.958V26.5947C171.958 24.9541 170.881 23.9653 168.955 23.9653C167.271 23.9653 166.025 24.8003 165.857 26.0674H167.131C167.307 25.4448 167.966 25.0859 168.911 25.0859C170.09 25.0859 170.698 25.6206 170.698 26.5947V27.3125L168.42 27.4517C166.582 27.5615 165.542 28.3745 165.542 29.7881C165.542 31.231 166.677 32.1392 168.208 32.1392ZM178.213 32.1392C180.212 32.1392 181.523 30.5205 181.523 28.0522C181.523 25.5693 180.22 23.9653 178.213 23.9653C177.129 23.9653 176.169 24.5 175.737 25.3496H175.62V20.9697H174.36V32H175.562V30.7402H175.679C176.177 31.6191 177.114 32.1392 178.213 32.1392ZM177.92 25.1006C179.363 25.1006 180.22 26.2065 180.22 28.0522C180.22 29.8979 179.363 31.0039 177.92 31.0039C176.484 31.0039 175.591 29.876 175.591 28.0522C175.591 26.2285 176.484 25.1006 177.92 25.1006ZM183.574 32H184.834V20.9697H183.574V32ZM187.31 32H188.569V24.1045H187.31V32ZM187.939 22.5005C188.423 22.5005 188.818 22.105 188.818 21.6216C188.818 21.1382 188.423 20.7427 187.939 20.7427C187.456 20.7427 187.061 21.1382 187.061 21.6216C187.061 22.105 187.456 22.5005 187.939 22.5005ZM190.789 26.2651C190.789 27.4077 191.462 28.0449 192.942 28.4038L194.297 28.7334C195.139 28.9385 195.549 29.3047 195.549 29.8467C195.549 30.5718 194.788 31.0771 193.726 31.0771C192.715 31.0771 192.085 30.6523 191.873 29.9858H190.576C190.715 31.2969 191.924 32.1392 193.682 32.1392C195.476 32.1392 196.846 31.165 196.846 29.7515C196.846 28.6162 196.128 27.9717 194.641 27.6128L193.425 27.3198C192.495 27.0928 192.056 26.7559 192.056 26.2139C192.056 25.5107 192.788 25.0347 193.726 25.0347C194.678 25.0347 195.293 25.4521 195.461 26.082H196.707C196.538 24.7856 195.388 23.9653 193.733 23.9653C192.056 23.9653 190.789 24.9541 190.789 26.2651ZM198.896 32H200.156V27.3271C200.156 25.9941 200.933 25.1006 202.346 25.1006C203.54 25.1006 204.17 25.7964 204.17 27.1953V32H205.43V26.8877C205.43 25.0347 204.375 23.9653 202.705 23.9653C201.497 23.9653 200.669 24.478 200.273 25.3496H200.156V20.9697H198.896V32ZM208.528 34.688L209.678 30.5205H208.279L207.583 34.688H208.528ZM218.848 31.0332C217.932 31.0332 217.251 30.5645 217.251 29.7588C217.251 28.9678 217.778 28.5503 218.979 28.4697L221.104 28.3306V29.0557C221.104 30.1836 220.144 31.0332 218.848 31.0332ZM218.613 32.1392C219.668 32.1392 220.532 31.6777 221.045 30.8354H221.162V32H222.363V26.5947C222.363 24.9541 221.287 23.9653 219.36 23.9653C217.676 23.9653 216.431 24.8003 216.262 26.0674H217.537C217.712 25.4448 218.372 25.0859 219.316 25.0859C220.496 25.0859 221.104 25.6206 221.104 26.5947V27.3125L218.826 27.4517C216.987 27.5615 215.947 28.3745 215.947 29.7881C215.947 31.231 217.083 32.1392 218.613 32.1392ZM224.692 32H225.952V27.3271C225.952 25.9429 226.765 25.1006 228.025 25.1006C229.285 25.1006 229.885 25.7744 229.885 27.1953V32H231.145V26.8877C231.145 25.0127 230.156 23.9653 228.384 23.9653C227.175 23.9653 226.406 24.478 226.011 25.3496H225.894V24.1045H224.692V32ZM236.375 32.1392C237.466 32.1392 238.403 31.6191 238.901 30.7402H239.019V32H240.22V20.9697H238.96V25.3496H238.85C238.403 24.4854 237.473 23.9653 236.375 23.9653C234.368 23.9653 233.057 25.5767 233.057 28.0522C233.057 30.5352 234.353 32.1392 236.375 32.1392ZM236.667 25.1006C238.096 25.1006 238.989 26.2432 238.989 28.0522C238.989 29.876 238.103 31.0039 236.667 31.0039C235.225 31.0039 234.36 29.8979 234.36 28.0522C234.36 26.2139 235.232 25.1006 236.667 25.1006ZM246.899 32H248.159V27.1074C248.159 25.9941 249.031 25.1885 250.232 25.1885C250.481 25.1885 250.935 25.2324 251.038 25.2617V24.002C250.876 23.98 250.613 23.9653 250.408 23.9653C249.36 23.9653 248.452 24.5073 248.218 25.2764H248.101V24.1045H246.899V32ZM255.542 25.0786C256.794 25.0786 257.629 26.0015 257.659 27.4004H253.308C253.403 26.0015 254.282 25.0786 255.542 25.0786ZM257.622 29.9565C257.292 30.6523 256.604 31.0259 255.586 31.0259C254.246 31.0259 253.374 30.0371 253.308 28.4771V28.4185H258.984V27.9351C258.984 25.4814 257.688 23.9653 255.557 23.9653C253.389 23.9653 251.997 25.5767 251.997 28.0596C251.997 30.5571 253.367 32.1392 255.557 32.1392C257.285 32.1392 258.501 31.3115 258.882 29.9565H257.622ZM260.991 32H262.251V24.1045H260.991V32ZM261.621 22.5005C262.104 22.5005 262.5 22.105 262.5 21.6216C262.5 21.1382 262.104 20.7427 261.621 20.7427C261.138 20.7427 260.742 21.1382 260.742 21.6216C260.742 22.105 261.138 22.5005 261.621 22.5005ZM264.653 32H265.913V27.1074C265.913 25.9941 266.711 25.1006 267.744 25.1006C268.74 25.1006 269.392 25.7012 269.392 26.6387V32H270.652V26.9243C270.652 25.9209 271.384 25.1006 272.483 25.1006C273.596 25.1006 274.146 25.6719 274.146 26.8364V32H275.405V26.5435C275.405 24.8882 274.504 23.9653 272.893 23.9653C271.802 23.9653 270.901 24.5146 270.476 25.3496H270.359C269.993 24.5293 269.246 23.9653 268.176 23.9653C267.122 23.9653 266.331 24.4707 265.972 25.3496H265.854V24.1045H264.653V32ZM280.137 31.0332C279.221 31.0332 278.54 30.5645 278.54 29.7588C278.54 28.9678 279.067 28.5503 280.269 28.4697L282.393 28.3306V29.0557C282.393 30.1836 281.433 31.0332 280.137 31.0332ZM279.902 32.1392C280.957 32.1392 281.821 31.6777 282.334 30.8354H282.451V32H283.652V26.5947C283.652 24.9541 282.576 23.9653 280.649 23.9653C278.965 23.9653 277.72 24.8003 277.551 26.0674H278.826C279.001 25.4448 279.661 25.0859 280.605 25.0859C281.785 25.0859 282.393 25.6206 282.393 26.5947V27.3125L280.115 27.4517C278.276 27.5615 277.236 28.3745 277.236 29.7881C277.236 31.231 278.372 32.1392 279.902 32.1392ZM289.175 30.7695C287.71 30.7695 286.89 29.6562 286.89 27.9351C286.89 26.2139 287.71 25.1006 289.175 25.1006C290.632 25.1006 291.519 26.2139 291.519 27.9351C291.519 29.6562 290.64 30.7695 289.175 30.7695ZM289.233 35.0322C291.387 35.0322 292.749 33.9043 292.749 32.1392V24.1045H291.548V25.3569H291.431C290.977 24.5073 290.002 23.9653 288.896 23.9653C286.868 23.9653 285.586 25.5693 285.586 27.9351C285.586 30.3008 286.853 31.8828 288.896 31.8828C289.98 31.8828 290.874 31.3921 291.372 30.5205H291.489V32.0732C291.489 33.2378 290.647 33.9336 289.233 33.9336C288.098 33.9336 287.395 33.5161 287.256 32.8716H285.923C286.113 34.1753 287.329 35.0322 289.233 35.0322ZM295.151 32H296.411V24.1045H295.151V32ZM295.781 22.5005C296.265 22.5005 296.66 22.105 296.66 21.6216C296.66 21.1382 296.265 20.7427 295.781 20.7427C295.298 20.7427 294.902 21.1382 294.902 21.6216C294.902 22.105 295.298 22.5005 295.781 22.5005ZM298.813 32H300.073V27.3271C300.073 25.9429 300.886 25.1006 302.146 25.1006C303.406 25.1006 304.006 25.7744 304.006 27.1953V32H305.266V26.8877C305.266 25.0127 304.277 23.9653 302.505 23.9653C301.296 23.9653 300.527 24.478 300.132 25.3496H300.015V24.1045H298.813V32ZM310.723 25.0786C311.975 25.0786 312.81 26.0015 312.839 27.4004H308.489C308.584 26.0015 309.463 25.0786 310.723 25.0786ZM312.803 29.9565C312.473 30.6523 311.785 31.0259 310.767 31.0259C309.426 31.0259 308.555 30.0371 308.489 28.4771V28.4185H314.165V27.9351C314.165 25.4814 312.869 23.9653 310.737 23.9653C308.569 23.9653 307.178 25.5767 307.178 28.0596C307.178 30.5571 308.547 32.1392 310.737 32.1392C312.466 32.1392 313.682 31.3115 314.062 29.9565H312.803ZM316.941 34.688L318.091 30.5205H316.692L315.996 34.688H316.941ZM327.261 31.0332C326.345 31.0332 325.664 30.5645 325.664 29.7588C325.664 28.9678 326.191 28.5503 327.393 28.4697L329.517 28.3306V29.0557C329.517 30.1836 328.557 31.0332 327.261 31.0332ZM327.026 32.1392C328.081 32.1392 328.945 31.6777 329.458 30.8354H329.575V32H330.776V26.5947C330.776 24.9541 329.7 23.9653 327.773 23.9653C326.089 23.9653 324.844 24.8003 324.675 26.0674H325.95C326.125 25.4448 326.785 25.0859 327.729 25.0859C328.909 25.0859 329.517 25.6206 329.517 26.5947V27.3125L327.239 27.4517C325.4 27.5615 324.36 28.3745 324.36 29.7881C324.36 31.231 325.496 32.1392 327.026 32.1392ZM343.872 26.5215C343.652 25.1152 342.48 23.9653 340.562 23.9653C338.35 23.9653 336.943 25.562 336.943 28.0229C336.943 30.5352 338.357 32.1392 340.569 32.1392C342.466 32.1392 343.645 31.0698 343.872 29.6196H342.598C342.363 30.5132 341.624 31.0039 340.562 31.0039C339.155 31.0039 338.247 29.8467 338.247 28.0229C338.247 26.2358 339.141 25.1006 340.562 25.1006C341.697 25.1006 342.393 25.7378 342.598 26.5215H343.872ZM348.977 32.1392C351.226 32.1392 352.617 30.5864 352.617 28.0522C352.617 25.5107 351.226 23.9653 348.977 23.9653C346.729 23.9653 345.337 25.5107 345.337 28.0522C345.337 30.5864 346.729 32.1392 348.977 32.1392ZM348.977 31.0039C347.483 31.0039 346.641 29.9199 346.641 28.0522C346.641 26.1772 347.483 25.1006 348.977 25.1006C350.471 25.1006 351.313 26.1772 351.313 28.0522C351.313 29.9199 350.471 31.0039 348.977 31.0039ZM354.595 32H355.854V27.3271C355.854 25.9429 356.667 25.1006 357.927 25.1006C359.187 25.1006 359.788 25.7744 359.788 27.1953V32H361.047V26.8877C361.047 25.0127 360.059 23.9653 358.286 23.9653C357.078 23.9653 356.309 24.478 355.913 25.3496H355.796V24.1045H354.595V32ZM363.354 32H364.614V27.3271C364.614 25.9429 365.427 25.1006 366.687 25.1006C367.947 25.1006 368.547 25.7744 368.547 27.1953V32H369.807V26.8877C369.807 25.0127 368.818 23.9653 367.046 23.9653C365.837 23.9653 365.068 24.478 364.673 25.3496H364.556V24.1045H363.354V32ZM375.264 25.0786C376.516 25.0786 377.351 26.0015 377.38 27.4004H373.03C373.125 26.0015 374.004 25.0786 375.264 25.0786ZM377.344 29.9565C377.014 30.6523 376.326 31.0259 375.308 31.0259C373.967 31.0259 373.096 30.0371 373.03 28.4771V28.4185H378.706V27.9351C378.706 25.4814 377.41 23.9653 375.278 23.9653C373.11 23.9653 371.719 25.5767 371.719 28.0596C371.719 30.5571 373.088 32.1392 375.278 32.1392C377.007 32.1392 378.223 31.3115 378.604 29.9565H377.344ZM387.217 26.5215C386.997 25.1152 385.825 23.9653 383.906 23.9653C381.694 23.9653 380.288 25.562 380.288 28.0229C380.288 30.5352 381.702 32.1392 383.914 32.1392C385.811 32.1392 386.99 31.0698 387.217 29.6196H385.942C385.708 30.5132 384.968 31.0039 383.906 31.0039C382.5 31.0039 381.592 29.8467 381.592 28.0229C381.592 26.2358 382.485 25.1006 383.906 25.1006C385.042 25.1006 385.737 25.7378 385.942 26.5215H387.217ZM389.751 22.061V24.1045H388.477V25.1592H389.751V29.9492C389.751 31.458 390.403 32.0586 392.029 32.0586C392.278 32.0586 392.52 32.0293 392.769 31.9854V30.9233C392.534 30.9453 392.41 30.9526 392.183 30.9526C391.362 30.9526 391.011 30.5571 391.011 29.627V25.1592H392.769V24.1045H391.011V22.061H389.751ZM394.702 32H395.962V24.1045H394.702V32ZM395.332 22.5005C395.815 22.5005 396.211 22.105 396.211 21.6216C396.211 21.1382 395.815 20.7427 395.332 20.7427C394.849 20.7427 394.453 21.1382 394.453 21.6216C394.453 22.105 394.849 22.5005 395.332 22.5005ZM401.609 32.1392C403.857 32.1392 405.249 30.5864 405.249 28.0522C405.249 25.5107 403.857 23.9653 401.609 23.9653C399.36 23.9653 397.969 25.5107 397.969 28.0522C397.969 30.5864 399.36 32.1392 401.609 32.1392ZM401.609 31.0039C400.115 31.0039 399.272 29.9199 399.272 28.0522C399.272 26.1772 400.115 25.1006 401.609 25.1006C403.103 25.1006 403.945 26.1772 403.945 28.0522C403.945 29.9199 403.103 31.0039 401.609 31.0039ZM407.227 32H408.486V27.3271C408.486 25.9429 409.299 25.1006 410.559 25.1006C411.819 25.1006 412.419 25.7744 412.419 27.1953V32H413.679V26.8877C413.679 25.0127 412.69 23.9653 410.918 23.9653C409.709 23.9653 408.94 24.478 408.545 25.3496H408.428V24.1045H407.227V32ZM420.747 22.061V24.1045H419.473V25.1592H420.747V29.9492C420.747 31.458 421.399 32.0586 423.025 32.0586C423.274 32.0586 423.516 32.0293 423.765 31.9854V30.9233C423.53 30.9453 423.406 30.9526 423.179 30.9526C422.358 30.9526 422.007 30.5571 422.007 29.627V25.1592H423.765V24.1045H422.007V22.061H420.747ZM428.796 32.1392C431.045 32.1392 432.437 30.5864 432.437 28.0522C432.437 25.5107 431.045 23.9653 428.796 23.9653C426.548 23.9653 425.156 25.5107 425.156 28.0522C425.156 30.5864 426.548 32.1392 428.796 32.1392ZM428.796 31.0039C427.302 31.0039 426.46 29.9199 426.46 28.0522C426.46 26.1772 427.302 25.1006 428.796 25.1006C430.291 25.1006 431.133 26.1772 431.133 28.0522C431.133 29.9199 430.291 31.0039 428.796 31.0039ZM7.71973 44.5215C7.5 43.1152 6.32812 41.9653 4.40918 41.9653C2.19727 41.9653 0.791016 43.562 0.791016 46.0229C0.791016 48.5352 2.20459 50.1392 4.4165 50.1392C6.31348 50.1392 7.49268 49.0698 7.71973 47.6196H6.44531C6.21094 48.5132 5.47119 49.0039 4.40918 49.0039C3.00293 49.0039 2.09473 47.8467 2.09473 46.0229C2.09473 44.2358 2.98828 43.1006 4.40918 43.1006C5.54443 43.1006 6.24023 43.7378 6.44531 44.5215H7.71973ZM15.9668 42.1045H14.707V46.7773C14.707 48.1616 13.9453 48.9893 12.5537 48.9893C11.2939 48.9893 10.7666 48.3301 10.7666 46.9092V42.1045H9.50684V47.2168C9.50684 49.0845 10.4297 50.1392 12.2021 50.1392C13.4106 50.1392 14.2529 49.6411 14.6484 48.7622H14.7656V50H15.9668V42.1045ZM18.4131 50H19.6729V38.9697H18.4131V50ZM22.6465 40.061V42.1045H21.3721V43.1592H22.6465V47.9492C22.6465 49.458 23.2983 50.0586 24.9243 50.0586C25.1733 50.0586 25.415 50.0293 25.6641 49.9854V48.9233C25.4297 48.9453 25.3052 48.9526 25.0781 48.9526C24.2578 48.9526 23.9062 48.5571 23.9062 47.627V43.1592H25.6641V42.1045H23.9062V40.061H22.6465ZM27.5977 50H28.8574V42.1045H27.5977V50ZM28.2275 40.5005C28.7109 40.5005 29.1064 40.105 29.1064 39.6216C29.1064 39.1382 28.7109 38.7427 28.2275 38.7427C27.7441 38.7427 27.3486 39.1382 27.3486 39.6216C27.3486 40.105 27.7441 40.5005 28.2275 40.5005ZM37.7051 42.1045H36.3574L34.1968 48.6084H34.0796L31.9189 42.1045H30.5713L33.4937 50H34.7827L37.7051 42.1045ZM41.5283 49.0332C40.6128 49.0332 39.9316 48.5645 39.9316 47.7588C39.9316 46.9678 40.459 46.5503 41.6602 46.4697L43.7842 46.3306V47.0557C43.7842 48.1836 42.8247 49.0332 41.5283 49.0332ZM41.2939 50.1392C42.3486 50.1392 43.2129 49.6777 43.7256 48.8354H43.8428V50H45.0439V44.5947C45.0439 42.9541 43.9673 41.9653 42.041 41.9653C40.3564 41.9653 39.1113 42.8003 38.9429 44.0674H40.2173C40.3931 43.4448 41.0522 43.0859 41.9971 43.0859C43.1763 43.0859 43.7842 43.6206 43.7842 44.5947V45.3125L41.5063 45.4517C39.668 45.5615 38.6279 46.3745 38.6279 47.7881C38.6279 49.231 39.7632 50.1392 41.2939 50.1392ZM47.9004 40.061V42.1045H46.626V43.1592H47.9004V47.9492C47.9004 49.458 48.5522 50.0586 50.1782 50.0586C50.4272 50.0586 50.6689 50.0293 50.918 49.9854V48.9233C50.6836 48.9453 50.5591 48.9526 50.332 48.9526C49.5117 48.9526 49.1602 48.5571 49.1602 47.627V43.1592H50.918V42.1045H49.1602V40.061H47.9004ZM52.8516 50H54.1113V42.1045H52.8516V50ZM53.4814 40.5005C53.9648 40.5005 54.3604 40.105 54.3604 39.6216C54.3604 39.1382 53.9648 38.7427 53.4814 38.7427C52.998 38.7427 52.6025 39.1382 52.6025 39.6216C52.6025 40.105 52.998 40.5005 53.4814 40.5005ZM59.7583 50.1392C62.0068 50.1392 63.3984 48.5864 63.3984 46.0522C63.3984 43.5107 62.0068 41.9653 59.7583 41.9653C57.5098 41.9653 56.1182 43.5107 56.1182 46.0522C56.1182 48.5864 57.5098 50.1392 59.7583 50.1392ZM59.7583 49.0039C58.2642 49.0039 57.4219 47.9199 57.4219 46.0522C57.4219 44.1772 58.2642 43.1006 59.7583 43.1006C61.2524 43.1006 62.0947 44.1772 62.0947 46.0522C62.0947 47.9199 61.2524 49.0039 59.7583 49.0039ZM65.376 50H66.6357V45.3271C66.6357 43.9429 67.4487 43.1006 68.7085 43.1006C69.9683 43.1006 70.5688 43.7744 70.5688 45.1953V50H71.8286V44.8877C71.8286 43.0127 70.8398 41.9653 69.0674 41.9653C67.8589 41.9653 67.0898 42.478 66.6943 43.3496H66.5771V42.1045H65.376V50ZM80.8008 49.0332C79.8853 49.0332 79.2041 48.5645 79.2041 47.7588C79.2041 46.9678 79.7314 46.5503 80.9326 46.4697L83.0566 46.3306V47.0557C83.0566 48.1836 82.0972 49.0332 80.8008 49.0332ZM80.5664 50.1392C81.6211 50.1392 82.4854 49.6777 82.998 48.8354H83.1152V50H84.3164V44.5947C84.3164 42.9541 83.2397 41.9653 81.3135 41.9653C79.6289 41.9653 78.3838 42.8003 78.2153 44.0674H79.4897C79.6655 43.4448 80.3247 43.0859 81.2695 43.0859C82.4487 43.0859 83.0566 43.6206 83.0566 44.5947V45.3125L80.7788 45.4517C78.9404 45.5615 77.9004 46.3745 77.9004 47.7881C77.9004 49.231 79.0356 50.1392 80.5664 50.1392ZM86.6455 50H87.9053V45.3271C87.9053 43.9429 88.7183 43.1006 89.978 43.1006C91.2378 43.1006 91.8384 43.7744 91.8384 45.1953V50H93.0981V44.8877C93.0981 43.0127 92.1094 41.9653 90.3369 41.9653C89.1284 41.9653 88.3594 42.478 87.9639 43.3496H87.8467V42.1045H86.6455V50ZM98.3276 50.1392C99.4189 50.1392 100.356 49.6191 100.854 48.7402H100.972V50H102.173V38.9697H100.913V43.3496H100.803C100.356 42.4854 99.4263 41.9653 98.3276 41.9653C96.3208 41.9653 95.0098 43.5767 95.0098 46.0522C95.0098 48.5352 96.3062 50.1392 98.3276 50.1392ZM98.6206 43.1006C100.049 43.1006 100.942 44.2432 100.942 46.0522C100.942 47.876 100.056 49.0039 98.6206 49.0039C97.1777 49.0039 96.3135 47.8979 96.3135 46.0522C96.3135 44.2139 97.1851 43.1006 98.6206 43.1006ZM109.38 40.061V42.1045H108.105V43.1592H109.38V47.9492C109.38 49.458 110.032 50.0586 111.658 50.0586C111.907 50.0586 112.148 50.0293 112.397 49.9854V48.9233C112.163 48.9453 112.039 48.9526 111.812 48.9526C110.991 48.9526 110.64 48.5571 110.64 47.627V43.1592H112.397V42.1045H110.64V40.061H109.38ZM114.375 50H115.635V45.3271C115.635 43.9941 116.411 43.1006 117.825 43.1006C119.019 43.1006 119.648 43.7964 119.648 45.1953V50H120.908V44.8877C120.908 43.0347 119.854 41.9653 118.184 41.9653C116.975 41.9653 116.147 42.478 115.752 43.3496H115.635V38.9697H114.375V50ZM126.357 43.0786C127.61 43.0786 128.445 44.0015 128.474 45.4004H124.124C124.219 44.0015 125.098 43.0786 126.357 43.0786ZM128.438 47.9565C128.108 48.6523 127.419 49.0259 126.401 49.0259C125.061 49.0259 124.189 48.0371 124.124 46.4771V46.4185H129.8V45.9351C129.8 43.4814 128.503 41.9653 126.372 41.9653C124.204 41.9653 122.812 43.5767 122.812 46.0596C122.812 48.5571 124.182 50.1392 126.372 50.1392C128.101 50.1392 129.316 49.3115 129.697 47.9565H128.438ZM136.084 50H137.344V38.9697H136.084V50ZM142.222 49.0332C141.306 49.0332 140.625 48.5645 140.625 47.7588C140.625 46.9678 141.152 46.5503 142.354 46.4697L144.478 46.3306V47.0557C144.478 48.1836 143.518 49.0332 142.222 49.0332ZM141.987 50.1392C143.042 50.1392 143.906 49.6777 144.419 48.8354H144.536V50H145.737V44.5947C145.737 42.9541 144.661 41.9653 142.734 41.9653C141.05 41.9653 139.805 42.8003 139.636 44.0674H140.911C141.086 43.4448 141.746 43.0859 142.69 43.0859C143.87 43.0859 144.478 43.6206 144.478 44.5947V45.3125L142.2 45.4517C140.361 45.5615 139.321 46.3745 139.321 47.7881C139.321 49.231 140.457 50.1392 141.987 50.1392ZM148.066 50H149.326V45.3271C149.326 43.9429 150.139 43.1006 151.399 43.1006C152.659 43.1006 153.259 43.7744 153.259 45.1953V50H154.519V44.8877C154.519 43.0127 153.53 41.9653 151.758 41.9653C150.549 41.9653 149.78 42.478 149.385 43.3496H149.268V42.1045H148.066V50ZM159.749 50.1392C160.84 50.1392 161.777 49.6191 162.275 48.7402H162.393V50H163.594V38.9697H162.334V43.3496H162.224C161.777 42.4854 160.847 41.9653 159.749 41.9653C157.742 41.9653 156.431 43.5767 156.431 46.0522C156.431 48.5352 157.727 50.1392 159.749 50.1392ZM160.042 43.1006C161.47 43.1006 162.363 44.2432 162.363 46.0522C162.363 47.876 161.477 49.0039 160.042 49.0039C158.599 49.0039 157.734 47.8979 157.734 46.0522C157.734 44.2139 158.606 43.1006 160.042 43.1006ZM167.08 50.0732C167.607 50.0732 168.032 49.6411 168.032 49.1211C168.032 48.5938 167.607 48.1689 167.08 48.1689C166.56 48.1689 166.128 48.5938 166.128 49.1211C166.128 49.6411 166.56 50.0732 167.08 50.0732Z" fill="#D9D9D9"/>
</svg>
