<svg width="350" height="40" viewBox="0 0 350 40" fill="none" xmlns="http://www.w3.org/2000/svg">
<rect width="350" height="40" fill="black"/>
<path d="M20.4941 15V6.62744H23.5664V5.84033H16.5586V6.62744H19.6309V15H20.4941ZM26.5688 8.78564C27.8066 8.78564 28.6255 9.70605 28.6445 11.1152H24.3853C24.4614 9.70605 25.3247 8.78564 26.5688 8.78564ZM28.562 13.3115C28.27 13.9844 27.5718 14.3716 26.6006 14.3716C25.2803 14.3716 24.4233 13.3813 24.3789 11.8389V11.8008H29.5142V11.4326C29.5142 9.34424 28.397 8.04932 26.5752 8.04932C24.7153 8.04932 23.522 9.43945 23.522 11.585C23.522 13.7432 24.7026 15.1143 26.5815 15.1143C28.0161 15.1143 29.0698 14.4224 29.4062 13.3115H28.562ZM31.3169 15H32.1484V10.7344C32.1484 9.65527 32.9355 8.85547 33.9956 8.85547C34.2432 8.85547 34.5859 8.89355 34.7383 8.93799V8.10645C34.5542 8.06201 34.3257 8.04932 34.0972 8.04932C33.1895 8.04932 32.4214 8.54443 32.1929 9.28711H32.1104V8.16357H31.3169V15ZM36.2554 15H37.0869V10.8042C37.0869 9.68701 37.855 8.79834 38.8452 8.79834C39.791 8.79834 40.4194 9.43945 40.4194 10.4233V15H41.251V10.6646C41.251 9.60449 41.9556 8.79834 43.0093 8.79834C44.0376 8.79834 44.5898 9.39502 44.5898 10.5122V15H45.4214V10.3218C45.4214 8.87451 44.6279 8.04932 43.2568 8.04932C42.2729 8.04932 41.4731 8.57617 41.124 9.39502H41.0415C40.7495 8.57617 40.064 8.04932 39.1055 8.04932C38.1597 8.04932 37.4297 8.55713 37.1313 9.39502H37.0488V8.16357H36.2554V15ZM47.3447 9.97266C47.3447 10.9375 47.9414 11.458 49.2109 11.7627L50.2456 12.0103C51.1597 12.2261 51.585 12.5752 51.585 13.1719C51.585 13.8892 50.8296 14.4033 49.8267 14.4033C48.8364 14.4033 48.1826 13.9717 47.9985 13.2861H47.1353C47.2749 14.4097 48.3096 15.1143 49.8013 15.1143C51.293 15.1143 52.4419 14.2891 52.4419 13.1084C52.4419 12.1182 51.8008 11.585 50.4805 11.2676L49.541 11.0454C48.627 10.8296 48.1826 10.5059 48.1826 9.94092C48.1826 9.25537 48.9126 8.76025 49.8076 8.76025C50.7153 8.76025 51.3501 9.1792 51.5024 9.82031H52.3213C52.1689 8.73486 51.1914 8.04932 49.814 8.04932C48.4365 8.04932 47.3447 8.87451 47.3447 9.97266ZM60.4971 15.1143C62.4077 15.1143 63.6074 13.7622 63.6074 11.5786C63.6074 9.39502 62.4077 8.04932 60.4971 8.04932C58.5864 8.04932 57.3931 9.39502 57.3931 11.5786C57.3931 13.7622 58.5864 15.1143 60.4971 15.1143ZM60.4971 14.3589C59.0879 14.3589 58.25 13.3115 58.25 11.5786C58.25 9.8457 59.0879 8.79834 60.4971 8.79834C61.9062 8.79834 62.7441 9.8457 62.7441 11.5786C62.7441 13.3115 61.9062 14.3589 60.4971 14.3589ZM65.8608 15H66.6924V8.86816H68.3047V8.16357H66.6924V7.30664C66.6924 6.51318 67.0669 6.08789 67.854 6.08789C68.0508 6.08789 68.2349 6.10059 68.3682 6.12598V5.44043C68.1587 5.396 67.9492 5.37695 67.6953 5.37695C66.5083 5.37695 65.8608 6.01807 65.8608 7.2876V8.16357H64.7246V8.86816H65.8608V15ZM73.1353 12.6196C73.2432 14.1494 74.6079 15.1904 76.4995 15.1904C78.5054 15.1904 79.8193 14.1177 79.8193 12.5181C79.8193 11.2231 79.0449 10.4741 77.1533 10.0044L76.2456 9.77588C74.8491 9.42676 74.2842 8.96338 74.2842 8.16357C74.2842 7.16699 75.1919 6.44336 76.5059 6.44336C77.7754 6.44336 78.6577 7.10352 78.7974 8.08105H79.6733C79.5781 6.68457 78.2832 5.6499 76.5312 5.6499C74.6714 5.6499 73.3955 6.70996 73.3955 8.18896C73.3955 9.43311 74.1191 10.1504 75.8394 10.5757L76.8867 10.8423C78.3022 11.1914 78.9307 11.75 78.9307 12.6133C78.9307 13.6289 77.9468 14.397 76.5757 14.397C75.1792 14.397 74.1318 13.6733 74.0112 12.6196H73.1353ZM84.3325 8.78564C85.5703 8.78564 86.3892 9.70605 86.4082 11.1152H82.1489C82.2251 9.70605 83.0884 8.78564 84.3325 8.78564ZM86.3257 13.3115C86.0337 13.9844 85.3354 14.3716 84.3643 14.3716C83.0439 14.3716 82.187 13.3813 82.1426 11.8389V11.8008H87.2778V11.4326C87.2778 9.34424 86.1606 8.04932 84.3389 8.04932C82.479 8.04932 81.2856 9.43945 81.2856 11.585C81.2856 13.7432 82.4663 15.1143 84.3452 15.1143C85.7798 15.1143 86.8335 14.4224 87.1699 13.3115H86.3257ZM89.0806 15H89.9121V10.7344C89.9121 9.65527 90.6992 8.85547 91.7593 8.85547C92.0068 8.85547 92.3496 8.89355 92.502 8.93799V8.10645C92.3179 8.06201 92.0894 8.04932 91.8608 8.04932C90.9531 8.04932 90.1851 8.54443 89.9565 9.28711H89.874V8.16357H89.0806V15ZM99.2749 8.16357H98.3799L96.3169 14.0923H96.2407L94.1714 8.16357H93.2827L95.8345 15H96.7231L99.2749 8.16357ZM100.811 15H101.643V8.16357H100.811V15ZM101.224 6.64014C101.566 6.64014 101.846 6.36084 101.846 6.01807C101.846 5.68164 101.566 5.40234 101.224 5.40234C100.887 5.40234 100.608 5.68164 100.608 6.01807C100.608 6.36084 100.887 6.64014 101.224 6.64014ZM109.361 10.1758C109.158 8.98242 108.124 8.04932 106.556 8.04932C104.67 8.04932 103.477 9.42041 103.477 11.5596C103.477 13.7305 104.677 15.1143 106.562 15.1143C108.124 15.1143 109.146 14.2573 109.355 13.0322H108.511C108.301 13.8701 107.565 14.3589 106.556 14.3589C105.204 14.3589 104.334 13.2671 104.334 11.5596C104.334 9.87109 105.197 8.79834 106.556 8.79834C107.603 8.79834 108.308 9.38867 108.517 10.1758H109.361ZM113.798 8.78564C115.036 8.78564 115.855 9.70605 115.874 11.1152H111.615C111.691 9.70605 112.554 8.78564 113.798 8.78564ZM115.792 13.3115C115.5 13.9844 114.801 14.3716 113.83 14.3716C112.51 14.3716 111.653 13.3813 111.608 11.8389V11.8008H116.744V11.4326C116.744 9.34424 115.626 8.04932 113.805 8.04932C111.945 8.04932 110.751 9.43945 110.751 11.585C110.751 13.7432 111.932 15.1143 113.811 15.1143C115.246 15.1143 116.299 14.4224 116.636 13.3115H115.792Z" fill="#6E767D"/>
<path d="M131.174 5.84033V15H132.044V11.5469H134.418C136.164 11.5469 137.363 10.3916 137.363 8.70947C137.363 7.00195 136.183 5.84033 134.431 5.84033H131.174ZM132.044 6.61475H134.221C135.649 6.61475 136.481 7.38916 136.481 8.70947C136.481 9.99805 135.63 10.7725 134.221 10.7725H132.044V6.61475ZM139.147 15H139.979V10.7344C139.979 9.65527 140.766 8.85547 141.826 8.85547C142.073 8.85547 142.416 8.89355 142.568 8.93799V8.10645C142.384 8.06201 142.156 8.04932 141.927 8.04932C141.02 8.04932 140.251 8.54443 140.023 9.28711H139.94V8.16357H139.147V15ZM144.035 15H144.866V8.16357H144.035V15ZM144.447 6.64014C144.79 6.64014 145.069 6.36084 145.069 6.01807C145.069 5.68164 144.79 5.40234 144.447 5.40234C144.111 5.40234 143.832 5.68164 143.832 6.01807C143.832 6.36084 144.111 6.64014 144.447 6.64014ZM152.388 8.16357H151.493L149.43 14.0923H149.354L147.285 8.16357H146.396L148.948 15H149.836L152.388 8.16357ZM155.676 14.3779C154.756 14.3779 154.089 13.8828 154.089 13.0957C154.089 12.3149 154.648 11.8833 155.81 11.8008L157.834 11.6548V12.4546C157.834 13.54 156.901 14.3779 155.676 14.3779ZM155.537 15.1143C156.54 15.1143 157.377 14.6382 157.796 13.8257H157.873V15H158.672V10.3091C158.672 8.88721 157.765 8.04932 156.159 8.04932C154.724 8.04932 153.664 8.7666 153.505 9.85205H154.35C154.515 9.19189 155.194 8.79199 156.133 8.79199C157.244 8.79199 157.834 9.33789 157.834 10.3154V10.9756L155.695 11.1152C154.115 11.2231 153.232 11.915 153.232 13.1084C153.232 14.3335 154.197 15.1143 155.537 15.1143ZM166.321 10.1758C166.118 8.98242 165.083 8.04932 163.516 8.04932C161.63 8.04932 160.437 9.42041 160.437 11.5596C160.437 13.7305 161.637 15.1143 163.522 15.1143C165.083 15.1143 166.105 14.2573 166.315 13.0322H165.471C165.261 13.8701 164.525 14.3589 163.516 14.3589C162.164 14.3589 161.294 13.2671 161.294 11.5596C161.294 9.87109 162.157 8.79834 163.516 8.79834C164.563 8.79834 165.268 9.38867 165.477 10.1758H166.321ZM168.537 17.4185C169.654 17.4185 170.136 16.9741 170.746 15.3301L173.405 8.16357H172.517L170.454 14.0923H170.377L168.308 8.16357H167.407L169.971 15.0444L169.832 15.4697C169.495 16.3774 169.152 16.6948 168.524 16.6948C168.422 16.6948 168.245 16.6885 168.149 16.6694V17.3931C168.257 17.4058 168.435 17.4185 168.537 17.4185ZM178.528 5.84033V15H179.397V11.5469H181.771C183.517 11.5469 184.717 10.3916 184.717 8.70947C184.717 7.00195 183.536 5.84033 181.784 5.84033H178.528ZM179.397 6.61475H181.575C183.003 6.61475 183.834 7.38916 183.834 8.70947C183.834 9.99805 182.984 10.7725 181.575 10.7725H179.397V6.61475ZM189.008 15.1143C190.918 15.1143 192.118 13.7622 192.118 11.5786C192.118 9.39502 190.918 8.04932 189.008 8.04932C187.097 8.04932 185.904 9.39502 185.904 11.5786C185.904 13.7622 187.097 15.1143 189.008 15.1143ZM189.008 14.3589C187.599 14.3589 186.761 13.3115 186.761 11.5786C186.761 9.8457 187.599 8.79834 189.008 8.79834C190.417 8.79834 191.255 9.8457 191.255 11.5786C191.255 13.3115 190.417 14.3589 189.008 14.3589ZM193.978 15H194.81V5.44043H193.978V15ZM197.063 15H197.895V8.16357H197.063V15ZM197.476 6.64014C197.818 6.64014 198.098 6.36084 198.098 6.01807C198.098 5.68164 197.818 5.40234 197.476 5.40234C197.139 5.40234 196.86 5.68164 196.86 6.01807C196.86 6.36084 197.139 6.64014 197.476 6.64014ZM205.613 10.1758C205.41 8.98242 204.375 8.04932 202.808 8.04932C200.922 8.04932 199.729 9.42041 199.729 11.5596C199.729 13.7305 200.929 15.1143 202.814 15.1143C204.375 15.1143 205.397 14.2573 205.607 13.0322H204.763C204.553 13.8701 203.817 14.3589 202.808 14.3589C201.456 14.3589 200.586 13.2671 200.586 11.5596C200.586 9.87109 201.449 8.79834 202.808 8.79834C203.855 8.79834 204.56 9.38867 204.769 10.1758H205.613ZM207.829 17.4185C208.946 17.4185 209.428 16.9741 210.038 15.3301L212.697 8.16357H211.809L209.746 14.0923H209.669L207.6 8.16357H206.699L209.263 15.0444L209.124 15.4697C208.787 16.3774 208.444 16.6948 207.816 16.6948C207.714 16.6948 207.537 16.6885 207.441 16.6694V17.3931C207.549 17.4058 207.727 17.4185 207.829 17.4185Z" fill="#6E767D"/>
<path d="M230.843 15.1904C232.786 15.1904 234.233 14.0732 234.493 12.3911H233.611C233.357 13.5972 232.259 14.3843 230.843 14.3843C228.914 14.3843 227.695 12.8481 227.695 10.4233C227.695 7.99854 228.92 6.45605 230.837 6.45605C232.214 6.45605 233.344 7.34473 233.611 8.63965H234.493C234.246 6.90039 232.722 5.6499 230.837 5.6499C228.355 5.6499 226.806 7.48438 226.806 10.4233C226.806 13.3623 228.355 15.1904 230.843 15.1904ZM239.076 15.1143C240.987 15.1143 242.187 13.7622 242.187 11.5786C242.187 9.39502 240.987 8.04932 239.076 8.04932C237.166 8.04932 235.972 9.39502 235.972 11.5786C235.972 13.7622 237.166 15.1143 239.076 15.1143ZM239.076 14.3589C237.667 14.3589 236.829 13.3115 236.829 11.5786C236.829 9.8457 237.667 8.79834 239.076 8.79834C240.485 8.79834 241.323 9.8457 241.323 11.5786C241.323 13.3115 240.485 14.3589 239.076 14.3589ZM246.744 15.1143C248.655 15.1143 249.854 13.7622 249.854 11.5786C249.854 9.39502 248.655 8.04932 246.744 8.04932C244.833 8.04932 243.64 9.39502 243.64 11.5786C243.64 13.7622 244.833 15.1143 246.744 15.1143ZM246.744 14.3589C245.335 14.3589 244.497 13.3115 244.497 11.5786C244.497 9.8457 245.335 8.79834 246.744 8.79834C248.153 8.79834 248.991 9.8457 248.991 11.5786C248.991 13.3115 248.153 14.3589 246.744 14.3589ZM252.622 11.3628H252.546V5.44043H251.714V15H252.546V12.3467L253.32 11.6294L256.075 15H257.142L253.949 11.0962L257.002 8.16357H255.961L252.622 11.3628ZM258.621 15H259.452V8.16357H258.621V15ZM259.033 6.64014C259.376 6.64014 259.655 6.36084 259.655 6.01807C259.655 5.68164 259.376 5.40234 259.033 5.40234C258.697 5.40234 258.417 5.68164 258.417 6.01807C258.417 6.36084 258.697 6.64014 259.033 6.64014ZM264.333 8.78564C265.571 8.78564 266.39 9.70605 266.409 11.1152H262.15C262.226 9.70605 263.089 8.78564 264.333 8.78564ZM266.327 13.3115C266.035 13.9844 265.336 14.3716 264.365 14.3716C263.045 14.3716 262.188 13.3813 262.144 11.8389V11.8008H267.279V11.4326C267.279 9.34424 266.162 8.04932 264.34 8.04932C262.48 8.04932 261.287 9.43945 261.287 11.585C261.287 13.7432 262.467 15.1143 264.346 15.1143C265.781 15.1143 266.834 14.4224 267.171 13.3115H266.327ZM272.7 5.84033V15H273.569V11.5469H275.943C277.689 11.5469 278.889 10.3916 278.889 8.70947C278.889 7.00195 277.708 5.84033 275.956 5.84033H272.7ZM273.569 6.61475H275.747C277.175 6.61475 278.006 7.38916 278.006 8.70947C278.006 9.99805 277.156 10.7725 275.747 10.7725H273.569V6.61475ZM283.18 15.1143C285.09 15.1143 286.29 13.7622 286.29 11.5786C286.29 9.39502 285.09 8.04932 283.18 8.04932C281.269 8.04932 280.076 9.39502 280.076 11.5786C280.076 13.7622 281.269 15.1143 283.18 15.1143ZM283.18 14.3589C281.771 14.3589 280.933 13.3115 280.933 11.5786C280.933 9.8457 281.771 8.79834 283.18 8.79834C284.589 8.79834 285.427 9.8457 285.427 11.5786C285.427 13.3115 284.589 14.3589 283.18 14.3589ZM288.15 15H288.981V5.44043H288.15V15ZM291.235 15H292.066V8.16357H291.235V15ZM291.647 6.64014C291.99 6.64014 292.27 6.36084 292.27 6.01807C292.27 5.68164 291.99 5.40234 291.647 5.40234C291.311 5.40234 291.032 5.68164 291.032 6.01807C291.032 6.36084 291.311 6.64014 291.647 6.64014ZM299.785 10.1758C299.582 8.98242 298.547 8.04932 296.979 8.04932C295.094 8.04932 293.901 9.42041 293.901 11.5596C293.901 13.7305 295.101 15.1143 296.986 15.1143C298.547 15.1143 299.569 14.2573 299.779 13.0322H298.935C298.725 13.8701 297.989 14.3589 296.979 14.3589C295.627 14.3589 294.758 13.2671 294.758 11.5596C294.758 9.87109 295.621 8.79834 296.979 8.79834C298.027 8.79834 298.731 9.38867 298.941 10.1758H299.785ZM302 17.4185C303.118 17.4185 303.6 16.9741 304.209 15.3301L306.869 8.16357H305.98L303.917 14.0923H303.841L301.772 8.16357H300.871L303.435 15.0444L303.295 15.4697C302.959 16.3774 302.616 16.6948 301.988 16.6948C301.886 16.6948 301.708 16.6885 301.613 16.6694V17.3931C301.721 17.4058 301.899 17.4185 302 17.4185Z" fill="#6E767D"/>
<path d="M18.0439 35V25.8403H17.1743V35H18.0439ZM20.2974 35H21.1289V30.8042C21.1289 29.687 21.897 28.7983 22.8872 28.7983C23.833 28.7983 24.4614 29.4395 24.4614 30.4233V35H25.293V30.6646C25.293 29.6045 25.9976 28.7983 27.0513 28.7983C28.0796 28.7983 28.6318 29.395 28.6318 30.5122V35H29.4634V30.3218C29.4634 28.8745 28.6699 28.0493 27.2988 28.0493C26.3149 28.0493 25.5151 28.5762 25.166 29.395H25.0835C24.7915 28.5762 24.106 28.0493 23.1475 28.0493C22.2017 28.0493 21.4717 28.5571 21.1733 29.395H21.0908V28.1636H20.2974V35ZM34.7573 28.0493C33.7163 28.0493 32.834 28.627 32.415 29.5601H32.3389V28.1636H31.5454V37.2661H32.377V33.6987H32.4531C32.834 34.5811 33.6973 35.1143 34.7573 35.1143C36.4839 35.1143 37.6328 33.7051 37.6328 31.5786C37.6328 29.4521 36.4902 28.0493 34.7573 28.0493ZM34.5732 34.3589C33.2402 34.3589 32.3516 33.2544 32.3516 31.5786C32.3516 29.9028 33.2402 28.7983 34.5796 28.7983C35.9253 28.7983 36.7759 29.8774 36.7759 31.585C36.7759 33.2861 35.9253 34.3589 34.5732 34.3589ZM39.4292 35H40.2607V30.7344C40.2607 29.6553 41.0479 28.8555 42.1079 28.8555C42.3555 28.8555 42.6982 28.8936 42.8506 28.938V28.1064C42.6665 28.062 42.438 28.0493 42.2095 28.0493C41.3018 28.0493 40.5337 28.5444 40.3052 29.2871H40.2227V28.1636H39.4292V35ZM44.3169 35H45.1484V28.1636H44.3169V35ZM44.7295 26.6401C45.0723 26.6401 45.3516 26.3608 45.3516 26.0181C45.3516 25.6816 45.0723 25.4023 44.7295 25.4023C44.3931 25.4023 44.1138 25.6816 44.1138 26.0181C44.1138 26.3608 44.3931 26.6401 44.7295 26.6401ZM47.3257 35H48.1572V30.9375C48.1572 29.6489 48.9824 28.7983 50.1885 28.7983C51.3755 28.7983 51.9722 29.4648 51.9722 30.7661V35H52.8037V30.5566C52.8037 28.9634 51.9341 28.0493 50.4106 28.0493C49.3188 28.0493 48.5635 28.5508 48.2017 29.395H48.1191V28.1636H47.3257V35ZM55.3237 26.3862V28.1636H54.2065V28.8682H55.3237V33.2988C55.3237 34.543 55.8442 35.0381 57.1519 35.0381C57.2979 35.0381 57.5898 35.019 57.7358 34.9937V34.2827C57.5962 34.2954 57.374 34.3018 57.2407 34.3018C56.4727 34.3018 56.1553 33.9463 56.1553 33.1084V28.8682H57.7358V28.1636H56.1553V26.3862H55.3237Z" fill="#6E767D"/>
<path d="M78.2681 35H79.1821L75.7607 25.8403H74.8975L71.4697 35H72.3901L73.4058 32.1943H77.2524L78.2681 35ZM75.2847 26.9766H75.3672L76.9922 31.4453H73.666L75.2847 26.9766ZM82.9146 35.1143C83.9619 35.1143 84.8442 34.5493 85.2505 33.6353H85.3267V35H86.1265V25.4404H85.2949V29.4966H85.2188C84.8315 28.6016 83.9556 28.0493 82.9146 28.0493C81.1816 28.0493 80.02 29.4648 80.02 31.585C80.02 33.7051 81.1689 35.1143 82.9146 35.1143ZM83.0923 28.7983C84.4316 28.7983 85.3076 29.9028 85.3076 31.5786C85.3076 33.2671 84.438 34.3589 83.0923 34.3589C81.7402 34.3589 80.877 33.2798 80.877 31.5786C80.877 29.8838 81.7402 28.7983 83.0923 28.7983ZM88.1768 29.9727C88.1768 30.9375 88.7734 31.458 90.043 31.7627L91.0776 32.0103C91.9917 32.2261 92.417 32.5752 92.417 33.1719C92.417 33.8892 91.6616 34.4033 90.6587 34.4033C89.6685 34.4033 89.0146 33.9717 88.8306 33.2861H87.9673C88.1069 34.4097 89.1416 35.1143 90.6333 35.1143C92.125 35.1143 93.2739 34.2891 93.2739 33.1084C93.2739 32.1182 92.6328 31.585 91.3125 31.2676L90.373 31.0454C89.459 30.8296 89.0146 30.5059 89.0146 29.9409C89.0146 29.2554 89.7446 28.7603 90.6396 28.7603C91.5474 28.7603 92.1821 29.1792 92.3345 29.8203H93.1533C93.001 28.7349 92.0234 28.0493 90.646 28.0493C89.2686 28.0493 88.1768 28.8745 88.1768 29.9727ZM98.606 35H99.4375V28.1636H98.606V35ZM99.0186 26.6401C99.3613 26.6401 99.6406 26.3608 99.6406 26.0181C99.6406 25.6816 99.3613 25.4023 99.0186 25.4023C98.6821 25.4023 98.4028 25.6816 98.4028 26.0181C98.4028 26.3608 98.6821 26.6401 99.0186 26.6401ZM101.615 35H102.446V30.9375C102.446 29.6489 103.271 28.7983 104.478 28.7983C105.665 28.7983 106.261 29.4648 106.261 30.7661V35H107.093V30.5566C107.093 28.9634 106.223 28.0493 104.7 28.0493C103.608 28.0493 102.853 28.5508 102.491 29.395H102.408V28.1636H101.615V35ZM109.638 35H110.47V28.8682H112.082V28.1636H110.47V27.3066C110.47 26.5132 110.844 26.0879 111.631 26.0879C111.828 26.0879 112.012 26.1006 112.146 26.126V25.4404C111.936 25.396 111.727 25.377 111.473 25.377C110.286 25.377 109.638 26.0181 109.638 27.2876V28.1636H108.502V28.8682H109.638V35ZM116.183 35.1143C118.093 35.1143 119.293 33.7622 119.293 31.5786C119.293 29.395 118.093 28.0493 116.183 28.0493C114.272 28.0493 113.079 29.395 113.079 31.5786C113.079 33.7622 114.272 35.1143 116.183 35.1143ZM116.183 34.3589C114.773 34.3589 113.936 33.3115 113.936 31.5786C113.936 29.8457 114.773 28.7983 116.183 28.7983C117.592 28.7983 118.43 29.8457 118.43 31.5786C118.43 33.3115 117.592 34.3589 116.183 34.3589Z" fill="#6E767D"/>
<path d="M143.004 35V25.8403H142.001L138.63 33.813H138.554L135.171 25.8403H134.174V35H134.993V27.5288H135.05L138.211 34.9556H138.967L142.128 27.5288H142.191V35H143.004ZM148.019 35.1143C149.929 35.1143 151.129 33.7622 151.129 31.5786C151.129 29.395 149.929 28.0493 148.019 28.0493C146.108 28.0493 144.915 29.395 144.915 31.5786C144.915 33.7622 146.108 35.1143 148.019 35.1143ZM148.019 34.3589C146.609 34.3589 145.771 33.3115 145.771 31.5786C145.771 29.8457 146.609 28.7983 148.019 28.7983C149.428 28.7983 150.266 29.8457 150.266 31.5786C150.266 33.3115 149.428 34.3589 148.019 34.3589ZM152.925 35H153.757V30.7344C153.757 29.6553 154.544 28.8555 155.604 28.8555C155.852 28.8555 156.194 28.8936 156.347 28.938V28.1064C156.163 28.062 155.934 28.0493 155.706 28.0493C154.798 28.0493 154.03 28.5444 153.801 29.2871H153.719V28.1636H152.925V35ZM160.263 28.7856C161.501 28.7856 162.32 29.7061 162.339 31.1152H158.08C158.156 29.7061 159.019 28.7856 160.263 28.7856ZM162.256 33.3115C161.964 33.9844 161.266 34.3716 160.295 34.3716C158.975 34.3716 158.118 33.3813 158.073 31.8389V31.8008H163.208V31.4326C163.208 29.3442 162.091 28.0493 160.27 28.0493C158.41 28.0493 157.216 29.4395 157.216 31.585C157.216 33.7432 158.397 35.1143 160.276 35.1143C161.71 35.1143 162.764 34.4224 163.101 33.3115H162.256ZM169.34 35.0508C169.715 35.0508 170.007 34.7524 170.007 34.3843C170.007 34.0098 169.715 33.7114 169.34 33.7114C168.966 33.7114 168.667 34.0098 168.667 34.3843C168.667 34.7524 168.966 35.0508 169.34 35.0508ZM173.111 35.0508C173.485 35.0508 173.777 34.7524 173.777 34.3843C173.777 34.0098 173.485 33.7114 173.111 33.7114C172.736 33.7114 172.438 34.0098 172.438 34.3843C172.438 34.7524 172.736 35.0508 173.111 35.0508ZM176.881 35.0508C177.256 35.0508 177.548 34.7524 177.548 34.3843C177.548 34.0098 177.256 33.7114 176.881 33.7114C176.507 33.7114 176.208 34.0098 176.208 34.3843C176.208 34.7524 176.507 35.0508 176.881 35.0508Z" fill="#6E767D"/>
<path d="M196.529 36.0029C199.341 36.0029 201.499 33.8511 201.499 31.0264C201.499 28.1953 199.341 26.0498 196.529 26.0498C193.723 26.0498 191.559 28.1953 191.559 31.0264C191.559 33.8447 193.729 36.0029 196.529 36.0029ZM196.529 35.311C194.117 35.311 192.257 33.4639 192.257 31.0264C192.257 28.5825 194.11 26.7417 196.529 26.7417C198.954 26.7417 200.801 28.5762 200.801 31.0264C200.801 33.4639 198.947 35.311 196.529 35.311ZM198.858 30.0488C198.687 29.0459 197.798 28.3159 196.586 28.3159C195.094 28.3159 194.085 29.3506 194.085 31.001C194.085 32.6704 195.094 33.7178 196.592 33.7178C197.824 33.7178 198.681 33.0513 198.858 32.0293H198.167C198.008 32.6768 197.449 33.1021 196.586 33.1021C195.507 33.1021 194.783 32.2959 194.783 31.001C194.783 29.7188 195.513 28.938 196.586 28.938C197.405 28.938 197.995 29.395 198.173 30.0488H198.858ZM206.539 28.3667V28.373H207.383V28.3667C207.396 27.2114 208.215 26.4116 209.396 26.4116C210.519 26.4116 211.389 27.2051 211.389 28.2271C211.389 29.0142 211.065 29.5601 209.789 30.9312L206.59 34.3906V35H212.487V34.2129H207.84V34.1367L210.316 31.4961C211.82 29.8901 212.258 29.1475 212.258 28.1953C212.258 26.7544 211.027 25.6499 209.415 25.6499C207.758 25.6499 206.552 26.7861 206.539 28.3667ZM217.368 35.1904C219.393 35.1904 220.586 33.4258 220.586 30.4297C220.586 27.4399 219.38 25.6499 217.368 25.6499C215.343 25.6499 214.131 27.4336 214.131 30.417C214.131 33.4194 215.331 35.1904 217.368 35.1904ZM217.368 34.4287C215.876 34.4287 215.007 32.9561 215.007 30.417C215.007 27.9033 215.883 26.418 217.368 26.418C218.847 26.418 219.717 27.8906 219.717 30.417C219.717 32.9561 218.854 34.4287 217.368 34.4287ZM222.332 28.3667V28.373H223.176V28.3667C223.189 27.2114 224.008 26.4116 225.188 26.4116C226.312 26.4116 227.182 27.2051 227.182 28.2271C227.182 29.0142 226.858 29.5601 225.582 30.9312L222.383 34.3906V35H228.28V34.2129H223.633V34.1367L226.109 31.4961C227.613 29.8901 228.051 29.1475 228.051 28.1953C228.051 26.7544 226.82 25.6499 225.208 25.6499C223.551 25.6499 222.345 26.7861 222.332 28.3667ZM232.317 35H233.18V25.8403H232.317C231.942 26.0625 230.044 27.4082 229.848 27.5352V28.4556C230.159 28.2524 232.006 26.9385 232.234 26.8115H232.317V35ZM242.937 35V26.6274H246.009V25.8403H239.001V26.6274H242.073V35H242.937ZM255.181 28.1636H254.343L252.813 33.9653H252.737L251.049 28.1636H250.217L248.529 33.9653H248.453L246.936 28.1636H246.091L248.027 35H248.903L250.585 29.3252H250.668L252.35 35H253.232L255.181 28.1636ZM256.717 35H257.549V28.1636H256.717V35ZM257.13 26.6401C257.473 26.6401 257.752 26.3608 257.752 26.0181C257.752 25.6816 257.473 25.4023 257.13 25.4023C256.793 25.4023 256.514 25.6816 256.514 26.0181C256.514 26.3608 256.793 26.6401 257.13 26.6401ZM260.158 26.3862V28.1636H259.041V28.8682H260.158V33.2988C260.158 34.543 260.678 35.0381 261.986 35.0381C262.132 35.0381 262.424 35.019 262.57 34.9937V34.2827C262.43 34.2954 262.208 34.3018 262.075 34.3018C261.307 34.3018 260.989 33.9463 260.989 33.1084V28.8682H262.57V28.1636H260.989V26.3862H260.158ZM264.753 26.3862V28.1636H263.636V28.8682H264.753V33.2988C264.753 34.543 265.274 35.0381 266.582 35.0381C266.728 35.0381 267.02 35.019 267.166 34.9937V34.2827C267.026 34.2954 266.804 34.3018 266.67 34.3018C265.902 34.3018 265.585 33.9463 265.585 33.1084V28.8682H267.166V28.1636H265.585V26.3862H264.753ZM271.495 28.7856C272.732 28.7856 273.551 29.7061 273.57 31.1152H269.311C269.387 29.7061 270.25 28.7856 271.495 28.7856ZM273.488 33.3115C273.196 33.9844 272.498 34.3716 271.526 34.3716C270.206 34.3716 269.349 33.3813 269.305 31.8389V31.8008H274.44V31.4326C274.44 29.3442 273.323 28.0493 271.501 28.0493C269.641 28.0493 268.448 29.4395 268.448 31.585C268.448 33.7432 269.628 35.1143 271.507 35.1143C272.942 35.1143 273.996 34.4224 274.332 33.3115H273.488ZM276.243 35H277.074V30.7344C277.074 29.6553 277.861 28.8555 278.921 28.8555C279.169 28.8555 279.512 28.8936 279.664 28.938V28.1064C279.48 28.062 279.251 28.0493 279.023 28.0493C278.115 28.0493 277.347 28.5444 277.119 29.2871H277.036V28.1636H276.243V35ZM280.711 37.2153L281.638 33.8384H280.699L280.083 37.2153H280.711ZM288.5 35V25.8403H287.63V35H288.5ZM290.753 35H291.585V30.9375C291.585 29.6489 292.41 28.7983 293.616 28.7983C294.803 28.7983 295.4 29.4648 295.4 30.7661V35H296.231V30.5566C296.231 28.9634 295.362 28.0493 293.838 28.0493C292.747 28.0493 291.991 28.5508 291.629 29.395H291.547V28.1636H290.753V35ZM303.861 30.1758C303.658 28.9824 302.624 28.0493 301.056 28.0493C299.17 28.0493 297.977 29.4204 297.977 31.5596C297.977 33.7305 299.177 35.1143 301.062 35.1143C302.624 35.1143 303.646 34.2573 303.855 33.0322H303.011C302.801 33.8701 302.065 34.3589 301.056 34.3589C299.704 34.3589 298.834 33.2671 298.834 31.5596C298.834 29.8711 299.697 28.7983 301.056 28.7983C302.103 28.7983 302.808 29.3887 303.017 30.1758H303.861ZM306.407 35.0508C306.781 35.0508 307.073 34.7524 307.073 34.3843C307.073 34.0098 306.781 33.7114 306.407 33.7114C306.032 33.7114 305.734 34.0098 305.734 34.3843C305.734 34.7524 306.032 35.0508 306.407 35.0508Z" fill="#6E767D"/>
</svg>
